<svg width="380" height="380" viewBox="0 0 380 380" fill="none" xmlns="http://www.w3.org/2000/svg">
<circle opacity="0.16" cx="190" cy="190" r="181.364" fill="#028169"/>
<g clip-path="url(#clip0_2816_26274)">
<path d="M160.68 325.52C216.033 325.52 260.905 317.593 260.905 307.815C260.905 298.036 216.033 290.109 160.68 290.109C105.327 290.109 60.4546 298.036 60.4546 307.815C60.4546 317.593 105.327 325.52 160.68 325.52Z" fill="#3F3D56"/>
<path d="M221.595 250.311C275.691 250.311 319.546 206.457 319.546 152.36C319.546 98.2632 275.691 54.4091 221.595 54.4091C167.498 54.4091 123.644 98.2632 123.644 152.36C123.644 206.457 167.498 250.311 221.595 250.311Z" fill="#3F3D56"/>
<path opacity="0.05" d="M221.594 233.222C266.253 233.222 302.456 197.019 302.456 152.36C302.456 107.701 266.253 71.4984 221.594 71.4984C176.935 71.4984 140.732 107.701 140.732 152.36C140.732 197.019 176.935 233.222 221.594 233.222Z" fill="black"/>
<path opacity="0.05" d="M221.594 218.633C258.196 218.633 287.868 188.962 287.868 152.36C287.868 115.758 258.196 86.0869 221.594 86.0869C184.993 86.0869 155.321 115.758 155.321 152.36C155.321 188.962 184.993 218.633 221.594 218.633Z" fill="black"/>
<path opacity="0.05" d="M221.594 199.877C247.837 199.877 269.111 178.603 269.111 152.36C269.111 126.117 247.837 104.844 221.594 104.844C195.352 104.844 174.078 126.117 174.078 152.36C174.078 178.603 195.352 199.877 221.594 199.877Z" fill="black"/>
<path d="M124.511 161.126C124.511 161.126 116.81 182.803 120.233 190.504C123.655 198.205 129.075 205.62 129.075 205.62C129.075 205.62 127.078 162.552 124.511 161.126Z" fill="#D0CDE1"/>
<path opacity="0.1" d="M124.511 161.126C124.511 161.126 116.81 182.803 120.233 190.504C123.655 198.205 129.075 205.62 129.075 205.62C129.075 205.62 127.078 162.552 124.511 161.126Z" fill="black"/>
<path d="M129.93 211.325C129.93 211.325 129.36 216.744 129.075 217.029C128.789 217.314 129.36 217.885 129.075 218.74C128.789 219.596 128.504 220.737 129.075 221.022C129.645 221.307 125.937 246.406 125.937 246.406C125.937 246.406 116.81 258.386 120.518 277.21L121.659 296.32C121.659 296.32 130.501 296.89 130.501 293.753C130.501 293.753 129.93 290.045 129.93 288.334C129.93 286.622 131.356 286.622 130.501 285.767C129.645 284.911 129.645 284.341 129.645 284.341C129.645 284.341 131.071 283.2 130.786 282.915C130.501 282.629 133.353 262.379 133.353 262.379C133.353 262.379 136.49 259.241 136.49 257.53V255.819C136.49 255.819 137.916 252.111 137.916 251.826C137.916 251.54 145.617 234.142 145.617 234.142L148.755 246.692L152.177 264.661C152.177 264.661 153.889 280.918 157.311 287.193C157.311 287.193 163.301 307.729 163.301 307.158C163.301 306.588 173.283 305.162 172.998 302.595C172.713 300.028 167.009 264.09 167.009 264.09L168.435 210.754L129.93 211.325Z" fill="#2F2E41"/>
<path d="M122.229 294.894C122.229 294.894 114.528 310.01 119.662 310.581C124.796 311.151 126.792 311.151 129.074 308.869C130.321 307.622 132.848 305.948 134.881 304.687C136.087 303.952 137.06 302.892 137.69 301.629C138.321 300.366 138.582 298.951 138.445 297.546C138.295 296.15 137.773 295.001 136.49 294.894C133.067 294.608 129.074 291.471 129.074 291.471L122.229 294.894Z" fill="#2F2E41"/>
<path d="M164.727 306.017C164.727 306.017 157.026 321.134 162.16 321.704C167.294 322.275 169.29 322.275 171.572 319.993C172.819 318.746 175.346 317.072 177.379 315.811C178.585 315.076 179.558 314.016 180.188 312.753C180.819 311.49 181.08 310.074 180.943 308.669C180.793 307.274 180.271 306.124 178.988 306.017C175.565 305.732 171.572 302.595 171.572 302.595L164.727 306.017Z" fill="#2F2E41"/>
<path d="M156.588 136.388C163.21 136.388 168.578 131.02 168.578 124.399C168.578 117.777 163.21 112.409 156.588 112.409C149.967 112.409 144.599 117.777 144.599 124.399C144.599 131.02 149.967 136.388 156.588 136.388Z" fill="#FFB8B8"/>
<path d="M148.88 128.338C148.88 128.338 140.316 144.096 139.631 144.096C138.946 144.096 155.046 149.234 155.046 149.234C155.046 149.234 159.499 134.161 160.185 132.791L148.88 128.338Z" fill="#FFB8B8"/>
<path d="M162.017 145.582C162.017 145.582 144.904 136.169 143.193 136.455C141.481 136.74 123.227 152.712 123.513 159.272C123.798 165.832 126.08 176.67 126.08 176.67C126.08 176.67 126.935 206.904 128.647 207.189C130.358 207.474 128.361 212.608 128.932 212.608C129.502 212.608 168.862 212.608 169.148 211.752C169.433 210.897 162.017 145.582 162.017 145.582Z" fill="#D0CDE1"/>
<path d="M171.572 213.321C171.572 213.321 176.991 229.864 172.428 229.293C167.864 228.723 165.868 215.032 165.868 215.032L171.572 213.321Z" fill="#FFB8B8"/>
<path d="M157.026 144.583C157.026 144.583 146.473 146.865 148.184 161.126C149.896 175.387 153.033 189.648 153.033 189.648L163.586 212.751L164.727 217.029L172.428 215.032L166.724 181.947C166.724 181.947 164.727 146.58 162.16 145.439C160.541 144.749 158.781 144.456 157.026 144.583Z" fill="#D0CDE1"/>
<path opacity="0.1" d="M150.608 189.22L163.729 212.608L152.675 187.964L150.608 189.22Z" fill="black"/>
<path d="M168.524 120.868L168.564 119.952L170.387 120.406C170.367 120.111 170.284 119.825 170.143 119.566C170.002 119.307 169.806 119.082 169.57 118.906L171.511 118.798C169.882 116.483 167.801 114.522 165.393 113.034C162.985 111.546 160.3 110.561 157.501 110.139C153.302 109.531 148.626 110.411 145.746 113.528C144.35 115.04 143.472 116.962 142.848 118.923C141.698 122.535 141.464 126.841 143.861 129.777C146.298 132.761 150.554 133.346 154.389 133.715C155.739 133.845 157.153 133.966 158.403 133.442C158.542 132.008 158.359 130.561 157.866 129.207C157.66 128.788 157.562 128.324 157.58 127.858C157.751 126.717 159.272 126.43 160.416 126.584C161.559 126.738 162.933 126.974 163.684 126.098C164.202 125.495 164.171 124.617 164.24 123.825C164.427 121.67 168.505 121.32 168.524 120.868Z" fill="#2F2E41"/>
<path d="M242.062 310.251C249.777 310.251 256.031 303.997 256.031 296.282C256.031 288.566 249.777 282.312 242.062 282.312C234.346 282.312 228.092 288.566 228.092 296.282C228.092 303.997 234.346 310.251 242.062 310.251Z" fill="#387F6A"/>
<path d="M77.9981 305.378C85.7134 305.378 91.9679 299.124 91.9679 291.408C91.9679 283.693 85.7134 277.438 77.9981 277.438C70.2828 277.438 64.0283 283.693 64.0283 291.408C64.0283 299.124 70.2828 305.378 77.9981 305.378Z" fill="#387F6A"/>
<path d="M77.998 282.961C83.5602 282.961 88.0692 278.452 88.0692 272.89C88.0692 267.328 83.5602 262.819 77.998 262.819C72.4358 262.819 67.9268 267.328 67.9268 272.89C67.9268 278.452 72.4358 282.961 77.998 282.961Z" fill="#387F6A"/>
<path d="M77.9984 264.443C81.9458 264.443 85.1457 261.243 85.1457 257.296C85.1457 253.349 81.9458 250.149 77.9984 250.149C74.051 250.149 70.8511 253.349 70.8511 257.296C70.8511 261.243 74.051 264.443 77.9984 264.443Z" fill="#387F6A"/>
</g>
<defs>
<clipPath id="clip0_2816_26274">
<rect width="259.091" height="271.111" fill="white" transform="translate(60.4546 54.4091)"/>
</clipPath>
</defs>
</svg>
