
<svg width="88" height="42" viewBox="0 0 88 42" fill="none" xmlns="http://www.w3.org/2000/svg">
  <g clip-path="url(#a)">
    <path d="M8.68 41.106c4.578 0 8.252-2.492 8.252-8.625V15.422h-.964l-4.095 4.409v4.408c0 2.747-1.326 3.961-3.193 3.961s-3.192-1.15-3.192-3.961v-8.817h-5v8.88c0 6.454 3.735 9.01 7.289 9.01 1.746 0 3.192-.831 4.156-2.365v1.725c0 2.684-.964 3.77-3.193 3.77-1.626 0-2.47-.447-3.011-1.661H.609c.843 4.408 4.156 6.325 8.071 6.325Zm20.3-14.184c5.24 0 8.974-3.961 8.974-9.328 0-5.366-3.734-9.327-8.974-9.327s-8.975 3.96-8.975 9.327c-.06 5.367 3.674 9.328 8.975 9.328Zm0-5.047c-2.29 0-3.855-1.725-3.855-4.28 0-2.556 1.566-4.281 3.855-4.281 2.288 0 3.854 1.725 3.854 4.28-.06 2.556-1.566 4.28-3.855 4.28Z" fill="#fff"/>
    <path fill-rule="evenodd" clip-rule="evenodd" d="M41.628 29.925v-.064c0-.064-.06 0 0 .064Zm.002-.447c-.061 0-.061.064 0 0v.128h.06c0-.064.06-.064.12-.064s.06-.064 0-.064-.06-.064-.12-.064c0 0 0 .064-.06.064Zm-.724 1.278c0-.064.06-.128.06-.192s-.06-.128-.18-.128h-.061c0 .064 0 .128.06.128 0 0 .06 0 .06.064v.064c-.06 0-.12-.064-.12-.064-.06.064-.06.064 0 .128h.12v.191c0-.064 0-.128.06-.191Zm.061-.767c0 .064.06.064.12.064v-.064c-.06-.064-.06-.064-.12 0 0-.064 0-.064 0 0Z" fill="#FE4D57"/>
    <path fill-rule="evenodd" clip-rule="evenodd" d="M40.785 30.436c-.06-.064-.06-.064 0 0-.06.064-.06.064 0 0-.06 0-.06 0 0 0Zm2.108-2.428.06-.064s-.06 0-.06.064c0-.064 0-.064 0 0ZM41.81 29.67l-.12.127v.064c.06 0 .06 0 .06-.064.06-.064.06-.128.06-.128Zm1.685-2.492c-.12 0-.06 0 0 0-.06.064 0 .064 0 .127v-.127Zm-.24.128c-.06-.064-.12-.064-.18 0 .06.064.06.064.18 0Zm.301-.256c-.06.064 0 .064 0 0 0 .128 0 .128.06.064s.12-.064.181-.064c0 0 .06-.064.06-.128-.06-.064-.18-.064-.3-.064-.061.128 0 .128 0 .192Zm-.543 1.214h-.12v.127c0-.063.06-.063.12-.127Zm-.601.511h-.18c0 .064 0 .064-.06.128 0 .064-.06.064 0 .064h.06l.06.064h.06c.06-.064.06-.128.12-.192s.06-.064-.06-.064Zm.24-.191s-.06 0-.12.063c.06 0 .12 0 .12-.063.06.063.06 0 0 0Z" fill="#FE4D57"/>
    <path fill-rule="evenodd" clip-rule="evenodd" d="M42.17 28.647c.06.064 0 .128.12.192 0-.064.06-.064.06-.128v-.127c-.06 0-.12 0-.18.063Zm-.903 1.406c-.06 0-.06-.064-.12 0 0 .064.06.064.06.128-.06 0-.06 0-.121.063.06.064.18.064.24.064l.061-.064v-.063c-.06 0-.06-.064-.12-.128Zm-1.445-.895s.06.064.12.064c-.06-.128-.06-.128-.12-.064Zm.06.383s-.06.064 0 .064c0 .064 0 .064.06 0l-.06-.064c.06 0 .06 0 0 0Zm1.085-2.044c0 .064 0 .064.06.064-.06 0 0 0-.06-.064 0 .064 0 .064 0 0Zm.119 2.875c.06 0 .06 0 .12-.064-.12 0-.12.064-.12.064Zm-3.613-.192c-.06.065-.06.065 0 .128v-.127Zm4.818-2.555c-.06.064-.06.064 0 0 0 .064 0 .064 0 0ZM39.4 30.82v-.065c-.06 0-.12-.064-.18-.064-.06.064-.06.128-.06.192l.06.064s.06 0 .06-.064c.06-.064.06-.064.12-.064-.06.128-.12.192-.18.256.06.128.06.128-.06.128h-.06v.063s0 .064.06.064h.12c0 .064-.06.064-.06.064l-.06.064c0 .064 0 .192.12.192 0 0 .06 0 .06.064v-.064s0-.064.06-.064c.061 0 .121 0 .181-.064h.12v-.128c.061 0 .061.064.121.128 0 .064-.06.128-.06.128v.128c.12-.064.18-.192.301-.256-.06 0-.06-.064-.06-.128s.06-.128.06-.191v-.064h-.06s-.06.064-.06.127l-.06-.063c0-.064-.06-.128-.181-.192 0 0-.06 0-.06-.064.06 0 .12-.064.18-.064-.06 0-.06 0-.12-.064 0 0 .06 0 .06-.064.06 0 .06 0 .06.064v.064l.06.064c.06 0 .06 0 .121-.064h.12l-.06-.064v-.064h.06c.06.064.121.064.181 0-.06.192-.12.128-.06.064 0-.064 0-.064-.06-.064v.064c-.06.064-.06.064-.12.064s-.06-.064-.121 0h-.06c-.06 0-.12-.064-.181 0h-.12s-.06 0-.06-.064c-.061-.064-.061-.064-.121 0 .06.064.06 0 0 0Zm.543.766c0 .064-.06.064-.06.128 0-.064 0-.128.06-.128Zm-.361-.383c.06.063.12.127.12.191v.064c-.06.064-.18 0-.241 0-.06 0-.06-.064-.12-.064.06-.128.12-.191.24-.191Zm.782-.448h.18s0 .064-.06.064-.06 0-.06.064-.06.064-.06.064c.06.064.06.064 0 .128s0 .064 0 .064h.12c.06-.064.12-.064.18-.128h-.06c0-.128.06-.192.06-.256 0-.063-.06-.063-.06-.191.06 0 .06-.064.12-.064 0-.064-.06-.064-.06-.128-.06 0-.06.064-.06.064-.06 0-.06.064-.06.064v.064h-.18c-.06.128-.06.128 0 .191Zm.06.32c.06 0 .06 0 0 0 .06.064.06.064 0 0Z" fill="#FE4D57"/>
    <path fill-rule="evenodd" clip-rule="evenodd" d="M40.545 30.18c-.06-.127-.06-.127-.12-.063s-.12 0-.18 0v.064l.12.127.12.128c.06 0 .18-.064.18-.128 0-.127-.06-.127-.12-.127Zm-.18 1.023c0 .064-.06.064 0 .127 0 0 .06 0 .06-.063-.06 0-.06-.064-.06-.064Zm-.423-.383c0-.064 0-.064 0 0v-.128c.12.064.181 0 .241-.064-.06-.064-.12-.128-.18-.064h-.12c-.121 0-.121.064-.121.128s0 .064.06.128v.064c.06-.064.06-.064.12-.064-.06 0-.06 0 0 0Zm3.072-3.706c0 .064.06.064.06 0h-.06Zm-.662 1.278c-.06 0-.06 0 0 0-.06 0-.06.064 0 0Zm-5.784 5.558c.06-.064.181-.064.241-.128 0-.064 0-.128.06-.128-.06 0-.06-.064-.12-.064h-.06c-.06 0-.06 0-.06.064v.128c.12 0 .12 0 .18.064-.06 0-.12.064-.18.064-.06-.064-.06 0-.06 0Zm-1.384.128c.06 0 .06.063.12.063v-.127c-.06 0-.12 0-.12.064Zm4.939-2.683v.127l.06-.064-.06-.063Zm-3.073 1.916-.06-.064c0 .064 0 .064.06.064 0 .064 0 .064 0 0Zm2.29-1.214c-.06 0-.06 0 0 0-.06.064-.06.128 0 .128l.06-.064-.06-.064Zm-.12.128c0-.064 0-.064-.061-.064-.06 0-.12-.064-.18 0l-.061.064.06.064c.06 0 .12 0 .18.064 0 .064-.06.064-.06.128v.063c.06-.063.121-.063.181-.127l-.06-.192Zm.361-.447-.06.064h-.06v.064l.12-.128Zm-2.591 1.916c.06-.064.06 0 0 0 0-.064 0-.064 0 0Zm.182-.128-.06.064h.06c.06 0 .06-.064.12-.064h-.12Z" fill="#FE4D57"/>
    <path fill-rule="evenodd" clip-rule="evenodd" d="M29.16 35.739c.06 0 .06.064.06.064.482 0 1.024-.064 1.506-.064.482-.064 1.024-.128 1.506-.256h.06c.06 0 .06 0 .06.064.121 0 .242-.064.362-.064v-.064h.12c.302-.063.603-.127.844-.255h-.06c-.06 0-.06 0 0-.128.06 0 .06.064.12.064 0 0 .06 0 .06.064.12 0 .18-.064.301-.064 0 0-.06 0-.06-.064-.06-.064-.06-.064-.06-.128.18-.064.18-.064.301.064h.12c.06 0 .06 0 .121-.064l-.06-.064v-.063s.06-.064.06 0c.06 0 .06.063.12.063 0 0 .06 0 .06.064.242-.064.483-.191.724-.255h.06c.06 0 .06-.064.12-.064v-.064h.12v-.192c0-.064-.06-.064-.12-.064 0 0-.06 0-.06.064s-.06.128-.12.128l-.121-.128h.06c-.06-.127-.06-.127-.06-.191l-.06-.064s0-.064.06-.064h.06c.06 0 .06 0 .06.064v.064c.06 0 .06 0 .06-.064v-.192h.061l.06.064v.128c0 .064 0 .064.06.127l.06-.063.121.127v-.063c0-.064-.06-.128-.06-.192h.06c0 .064.06.064.06.128.06.063.06 0 .12 0 .061 0 .061 0 .061-.128 0 0 0-.064.06-.064h.06c0 .064.06.128 0 .192l-.06.063h-.06.06s0 .064-.06.064v.064c.12-.064.301-.127.422-.191 0-.064-.06-.128-.12-.128-.061 0-.061-.064-.061-.064 0-.064-.06-.064-.06-.128-.06 0-.12 0-.12-.064v-.064c0-.064 0-.064.06-.127h.06c0 .063 0 .063.06.063h.06v.128h.06c.06-.064.06-.128.121-.064.06 0 .12 0 .12.064.06.064.06.064.12 0 0 0-.06 0-.06-.064s0-.064-.06-.127c0-.064-.06-.064 0-.128s.06-.064.181-.064h.06c0-.128-.12-.064-.12-.128.06 0 .12-.064.18.064h.06v-.128s.061 0 .061-.064c.06 0 .06 0 .12-.063.06 0 .06-.064.06-.064.061 0 .121-.064.121-.064 0 .128 0 .191-.06.383.06 0 .06.064.12.064s.12 0 .12-.064v-.064h.121v.064l.06-.064c0-.064-.06-.128 0-.128.06-.063 0-.063 0-.127s0-.128.121-.128c0 .064 0 .128.06.192 0 0 0 .063.06.063.121-.063.241-.127.362-.255 0 0-.06 0-.06-.064l-.06-.064c-.06.064-.181.064-.241.064h-.06v-.064c.06-.064.06-.064 0-.128-.06 0-.121.064-.121.064-.06 0-.12 0-.12-.064l-.121-.127v-.064h.12s.06 0 .06-.064c0 0 0-.064-.06-.064 0 0-.06 0-.06-.064h.06c.06 0 .06-.064.06-.064-.06-.064-.12-.128-.12-.192-.06-.064-.06-.127-.06-.191l.06-.064c0 .064 0 .064.06.128 0 .064.06.064.06.064 0 .127.121.191.181.255v.064c-.06.064-.12.128-.12.192v.063h.06v-.127c.06-.064.12-.064.12-.128s-.06-.128-.06-.128v-.064c-.06 0-.12-.064-.12-.064v-.064h.06c.06.064.12 0 .18-.063v-.064h.061c.12 0 .18 0 .301-.064.06-.064.12 0 .18.064v.064h-.06c-.12-.064-.18 0-.3 0l.06.064c0 .063-.06.127-.06.191s-.06.064-.121.064v.128c-.06 0-.06 0-.06.064s0 .064.06.064l.06.063c.06 0 .06-.063.12-.063 0 0 .061-.064.061-.128v-.128c.06 0 .12.064.18.064.06-.128.06-.192 0-.256v-.064c.06 0 .06 0 .121.064.06.064.06.128.12.192 0 .064 0 .064-.06.128s0 .128 0 .191h-.12c.06 0 .06.064.12.064s.06 0 .12-.063v-.064c0-.064.061-.064.061-.064.06 0 .06 0 .06.064.06 0 .06-.064.12-.064v-.192c.061-.064 0-.128 0-.192h-.06c-.06 0-.06.064-.06.128s.06.064 0 .128c-.06 0-.12 0-.18.064-.06-.064-.06-.128.06-.128 0-.064.06-.064 0-.128s-.12 0-.18-.064l.12-.127c.06-.064.12 0 .18 0v-.192c.06 0 .06.064.06.064l.06.064h.121v-.064c.12.064.18.128.241.192 0-.064.06-.128 0-.128l-.12-.128s-.06-.064-.12-.064c-.061 0-.121.128-.181.064 0-.064.06-.064.06-.128s.06-.064.12-.064.06 0 .12.064c0 0 .06 0 .06-.064-.3.064-.36.064-.42.128-.06-.064-.06-.128-.121-.192h-.12c0 .064-.06.128 0 .192 0 .064.06.064.06.128h-.181c0-.064-.06-.128 0-.192v-.128h-.12v.064c-.06.064-.181.064-.242.064-.06 0-.12.064-.18.064 0 0 0-.064-.06-.064 0-.064 0-.064-.06-.064s-.06.064-.06.064h-.061s0-.064-.06-.064c0-.127.12-.127.18-.127 0 0 .06 0 .06.063 0 0 0 .064.06.064h.061v-.191l.06-.064h.06c.06 0 .06.064.06.064v.064c0 .063 0 .063.061.063h.301v-.063c-.06 0-.12-.064-.18-.128l.06-.064c0 .064.06.128.06.128.12.064.18.127.301.191h.12c.06 0 .06-.064.121-.064-.06 0-.06-.127-.12-.127h-.12v-.192c.06-.064.06-.128.12-.192l.06-.064h.06l.06-.063c.06 0 .12.063.12.063h.06c0-.063 0-.063-.06-.127-.12 0-.18-.064-.3-.064h-.06l.06-.064h-.06c-.06 0-.06-.064 0-.128.06 0 .06.064.12.064s.06-.064.12-.064c0 .064 0 .128.06.128h.181v.064c.06 0 .06.064.12 0a.497.497 0 0 0-.12-.256c-.06-.064-.12-.128-.12-.192v-.063c.06.063.12.063.18.063.06.064.06.192.12.256.061-.064.182 0 .242 0s.12-.064.18-.064v-.064c.06-.064.06-.128.06-.191h-.06c0 .063-.06.127-.12.127h-.06v-.064s.06 0 .06-.063l-.06-.064.12-.128c0 .064.06.064.06.064 0 .064-.06.128 0 .191 0-.063 0-.063.06-.063h.061c.06 0 .06-.064.06-.128h.18s.061.064.121.064v-.128l-.12-.128c0-.064.06-.064.06 0l.06.064c0-.064 0-.128.06-.256h.181c-.06-.063-.06-.127-.12-.191h.18c.06 0 .121 0 .181.064v-.128h-.12v-.064h.06c0-.064-.06-.064-.06-.128 0 0 0-.064-.06-.064h.06c.06 0 .18 0 .18.064.06.064.121.064.121.192h.06c.06 0 .06.064.12.128 0 0 0 .064.06.064 0 0 .061 0 .061-.064.06-.064.06-.064.12 0 .06-.128.06-.192-.12-.192h-.06c-.06 0-.06-.064-.12-.128h.06c.06 0 .12 0 .18.064.06 0 .06.064.12.064 0 0 .061 0 .061-.064v-.064c-.06 0-.12 0-.18-.064s-.121-.127-.181-.127c0 0-.06-.064-.06-.128.06 0 .12.064.18.064v-.064c-.06 0-.06-.064-.12-.064s-.12-.064-.12-.128 0-.064.06-.064h.12c0-.064 0-.127.06-.127s0-.064 0-.064 0-.064-.06-.064v.064h-.06c0-.064 0-.064.06-.128V28.2c0-.064 0-.064.06-.128v.064h.06c.06.064.12.128.181.128h.06s0-.064.06-.064c0-.064.06 0 .06 0 .061 0 .061.064.061.128v.128h.06v-.064c0-.064 0-.128.06-.192v-.319l.06-.064c.06 0 .06.064.121.064.06 0 0 .063 0 .127s0 .064.06.064h.06l.181.192c.06 0 0 .064-.06.128l-.06.064c0 .063 0 .063.06.063.12 0 .12 0 .18-.127v-.32c0-.064 0-.128.061-.191.06-.064.06-.064.06-.128v-.064l.12-.128h-.06s-.06 0-.06-.064v-.064h.06c0-.064-.06-.064-.06-.191 0 0 0-.064-.06-.064l.06-.064c0-.064 0-.064-.06-.128 0-.064.06-.064.06-.064v-.128s.06-.064.06 0c.06 0 .06.064.121.064.06 0 0 .064 0 .128h.06v-.064c.06 0 .06 0 .06.064.06 0 .12 0 .181-.064v-.064c0-.064-.06-.064-.06-.128 0 0 0-.063.06-.063h.18c.061.063.182 0 .182.063h.06c0-.063-.06-.063-.06-.127h-.06c0-.064 0-.128-.06-.128l.06-.064h-.06c-.061-.064-.061-.064 0-.128l.06.064s.06 0 .06.064c.06.064.12.128.18.128h.06v-.064h.06l.061.064c.12-.192.24-.447.361-.639.06-.064.06-.128.06-.192h-.06c-.06-.064-.06-.064 0-.127h-.06c-.06.063-.06.063-.12 0 .06 0 .06-.064.12 0h.06l.06.063v-.255s-.06-.064 0-.064c0-.128-.06-.192-.06-.32h-.06s0-.063-.06-.063-.06 0-.12-.064l.06-.064c.06 0 .06.064.12.064a3.06 3.06 0 0 0-.301-.64c-.06 0-.06-.063-.06-.063-.06-.064-.06-.128-.12-.192h-.121l.06-.064h.06c-.06-.064-.06-.127-.12-.191h-.12v-.064l.06-.064c-.06-.128-.12-.192-.12-.32v-.063c-.182-.384-.242-.703-.121-1.023l.06-.319v-.064h.06l.301-2.108s0 .064-.06.128v-.256c.06.064.12.064.12.128v-.128h-.06l-.06-.064s0-.064.06-.064h.06l.06-.447h-1.806c-.06.639-1.506.894-1.687 1.47v.063h-.06c0 .128-.06.192-.06.32-.06.191-.12.383-.181.639h.06-.06c-.18.51-.361.958-.602 1.47v.063c-1.988 3.897-5.843 6.58-10.36 6.58-6.626.256-11.867-5.302-11.867-12.138 0-3.323 1.205-6.325 3.193-8.498a4.93 4.93 0 0 1-3.253-1.213c-.602-.575-1.084-1.214-1.325-1.917a18.95 18.95 0 0 0-4.096 11.82c0 10.094 7.71 18.208 17.227 18.208h.12l-.06-.128Zm8.553-3.45c0 .064 0 .064 0 0-.06 0 0 .064 0 0Zm.844.191c0 .064.06.064 0 0 0 .064 0 .064 0 0Zm.3-.958c.061 0 .061 0 0 0Zm-.481.256c.06.064.06.064.12.064 0-.064-.06-.128-.06-.192h.06c0 .064.06.064.06.128.06 0 .06.064.121.064-.06 0-.12.064-.18.064v.127c-.06 0-.121-.064-.181 0 0-.191-.12-.128-.181-.128 0-.063-.06-.127-.06-.191.24-.064.24-.064.301.064Zm-.301-.128v.256c-.06.063-.06.063-.06 0 0-.128 0-.192.06-.256Zm-.06-.064c-.06 0-.06 0 0 0Zm-3.916 3.13c-.06 0-.06 0 0 0-.06-.063-.06-.063 0 0 0-.063-.06-.063 0 0Zm0-.447c0 .064-.06.128-.06.192 0 0-.06 0-.12-.064.06 0 .06-.064.12-.064 0-.064 0-.191.06-.255h.06v.064c0 .063-.06.127-.06.127Zm0-.447c-.06 0-.06-.064-.12-.064v-.064h.06c.06.064.06.064.06.128Zm.06.895c.06.064.06.064 0 0Zm0-1.278c.06 0 .06 0 0 0Zm.121.32c-.06 0-.06 0 0 0Zm-.06-.576c0-.064 0-.064 0 0Zm.06 1.086c.06-.063.06-.063.12-.063-.06.063-.06.127-.12.063Zm0-.575c0-.064 0-.064 0 0h.12c-.06.064-.12.064-.12 0Zm.301 1.087c-.06-.064-.12-.064-.12-.128 0 0 0-.064-.06-.064.06 0 .12.064.18.064s.06.064 0 .128Zm-.12-.767.12.128v.063s-.06 0-.06-.063c-.06-.064-.12-.064-.06-.128-.06 0-.06 0 0 0Zm.24.255v.064c-.06 0-.18 0-.18-.064v-.063c.06.063.12.063.18.063Zm.06-4.472.061.064s-.06 0-.06-.064c0 .064-.06 0 0 0Zm.663 1.917v.192h-.12c0-.064-.06-.128-.12-.128.12-.064.12-.064.24-.064Zm-.18-1.406c0 .064 0 .064 0 0Zm.301-.51c0 .063-.06.063-.06.063l-.06-.064h.12Zm-.12-.895c0-.064 0-.064 0 0Zm.12.447v.064h-.06v-.064s0-.064.06 0c0-.064 0-.064 0 0Zm-.12 1.214c.06 0 .06.064.06.128 0 0-.06.064-.06 0s-.06-.064 0-.128Zm.12.958c0 .064.06.064 0 0 0 .128 0 .128-.06.128s-.12-.064-.06-.128c0 0-.06 0-.06-.064v-.064h.06v.064c.06.064.12.064.12.064Zm-.06 1.214c0-.064.06-.064 0 0h.06s0 .064-.06 0Zm0 .32c-.06 0-.06 0 0 0 0-.064 0-.064 0 0Zm.06-.64-.12-.127c-.06-.064-.121 0-.181-.064h.06c.12 0 .241.064.361.128-.06 0-.06 0-.12.064Zm-.482.576c-.06 0-.06-.064-.12-.064s-.06-.064 0-.128c.06.064.18.064.24.128h.06c.061 0 .061-.064.061-.064h.12v.064l-.12.128h-.06c-.12-.064-.18-.064-.18-.064Zm-.24-.64c.06 0 .06.065 0 0 0 .129.06.129 0 0Zm.12.64c-.06 0-.06 0-.12-.064v-.064l.12.128Zm-.12.575c0-.064.06-.064.12 0v.063c-.06-.063-.06-.063-.12-.063Zm.06.702c.06.064.06.064 0 0 0 .064 0 .064 0 0Zm0-.51c.06-.065.06-.065 0 0Zm0-.448c-.06-.064-.06-.128-.06-.128.06 0 .06 0 .12.064 0 0 0 .064-.06.064Zm.3-1.342c-.06-.064 0-.127.06-.127 0 .064 0 .064-.06.127Zm.242-1.469c-.06-.064-.06-.064 0 0Zm-.241.383c-.06 0-.06-.064 0-.127h.06s0 .063-.06.127Zm0 1.79c-.06.063-.06.063 0 0-.06 0-.06-.065-.06-.065.06 0 .06 0 .06.064Zm-.06-.895c0 .064 0 .064-.06.128 0-.064-.061-.064-.061-.128s-.06-.064-.12-.064h.06c.06 0 .06.064.12.064 0-.064.06-.064.06 0Zm-.242-.703c0-.064 0-.064 0 0Zm0 1.086-.06-.064c.06 0 .06 0 .06.064Zm-.18-.639c.06 0 .06 0 0 0Zm0 2.62c.06 0 .06 0 0 0Zm.06-3.514c-.06-.064-.06 0 0 0-.06-.064-.06-.064 0 0-.06 0-.06 0 0 0Zm-.06 3.194c-.06.064 0 .064 0 0-.06 0-.06 0 0 0Zm-.06.703c0-.064 0-.064 0 0 .06-.064.06-.128.12-.128 0 .064 0 .064-.12.128.06 0 .06 0 0 0Zm.3.192c-.06-.064-.12-.064-.18-.128.06 0 .12-.064.18-.064 0 0 .06 0 .06-.064 0 0 .061.064.121.064l-.18.192Zm.181-.384c0 .064-.06.064-.06.128l-.06-.064c.06-.064.06-.064.12-.064Zm.06-.703c-.06 0-.06 0 0 0-.06-.063-.06-.127 0-.191.06 0 .06-.064.121 0-.06.064-.06.128-.12.191Zm.06.128c0-.064 0-.064 0 0 .061-.064.061 0 .121 0h-.12Zm.422-.383c.06.064 0 .128.12.192v.063c0 .064-.06.128-.12.128s-.06 0-.12.064v.064h-.12v-.064c0-.064-.06-.128-.06-.192h.06c0-.063-.06-.127-.121-.127 0-.064 0-.064.06-.128h.06c.06.064.06.064.06.128 0 0 .061.064.061.127 0 .064.06.064.12 0l-.06-.063-.06-.064c0-.128-.06-.192-.12-.256.12.064.24.064.36.192 0-.064-.06-.128-.12-.064Zm.302-.192c-.06 0-.06 0 0 0-.06-.064-.06-.064-.06-.127h.06v.127Zm.18 0c-.06.064-.12 0-.18 0 .06-.064.12 0 .18 0Zm-.06-.447c0 .064.06.064.06.128-.06 0-.06 0-.06-.128Zm.06.703c0-.064 0-.128.06-.192 0 0 .06 0 .06-.064 0 .256-.06.256-.12.256Zm.06-.447-.06-.064.06-.064s0-.064.06-.064l.061.064c.06 0 .06 0 .12.064-.06 0-.12.064-.12.064h-.12Zm.242.383c-.06.064-.06.064 0 0-.06.064-.121.064-.121 0v-.192l.06-.064.06.064c-.06 0 0 .128 0 .192Zm0-.256c-.06-.063-.06 0 0 0-.06-.063 0-.127 0-.127h.12l-.12.127Zm0-.702c0 .063 0 .063 0 0a.204.204 0 0 0-.06.127s.06 0 .06.064c0 0 .06.064 0 .128l-.06.064s-.061 0-.061-.064v-.064c-.12 0-.18-.064-.301-.064l.12.128c0 .064-.06.064-.06.064l-.24-.256c0-.191 0-.191-.121-.255h-.06c0-.064 0-.064.06-.064h.06l.18.192v.063h.06c.061 0 .181.064.242.064.06 0 .12 0 .06-.063 0-.064 0-.064.06-.064s.06 0 .06-.064v-.064h.121v.064s-.06.064-.12.064Zm-.723-.767v.128c-.06-.128-.06-.128 0-.128Zm.18-1.725.06.064c0 .064 0 .064-.06.128l-.06-.064h-.06v-.128c0-.064.06-.128.12-.128-.06.064-.06.064 0 .128Zm.302-.128c.06 0 .12 0 .12.064v.064h-.06c-.06 0-.12-.064-.06-.128-.06 0-.06 0 0 0Zm-.06-.255c0 .063.06 0 0 0Zm.12-.384c0-.064 0-.064 0 0Zm.662.703c.06.192.06.192-.12.128.06 0 .06-.064.12-.128Zm.12.383c-.06.064-.12.064-.12.064v-.128c.06 0 .06 0 .12.064Zm-.18.256.06.064c.12.064.12.192.12.255h-.06c-.06 0-.12 0-.12-.063.06 0 .06-.064.12-.064 0-.064 0-.064-.06-.064s-.06-.064-.06-.128h-.12v.064c.06-.064.06-.064.12-.064Zm.18-1.342c0 .064 0 .064 0 0-.06.064-.06.064 0 0-.06 0-.06 0 0 0Zm-.06-.83c-.06 0-.12 0-.12-.128h.12v.128c0-.064 0-.064 0 0Zm.241-.959c-.06.064-.06.064-.12.064v.064s0 .064-.06 0l-.06-.064h.12c0-.064.06-.064.12-.064Zm.181 1.406c-.06.064-.06.064 0 0Zm.12-1.15c-.06 0-.06 0 0 0Zm.06.958v.064c-.06 0-.06 0-.12-.064h.12Zm.182.064c.06 0 .06 0 0 0Zm-.06 1.278.12-.128c.06 0 0 .064 0 .128-.06.064-.12.064-.12 0Zm.06.575c-.06 0-.06 0 0 0Zm-.12-.83h.12c-.06.063-.06.063-.12 0Zm.06-.128c.06 0 .06 0 0 0Zm.06-2.3c-.06-.064 0-.064 0 0 0-.064 0-.064 0 0Zm0 .639c-.06-.064-.06-.064 0 0Zm-.06.383c-.06 0-.06 0 0 0-.06-.064-.06-.064 0 0 0-.064-.06-.064 0 0Zm-.06.958c.06.064.06.064 0 0 .12.128.12.192.06.192s-.06 0-.121-.064c.06-.064.06-.064.06-.128Zm0 1.597c.06 0 .06 0 .06.064-.06 0-.121.064-.06.128l-.061.064h-.06c0-.064 0-.064-.06-.128v-.128c.12.064.18 0 .18 0Zm0 .448c0 .064 0 .064 0 0Zm-.061-.128c-.06 0-.06.064 0 0-.06.064-.06.064-.06 0v-.064c-.06.064 0 .064.06.064-.06 0-.06 0 0 0Zm-.12-.575c0-.064.06-.064.06-.128.06.064.06.128 0 .128h-.06Zm.12-1.725v.064c-.06-.064-.06-.064 0-.064Zm0 .575c-.06-.064-.06-.064-.06-.128.06.064.06.064.06.128Zm0 .639c.06.064 0 .127 0 .127.06.064-.06.064 0 .128v.128c-.06 0-.12-.064-.12-.128-.06.064-.181 0-.181.064-.06 0-.12-.064-.12-.128s.06-.064.06-.127c0-.064-.06-.064-.06-.128h.06l.12.128c.06 0 0-.064.06-.128.06.064.12.064.18.064Zm-.18.958c.06 0 .06 0 0 0Zm-.302-2.555c0 .063.06.127.06.191h-.06c0-.064-.06-.128 0-.191Zm.12.383c-.06.064 0 .064 0 0-.06 0-.06 0 0 0Zm-.06.894v.128c-.06-.064-.06-.128 0-.128Zm.241 0c-.06 0-.12-.064-.18-.128v-.127c.06.064.06.064.12.064 0 0 .06 0 .06.063.06.128 0 .128 0 .128Zm-.06-.766c0 .064 0 .064-.06.127 0-.064 0-.064.06-.127-.06.064-.06.064 0 0Zm-.06-.575c-.06 0-.06-.064-.06-.128V28.2h.06v.192Zm-.422 3.45c-.06 0-.12 0-.06-.064l.06-.064c.06 0 .06 0 .12.064-.06.064-.12.064-.12.064Zm-.542-.384c-.06.064-.06.064-.12.064v-.128c.06 0 .06 0 .12.064Zm-.06-.127c-.06-.064-.06 0 0 0-.06-.064-.12-.128-.12-.192.06 0 .12.064.18.064 0 0 0 .064-.06.128Zm-.06.638c-.06 0-.06 0 0 0Zm.06.064h.12c.06 0 .06.064.06.064l-.06.064c-.06 0-.12 0-.18-.064l.06-.064Zm.12-.128c0-.063-.06-.127-.12-.127 0 0-.06 0-.06-.064v-.064h.18c.06.064.12.128.06.256 0 .063-.06.063-.06 0Zm0-.958c-.06 0-.06 0 0 0-.06-.064-.06-.064-.06-.128h.12c0-.063 0-.063.06-.127.061 0 .061.064.121.064v.127c.12.064.12.064.12.128v.192c-.12-.064-.12-.064-.06-.256l-.06-.064h-.06c-.12.064-.18.064-.18.064Zm.181-1.341c0-.064 0-.064 0 0 0-.064.06-.064 0 0 .06-.064.06-.064 0 0 .06 0 .06-.064 0 0Zm.06 1.533c.06 0 .12.064.18.128h-.18c0-.064-.06-.064-.06-.128 0 .064 0 0 .06 0Zm.18.83c-.06.064-.12.064-.12 0s-.06-.064-.12-.127v-.064c.12 0 .18.064.24.191Zm.061-.894c.06 0 .06.064 0 0 .06.064 0 .128 0 .128v-.128Zm-.12-.511c0 .064 0 .064 0 0l-.06.064v-.064h.06Zm-.06-.192c-.06-.064-.06-.064 0 0 0-.064 0-.064 0 0Zm0-.639c0-.064 0-.064 0 0Zm-.06-.575h-.121c-.06 0-.06-.064-.06-.064h.06c.12-.064.12 0 .12.064Zm-.121.703c.06-.064.06 0 0 0 .12.128.12.128 0 .192 0-.064 0-.128-.06-.128.06 0 .06-.064.06-.064Zm0 .895-.06-.064h-.121c0-.064.06-.128.12-.128s.121.064.06.192Zm-.181-1.087c-.06.064-.06.064 0 0Zm-.18.511c.06.064.06.064.12.064s0-.064.06-.127v.319h-.06c-.06-.064-.12-.064-.12-.128s-.06-.064 0-.128Zm0 .512c0 .064 0 .064 0 0-.06.064-.121.064-.121.064h-.06v-.064c.06-.064.12-.064.18 0Zm0 .639c-.06 0-.06 0 0 0-.06-.064 0-.064 0 0Zm-.181.127v-.127c.06.063.12.127.06.191-.06 0-.06 0-.06-.064Zm.12.256c-.06 0-.06 0 0 0-.06-.064-.06-.064-.12-.064.12 0 .12 0 .12.064Zm-.12-1.342c-.06-.064-.12-.064-.12-.128v-.064c.06.064.06.064.12.064.06.064.06.064 0 .128Zm-.12 1.214c0 .128.12.192.12.32h-.06c-.06-.064-.121-.192-.181-.256.06-.064.06-.064.12-.064Zm.662-.064c0-.064.06-.064.06-.128.12 0 .12.128.18.192v.192l-.12-.128c-.06 0-.06-.064-.12-.128Zm.06.575c0-.064 0-.064 0 0 .06-.064.12-.064.12-.064v.064c0 .064.06.064.06.128-.06.064-.06.064-.12.064v-.064c0-.128 0-.128-.06-.128Zm.06 1.15c-.06 0-.06-.064-.06-.064s0-.064.06 0v.064Zm.12-.255h-.12v.127s-.06 0-.06-.063v-.064c0-.064 0-.064-.06-.128.06-.064.12-.064.18-.128.181.128.181.128.06.256Zm0-.32c-.06 0-.06 0 0 0-.06 0-.06-.064-.12-.128v-.063c.06 0 .06-.064.12-.064h.121c.06 0 .06.063 0 .063-.06.128-.12.128-.12.192Zm.242.256c-.06 0-.06 0-.06-.064s-.06-.128-.121-.192c0 0 .06-.064.06-.128l.06.064v.128c.12.128.06.128.06.192Zm0-.192c0-.064 0-.064 0 0 .06-.064.06 0 0 0Zm.12-.575-.06.064h-.06c-.06-.128.06-.128.06-.192l.06.128Zm-.06-.639c-.06 0-.06.064-.12.064h-.06c.06-.064.06-.192.06-.192.18.064.18.064.24.192-.06-.064-.12-.064-.12-.064Zm.12-1.022c0-.064.06 0 .12-.064l.121.128c-.12 0-.18-.064-.24-.064Zm.12.32c.061 0 .061.063 0 0 0 .127 0 .191-.12.191h-.06l.06-.064v-.064l.12-.064Zm-.06-.128c.06-.064.06-.064.121-.064-.06.064-.06.064-.12.064Zm-.06.639c0-.064 0-.128.06-.192.06 0 .121.064.121.128-.12 0-.12.064-.18.064.06.063.12.063.18.063 0 .064 0 .128.06.192-.12-.128-.18-.128-.24-.255Zm.181 1.916c0-.064 0-.064 0 0Zm.12-.128c.06.064.06.128.06.128h-.06l-.06-.064c0-.064.06-.127.06-.064Zm-.06-.319h-.12v.064h-.06s-.06 0 0-.064c0-.064.06-.064.06-.128.06.064.12.064.12.128Zm-.12-.83c-.06 0-.06.063 0 0 0-.128-.06-.192 0-.192v.191Zm.482-.128c.06.064.06.127.06.191-.06-.064-.06-.064-.06-.191Zm0-.192c-.06.064-.12 0-.181 0v.064l.06.064h-.18c-.06-.064-.06-.064-.121-.064h-.06l.06-.064h.12c0-.064.06-.064.12-.064 0-.064-.06-.064-.06-.128v-.064c.06 0 .06.064.06.128s.061.064.061.064c.12 0 .12.064.12.064Zm0-.447c-.06 0-.06 0 0 0-.06-.064-.06-.064-.06-.128h.06v.128Zm.12-.064c-.06 0-.06 0-.12-.064 0-.064.06-.128.06-.192h.06v.256Zm.06-.32c-.06 0-.06 0 0 0l-.06-.063s.06 0 .06-.064c.06.127.06.127 0 .127Zm-.06-.191c.06 0 .06 0 0 0Zm0-.32h-.12v-.064c0-.064.06-.064.06-.064.06.064.12.064.18.064v.128c0-.064-.06-.064-.12-.064Zm-.06-.83c-.06 0 0-.064 0 0Zm.18-.959c-.06.064-.12 0-.18 0 .06-.063.12-.063.18 0Zm.241-1.725c-.06 0-.12 0-.12-.064.06 0 .06 0 .12.064Zm.181 1.023c-.06 0-.06.064-.12.064.06 0 .12-.064.12-.064Zm.422 1.15c.06.064.06.064.06.127v.064h-.06v-.064h-.12s0-.064-.06-.064c-.061-.063 0-.127.06-.127s.12.064.12.064Zm-.06 1.213c0-.063 0-.063 0 0Zm0 .192.06-.064h.06l.06.064c-.06.064-.12.064-.18.128-.06-.064 0-.128 0-.128Zm0-2.683c-.06.064 0 .064 0 0-.06.064-.06.064 0 0Zm-.06-.128c.06 0 .06 0 0 0Zm.06-.639c-.06 0-.06 0-.12-.064v-.064h.06c.06.064.06.064.06.128Zm-.06 3.067c.06.064.06.064-.06.191 0 0 0-.063-.061-.063.06-.064.06-.128.12-.128Zm-.06-.128c-.061-.064-.121-.064-.121-.128s0-.064.06-.128c0 .064.06.128.06.256Zm-.422-.128c.06 0 .06 0 0 0v.128c.06.064.06.064.06.128h-.06v-.128c-.06-.128-.06-.128 0-.128Zm-.06-.447c0 .064.06.064.06.128-.06-.064-.06-.128-.06-.128Zm.06.894c.06 0 .06 0 0 0 .06.064.12.128.06.256-.06-.064-.06-.128-.06-.256Zm.06-.958h-.12v-.192c.06 0 .06.128.12.064h.12c0 .064-.06.064-.06.064.06.064 0 .064-.06.064Zm0-.255c0 .064 0 .064 0 0Zm.18 0c-.06 0-.06.064 0 0-.06 0-.06 0 0 0-.06-.064-.06-.064 0 0Zm0 .575c-.12 0-.12-.064-.06-.064l.06.064Zm0 .127c.06.064 0 .128 0 .192-.06 0-.06-.064-.06-.064-.06-.064 0-.064.06-.128Zm.06.448c0 .063-.06.063-.12.063 0-.063 0-.063.12-.063Zm.121-.703c-.06 0-.12-.064-.06-.128 0 0 0 .064.06.128Zm-.06-1.342h-.06v-.064c0-.064-.06-.064 0-.064s.06.064.06.064v.064Zm-.06 0c-.06.064-.06.064-.12 0h.12Zm-.12-.447c0 .064 0 .064-.061.128v-.128c-.06-.064 0-.064.06 0 0-.064-.06-.064 0 0Zm-.121-1.022c0 .064 0 .064 0 0Zm0 2.044c0 .064 0 .064 0 0 0 .064 0 .064-.06.128h-.06c0-.064-.061-.128-.061-.192l.06-.064c.06.064.06.128.12.128Zm-.12-.128c-.061-.063 0-.063 0 0Zm-.061-1.15c-.06 0-.06-.064-.06-.127.06 0 .12.063.06.127Zm0-.958c0 .064 0 .064 0 0Zm-.06 1.661c.06 0 .06 0 0 0Zm.12.767c0 .064 0 .064 0 0-.12.064-.12 0-.18-.064l-.06.064h-.06v-.064h.06c.06 0 .06-.064.06-.064.12.128.12.128.18.128Zm-.12 1.15v-.128s.06.064 0 .128c.06-.064.06-.064 0 0 .06 0 .06 0 0 0Zm-.06-.256c.06 0 .12.064.06.128 0-.064-.06-.064-.06-.128-.06 0-.06 0 0 0Zm-.06-.51c-.06 0-.06 0 0 0 0-.065 0-.065 0 0Zm.06.255c-.06-.064 0-.064 0 0Zm.06.127c0 .064 0 .064 0 0Zm0-.575c.06-.063.06-.063.06 0v.064c-.06 0-.06 0-.06-.064Zm0 1.406c-.06.064 0 .064 0 0Zm.06.639c0 .064-.06.128-.06.128-.06 0-.06-.064-.06-.064v-.064c0-.064 0-.128.06-.128h.06v.128Zm0-.192c.06 0 .06 0 0 0Zm0-.127c0-.064.06-.064 0 0 .06-.064.06-.064 0 0 .06 0 .06 0 0 0Zm.06-.192c-.12 0-.06 0 0 0-.06-.064-.06-.064 0-.064h.181v.064h-.18Zm.181-.575v.064-.064Zm.18.958c-.06.064-.06.064 0 0-.06-.064-.06-.064-.06-.128h.06v.128Zm.06-.383c-.06 0-.06.128-.12.128-.06.064-.06 0-.12-.064.06-.064.06-.128.06-.192.06.064.12.128.18.128Zm.061.447c-.06-.064-.06 0 0 0 0-.064 0-.064 0 0Zm.18.064c.061-.064.061 0 0 0Zm0-.192s-.06-.064-.06-.127c-.06 0-.06.063-.12.063h-.06v-.063c.12-.192.12-.192.301-.192 0 .064-.06.128-.06.128 0 .064.12.064.12.064 0 .127 0 .127-.12.127Zm.061-.83c-.06-.128-.06-.192 0-.32.06 0 .06 0 .06.064v.128c.06-.064.06-.064.12.064-.06.064-.18 0-.18.064Zm.18.064c-.06 0-.06 0 0 0-.06-.064-.06-.064 0 0Zm0 .127c.061 0 .121.064.121.128-.06 0-.06 0-.12-.128Zm.121-.575c-.06 0-.06 0-.12-.064 0-.063.06-.063.06-.127-.06-.128-.06-.128-.24-.192 0-.064.06-.064.06-.064.06 0 .06 0 .06-.064l-.12-.128v-.063s.06 0 .06-.064c0 0 .06 0 .06.064v.064h.12c.06 0 .06 0 .06.063v.064h-.06v-.064c0 .064-.06.064-.06.128.06.064.06.128.12.192s.12.064.18 0h.061s.06 0 .06.064v.064h-.06c0 .063-.12.063-.24.127Zm-.18-1.597c.06-.064.12 0 .12 0h-.12c0 .064.06.128.06.192h-.06c0-.064-.06-.128 0-.192-.06 0-.06 0 0 0Zm-.06-.447c.06 0 .06 0 0 0Zm.24-3.195c.06 0 .06.064 0 0 .06.064.06.064 0 .064v-.064Zm.06 1.79c0-.064 0-.064 0 0Zm0 .766c0 .064 0 .064 0 0-.06 0 0 .064 0 0Zm.181-1.533c.06.064.12.128.12.191h-.06c-.06 0-.06-.063-.06-.191-.06.064-.06.064 0 0Zm.663.766c.06.064.06.064 0 .128.06 0 .06 0 .12.064v.064l-.06.064h-.06v-.064h.06c-.06-.064-.12-.064-.18-.128 0-.192 0-.192.12-.128Zm-.12-1.277c0 .064 0 .064 0 0-.061.064-.061.064 0 0Zm.18-.767c-.06.064 0 .064 0 0-.06 0-.06 0 0 0Zm0 .32c.06.063 0 .127.06.127v.064h-.12c-.06-.064 0-.128 0-.128 0-.064 0-.064.06-.064Zm.12-1.023.06.064c-.06 0-.12 0-.06-.064-.06 0-.06 0 0 0Zm.06.192c.06 0 .121 0 .121.064v.064c0 .063-.06.063-.06.127l-.06.064v-.319Zm.121-1.15c-.06 0-.06 0 0 0 0-.064 0-.064 0 0Zm0 .447c.06.064.06.064 0 0 0 .064 0 .064 0 0-.06.064-.06 0 0 0Zm.12.256c-.06.064-.06.064-.06 0h.06Zm.663 2.683c-.06 0-.06.064 0 0-.06 0-.12-.064-.12-.064v-.064h.06c0 .064.06.128.06.128Zm-.12-1.022c0-.064-.06-.128-.12-.192.06 0 .06 0 .12-.064 0 0 0-.064.06-.064s.06.064.06.128v.192h-.12Zm-.06 1.214c0-.064 0-.064 0 0Zm-.302 2.236c-.06 0-.06-.064-.06-.128h.06c.06 0 .06.064 0 .128.06 0 .06-.064 0 0Zm.06.128c-.06.063 0 .063 0 0Zm-.06 0h-.18c.06-.128.06-.128.12-.192.06.128.06.128.06.192Zm-.421.255h-.06s0-.064-.06-.064c0-.064-.061-.064-.061-.064.06 0 .12 0 .12-.064h.12v.128c0 .064 0 .064-.06.064h-.06c.06-.064.06-.064.06 0Zm0 .192c0 .128-.06.128-.06.064v-.064h.06Zm-.181-3.578h.18v.128c0 .064-.06.064-.06.064h-.12v-.192Zm-.06-.32c0-.063.06-.063 0 0 .06 0 .06 0 0 0 .06.064 0 .064 0 0Zm.18.192c0-.064 0-.064 0 0 .06-.064.06 0 0 0Zm.181 1.406c0 .064-.06.064-.12.064v-.064h.12Zm-.06-.703c0-.064 0-.064 0 0Zm-.12-.256c-.06.064-.06.064 0 0-.06 0-.06 0 0 0Zm-.06 1.47c0-.064.06 0 .12 0h.06-.06s-.06.064-.12 0c.06.128.06.191.18.255-.06 0-.06.064-.12 0s-.121-.064-.181-.064 0-.063 0-.127v-.064h.12Zm.12.639c0-.064 0-.064 0 0v-.064s.06 0 0 .064c.06 0 .06-.064 0 0Zm0-.32c.06-.064.06-.064.06 0h-.06c.06 0 .06 0 0 0Zm-.12.128c-.061 0-.061 0-.121-.064v-.064h.12v.128Zm0 .383v.128h-.061v-.064c0-.064 0-.127.06-.064Zm-.061.256c.06 0 .06.064 0 0 0 .064.06.064 0 0 0 .064 0 .064 0 0Zm.24.192c-.06 0-.06 0-.06-.064V28.2s.06 0 .06.064v.128Zm0-.448c.121 0 .121 0 .061.128-.12 0-.12 0-.06-.128Zm0-.83c0-.064-.06-.064-.06-.064 0-.064 0-.064.06-.128v.064c.121-.064.182-.064.182.128l-.06.064-.121-.064c.06 0 .06 0 0 0Zm.302.191c-.06 0-.06 0 0 0Zm-.12.448.12-.128c0 .192 0 .192-.12.128Zm.12-1.214c0 .064.06.064.12.128v.063c-.06 0-.12-.127-.12-.191Zm.12-1.086c.06.064.06.064 0 0Zm0-.192c0-.064 0-.064 0 0 0-.064.06-.064 0 0Zm.06.639h-.12v-.064c0 .064.06 0 .12.064Zm-.12.32c0 .063 0 .063 0 0-.06 0-.06.063 0 0Zm.06 1.022h.181s.06 0 .06.063c0 .064 0 .064-.06.064h-.12c0-.064-.06-.064-.06-.127Zm.121-.32v-.064h.12c-.06.064-.12.064-.12.064Zm0-1.916c.06 0 .06.063 0 0 .06.063.06.063 0 0Zm0-.128c.06 0 .06 0 0 0Zm.06 1.277v.064h-.06l.06-.064Zm0 .575h.06v.064c0-.064 0-.064-.06-.064Zm.06-.383c-.06-.064.06-.064.06-.128 0 .064-.06.128-.06.128Zm0-.83c0-.064-.12-.128-.12-.192h.12v.192Zm0-.384c0-.064-.06-.064-.06-.127l.06-.064s.06 0 .06.064c0 .063 0 .063-.06.127Zm0-.703c-.06.064-.12.128-.18.064 0-.064-.06-.064-.06-.127 0 0-.06 0-.06-.064.06-.064.12 0 .18.064.06 0 .06 0 .12.063-.06-.063-.06-.063 0-.063v.063Zm-.18-.766c-.06 0-.06 0-.06-.064s0-.128.06-.128h.06c0 .064 0 .128-.06.192Zm-.06-.32c-.06 0-.06 0 0 0 0-.064 0-.064 0 0Zm0-.83c-.06 0-.12.064-.12.064 0-.064 0-.064.12-.192.06.064.06.128 0 .128Zm0-.256c0-.064 0-.064 0 0 .06 0 .06 0 0 0 .06.064.06 0 0 0Zm-.06 2.556c-.06 0-.06 0 0 0Zm-.06-.384c.06 0 .06 0 0 0Zm.06 1.087c-.06.064 0 .064 0 0-.06.064-.06 0-.121 0h.12Zm-.06.51s0 .065-.061.065c-.06.127-.06.127 0 .191h-.12c-.06 0-.06.064-.121.064 0-.064.06-.128.06-.192v-.319l.06.064c.06.128.12.128.181.128Zm-.121-1.533c0 .064.06.064 0 0Zm.06.32c0 .064-.06.128-.12.128v-.064c0-.064.06-.128.12-.064Zm-.12.255c.06 0 .06 0 0 0Zm.06-.894c0-.064.06-.064 0 0Zm0 .511c-.12 0-.181-.064-.301-.064 0-.064.06-.128.12-.064.06 0 .06.064.12.064-.06 0 0 0 .06.064Zm-.301-.639c0-.064 0-.064 0 0 .06 0 .06 0 0 0Zm.12-.703c.06 0 .06 0 0 0 .06 0 .06.064 0 0 .06.064 0 .064 0 0Zm.06.767c.06 0 .06 0 0 0Zm-.18.767.06.064h-.06s0-.064-.06-.064h.06Zm-.242.51c-.06.065 0 .065 0 0Zm-.06-.19c0-.065 0-.065 0 0 .06-.065.06-.065 0 0Zm0 2.427c0-.064 0-.064 0 0Zm0-.256c-.06 0-.06 0 0 0-.06-.064 0-.064 0 0Zm0 .703c0-.064 0-.064 0 0 0-.064.06-.064.06-.064l-.06.064c.06-.064 0-.064 0 0Zm0 .192c0 .064 0 .064 0 0-.06.064 0 .064 0 0Zm.06-.256c0 .064 0 .064 0 0-.06.064 0 .064 0 0Zm-.06.32c.06 0 .12.064.12.064v.064c0 .063 0 .127.061.127.06 0 .06.064.06.128-.06 0-.12-.064-.18-.064v-.128c-.06 0-.06-.063-.12-.063 0-.064-.001-.064.06-.128Zm-.482.703c-.06-.064-.06-.064 0-.192v-.064h.361s0 .064-.06.064c-.18 0-.24.064-.3.192Zm-.12-.959c-.06-.064 0-.128 0-.128v-.063h.06v.063c0 .064-.06.064-.06.128Zm.361.128h-.06s-.06 0-.06.064c0 0-.06.064-.06 0V28.2l.06-.064s.06 0 .12.064c.06-.064.12-.064.181 0v.064h-.06c-.06-.064-.06-.064-.12-.064Zm0-.511v.064c-.06 0-.06-.064 0-.064-.06 0-.06 0 0 0-.06-.064-.06-.064 0 0Zm-.06-.447c0-.064 0-.064 0 0l-.06-.064h.06c0-.064.06 0 0 .064.06-.064 0-.064 0 0Zm.18.766c-.06 0-.06-.064-.06-.064.06 0 .121.064.06.064Zm-.06-.83c.06-.064.06 0 0 0 .06 0 .06 0 0 0Zm.06-.511c0-.064 0-.064 0 0Zm0-.767c-.06.064-.12.064-.12.064v-.128c.06 0 .12 0 .12.064Zm-.06.128-.06.064h-.06.06l.06-.064c-.06 0-.06 0 0 0Zm-.12 1.214c-.12.063-.18.063-.18-.064h.06s.06.064.12.064Zm-.06-.192c-.06-.064-.06-.128-.12-.192.06 0 .06 0 .12.064v.128Zm-.12-.958c-.06-.064 0-.064 0 0Zm-.06-.256c-.061 0 0 .064 0 0Zm0 1.597c.06-.064.06-.064.12.064-.06 0-.06-.064-.12-.064H39.4l-.06-.064c.06 0 .12 0 .12.064Zm-.061-1.15c0-.064 0-.064 0 0Zm0-1.277c-.06 0-.06 0 0 0-.06-.064-.06-.064 0-.064v.064Zm0 3.386c0 .064 0 .064 0 0 .06.064.06.064 0 .064h-.12v-.064h.12Zm0 .447h-.06v-.128h.06v.128Zm-.12-1.661v.127h-.121v-.127c.06 0 .06-.064.12 0Zm-.06 1.086c-.061 0-.061 0 0 0Zm-.061.383c-.06 0-.06.064 0 0Zm.24 1.47s-.06-.064-.06-.128c.121 0 .121.064.06.128Zm.121-.512c.06 0 .06 0 0 0Zm.12.384c-.06 0-.12 0-.12-.128v-.064h.06c0 .064.06.064.121.064l.06.064c-.06.064-.06.064-.12.064Zm.121.128c.06-.064.06-.064.12 0h-.12Zm.181-.256c0 .064-.06.064-.12 0 0-.064-.06-.128-.12-.192 0 0-.061 0-.061-.064v-.191c0-.064.06-.064.06-.128h.06c0 .128.06.128.12.128 0 .064 0 .064-.06.128 0 .063.06.063.06.127.061.128.061.128.061.192Zm.18-.192c-.06 0-.06 0 0 0-.12 0-.06-.064 0 0-.06-.064-.06-.064 0 0 0-.064 0-.064 0 0Zm-.18-.447v.128c-.06-.064-.06-.064-.18-.064 0-.064.06-.064.06-.128h-.181v-.128c.06 0 .18 0 .24-.063l.061.064.06-.064h.06c.06 0 .06.064.121.064.06 0 .12 0 .12-.064.06.064.06.127.12.127-.06.064-.12.064-.12.064-.12.064-.24.064-.36.064Zm.361.32c-.06 0-.06.063 0 0Zm0 .383c-.06-.064 0-.064 0-.128-.06 0-.06-.064-.06-.128v.128c.06 0 .06.064.06.128Zm.181-.447c-.06.064-.12.127-.18.064v-.128c.06 0 .12 0 .18-.064-.06.064 0 .064 0 .128Zm0-.384c0 .064-.06.064-.06 0v-.064s.06 0 .06.064Zm0-.191.12.128c-.12 0-.12-.064-.12-.128Zm.482 0c-.06 0-.12 0-.18.064-.06.127-.181.191-.181.32h-.06v-.129l.06-.064v-.127c-.06 0-.06-.064-.12-.064-.061 0-.061-.064-.121-.128v-.064h.06c.06 0 .06 0 .06.064v.128c.06-.128.06-.128 0-.192.06-.064.06-.064.12-.064s.06 0 .06.064 0 .064-.06.064v.064h.181c.181 0 .241 0 .181.064Zm-.12-.895c-.06 0-.06-.064-.12-.127.06-.064.12 0 .18 0v-.128c.06.064.12.064.12.064-.06 0-.06.064 0 .064l.06.063v.064h-.06c-.06.064-.12 0-.18 0Zm.24.575c-.06-.064-.06 0 0 0-.06-.064 0-.064 0 0Zm.121-.064c0-.063 0-.063 0 0Zm-.06-.191c.06 0 .06.064 0 0 0 .064 0 .064 0 0Zm.12-.064c-.06 0-.12-.064-.12-.064h.06l.06.064Zm-.18-.575h.06v.064c-.06 0-.181 0-.181-.064v-.128l-.06.064c-.06 0-.06-.064-.12-.128-.06 0-.06 0-.121-.064 0-.064.06-.128.06-.064h.06c.06 0 .12 0 .12-.064 0 0 0 .064.061.064v.128h.18c0-.064-.06-.064-.06-.128.181 0 .181 0 .181.128-.06.064-.12.064-.18.192Zm.18-.447c-.06.063 0 .063 0 0-.06-.064-.06-.128 0-.128h.12c-.06.064-.12.064-.12.128Zm.06-.32c0-.064 0-.064 0 0Zm-.06-1.15c0-.064 0-.128-.06-.128l-.06-.063v-.064h.12c.06 0 .06.127.06.127.06.128 0 .128-.06.128Zm.18-1.022v.128h-.12c0-.064 0-.064-.06-.128l-.06-.064h.06c.12-.064.12.064.18.064Zm0-.767c.061 0 .061 0 .061.064s0 .128-.06.128v.128c-.06-.064 0-.064.06-.128-.06-.064-.06-.128-.06-.192Zm.121-.255.06.064h-.06c-.06 0-.06 0-.12-.064h.12Zm-.06-.448c.06 0 .06 0 0 0Zm.241 1.47c.06 0 .06 0 .06.064v.128h.06s0-.064.06-.064c.061.064.121.128.121.191h-.361v-.063c.06-.064.06-.128.06-.256Zm.06-.575c0 .064 0 .064 0 0 0 .064-.06.064-.06.128v-.064c0-.064 0-.064.06-.064Zm-.12-.32c0-.063 0-.063 0 0 0-.063.06-.063 0 0 .06-.063.06-.063 0 0Zm.12-1.405c0 .064 0 .064 0 0 .06.064.06.064.06.128h-.06v-.128Zm.12 1.597v.064h-.06s0-.064-.06-.064c-.06-.064-.06-.064 0-.128.12.064.12.128.12.128Zm-.06-.255c0-.064 0-.064 0 0 .06 0 .06 0 0 0Zm.181.255h-.06v-.064s.06 0 .06.064Zm-.06-.575c.06 0 .06 0 0 0Zm0-.83v-.064h.06c.06 0 .06 0-.06.064Zm.24.127c-.06-.063-.06-.127-.06-.191h.06v.191Zm0 .575c0 .064 0 .064-.06.064l.06-.064Zm-.06-1.533c-.06-.064-.06-.064 0 0 0-.064 0-.064 0 0Zm.121 2.172c0 .064.06.064.06.064v.064l-.06.064h-.06c-.06-.064-.18-.064-.18-.128.12-.064.18-.128.24-.064Zm.18-1.341c0-.064 0-.064 0 0 .061 0 .061 0 0 0Zm.061.702c0 .064.06.128.06.128-.06.064-.12 0-.12-.064 0 0 0-.064.06-.064Zm.06 1.023c-.06.063-.06.063-.12.063s-.06 0-.12.064v.128l.06.064s.06 0 .06.064v.064h-.12v-.064l-.06-.064c-.061 0-.061 0-.121-.064v-.128c.06-.064.06-.064.06-.127 0-.064 0-.128.06-.128h.06c.12.064.241 0 .241.128Zm0-2.109c.06.064.06.064 0 0Zm0-.83.06-.064v.064h-.06Zm0 1.725c.06 0 .06 0 0 0 .06 0 .06.064.06.064.06 0 0 0-.06-.064Zm.12.51V23.6c.061 0 .061 0 .061.064s-.06.064-.12.128c.06-.064.06-.064.06-.128Zm.121-.446v-.064.064c.06 0 .06 0 0 0Zm0 .255c.06-.064.06-.064 0 0Zm0-1.086c-.06-.064 0-.064 0 0Zm.12-1.405c.121-.064.181 0 .242 0h-.06c-.06.063-.121.063-.181 0 0 .063 0 .063 0 0Zm.362.51c-.06 0-.06-.063-.06-.063h.06v.064Zm0-.383c0 .064 0 .064 0 0Zm-.06.575c0-.064.06-.064 0 0Zm0 2.747c0-.063.06-.063.12 0 .06.064.06.128.12.128h-.06c-.06 0-.12-.064-.12 0s.06.128.12.128.121 0 .181.064l.06-.064c0 .064 0 .128.06.192 0 .064 0 .064-.06.064 0 0-.06 0-.06-.064-.06-.064-.12-.064-.18-.064 0 .064.06.128.06.128v.255c.06.064.06.064.06.128-.12-.128-.12-.128-.18-.32-.06-.063-.121 0-.181 0-.06-.063-.06-.127-.12-.127 0-.064.12-.128.12-.192 0-.128.06-.128.06-.256Zm.18-.127h.06c0 .064 0 .064-.06.064h-.06c0-.064 0-.064.06-.064Zm.181-.128c.06 0 .12.064.06.128-.06 0-.06-.064-.06-.128Zm.06 1.214c0-.128 0-.192.06-.256h.061c0 .064 0 .192-.06.256h-.06l-.06.064h-.06c0-.064-.061-.128-.061-.192l.18.128Zm-.18.192c0-.064 0-.064 0 0Zm-.18.255c0-.064.06 0 .12 0s.06.064 0 .128c-.06-.064-.06-.128-.12-.128Zm-.121-.447c.06 0 .06-.064.12-.064.06.064.12.064.12.128l-.12.128c-.06 0-.06-.064-.06-.128s-.06-.064-.06-.064Zm.06.255c-.06.064-.12.064-.12 0h.12Zm.18 0c0 .064 0 .064 0 0-.06.064-.06.064 0 0Zm-.3-.255v.128h-.241s0-.064-.06-.064c0 0 0-.064.06-.064.12 0 .18-.064.24 0Zm-.181.255c.06 0 .06 0 0 0Zm.06-.383c-.12 0-.18-.128-.18-.192v-.063c0-.064.06 0 .06 0 0 .063 0 .063.06.063.06.064.06.064.06.192 0-.064 0-.064 0 0Zm-.12.83c.06 0 .06.064.06.064-.06 0-.12-.063-.12 0 0 .064 0 .064-.061.128-.06 0-.12.064-.18.128-.06 0-.06 0-.121-.064v-.064l.06-.064-.06-.064c.06-.063.06-.063.06-.127.06 0 .12 0 .18.064h.181Zm-.362 1.15c0 .064 0 .064 0 0-.06.128-.12.192-.18.192 0-.064.06-.128.06-.191 0-.128.06-.192.18-.192 0 0 .06.064.06.128s-.06.064-.12.064Zm-.18-.127c-.06 0-.06 0 0 0Zm0-.384c0-.063 0-.063-.06-.063v-.064h.12c0 .064.06.064.06.127 0-.063.06-.063.06-.063l.06.063c0 .064-.06.064-.06.064l-.06.064c-.12-.064-.12-.064-.12-.128Zm-.06-.447c-.121-.064-.121-.128-.061-.191v-.064h.06s.06 0 .06.064c-.06 0-.06.064-.12.064.06.063.06.127.06.127Zm-.181-.894c.06-.064.06-.064 0 0 .06 0 .06 0 0 0Zm.12.511c0-.064 0-.064 0 0 .06.064 0 .128.06.192-.06-.064-.12-.128-.06-.192-.06 0-.06 0 0 0Zm.12-.064c.06 0 .06 0 0 0Zm.12.064c0 .064 0 .064 0 0-.06.064-.06.064 0 0Zm-.06-.958c.06 0 .06 0 0 0Zm.121 1.597v.064c-.06-.064-.06-.064-.06-.128 0 0 .06 0 .06.064Zm.241-.83-.06.063h-.06v-.064c0-.064.06-.064.12 0Zm-.12-1.279c0 .064.06.064 0 0v.064s-.06 0 0-.064Zm-.06-.51c.06.063.06.063 0 0 0 .063.06.063 0 0Zm.12 1.469c0 .064-.06.064-.06.064 0-.064 0-.064.06-.064-.06 0-.06 0 0 0Zm-.06-.639v-.064l.06.064c0 .064 0 .064-.06 0Zm-.241-1.661c0-.064 0-.064 0 0Zm0-.575c-.06 0-.06 0 0 0Zm-.06 1.15v.128h-.06s-.061-.064 0-.064c0-.064.06-.064.06-.064Zm-.181 1.405c.06 0 .06 0 0 0 .06.064 0 .128 0 .128h-.12c.06-.064.06-.128.12-.128Zm.06 1.278c.06 0 .12.064.18.128h-.3c0-.064.06-.128.12-.128Zm-.422-.064c.12 0 .181.128.181.192v.064h-.06c-.06-.128-.12-.128-.12-.256Zm-.06 1.086c-.06-.064-.06-.064 0 0Zm0 .192h-.06v-.064h.06v.064Zm-.12-.383.06-.064c.06 0 .06.064.12.064-.06.064-.06.064-.18 0Zm-.181.127.12-.127c.06-.064.06 0 .12 0-.06 0-.12.064-.06.127 0 .064 0 .064-.06.128v.064c-.06-.064-.12-.128-.12-.192Zm.06.512c-.06 0-.06 0 0 0Zm-.18-2.428.12.128c0 .064-.06.064-.12.064-.06-.064-.06-.128 0-.192Zm0-.256.06-.064c.06.064.06.064-.06.064.06 0 .06 0 0 0Zm.24.256c0 .064.06.064 0 0 0 .064 0 .064 0 0Zm0 .767c0 .063 0 .063 0 0 0 .127 0 .127-.06 0 0 .063 0 0 .06 0Zm-.06.255c0 .064 0 .128.12.128h.06v.064h-.06c-.12 0-.18-.064-.18-.192 0 .064 0 .064.06 0Zm.301.192c-.06 0-.06 0 0 0-.06 0-.12-.064-.12-.128.06 0 .06.064.12.128Zm-.12-.256c0-.064 0-.064 0 0Zm.06-.192c0 .064 0 .064 0 0-.06 0-.06.064 0 0Zm-.06-.191c0-.064 0-.064 0 0 .06 0 .06 0 0 0Zm-.12 1.661c.06 0 .06 0 .12.064l-.06.064c-.06-.064-.06-.064-.06-.128Zm.12-.511c-.06-.064-.06 0 0 0 0-.128-.06-.192 0-.192l.12.128c0 .064-.06.064-.12.064Zm.24-1.789s-.06-.064-.06-.128c.06-.064.121 0 .121.064v.064h-.06Zm-.06.128c.06 0 .06 0 0 0 .06 0 .06.064 0 0l-.06.064v-.064h.06Zm-.06.383c0-.064.06 0 0 0v.064s.06 0 .06.064h-.06v-.128Zm.241 1.214c-.06.064-.06.064-.12.064 0-.128.06-.128.12-.064Zm0-.383c.06-.064.06-.064.06-.128 0 0 .06-.064.06 0 0 0 .06.064 0 .064 0 .064 0 .064-.12.064Zm0-1.087c0 .064 0 .064 0 0Zm.06 1.662c.06-.064.06-.064.181-.064v.191c0 .064-.06.064-.06.064-.06-.064-.06-.128-.12-.191Zm.12-.575c.061 0 .061 0 0 0Zm-.24-2.237c0 .064 0 .064 0 0Zm-.482.064c.06-.064.06-.064.12 0l.121.128c-.18 0-.18-.064-.24-.128Zm.12-.255c0 .128-.06.128-.12.064.06 0 .06 0 .12-.064Zm0 3.897-.12-.128c-.06 0-.06-.064-.12-.127h.12c.06 0 .12.063.12.127.06 0 .06.064 0 .128Zm.121.128c0-.064 0-.064 0 0Zm0-.256c0-.064.06-.064 0 0Zm0-.127-.06-.064c-.06 0-.12 0-.12-.128h.12c.06 0 .06 0 0-.064h-.06s.06 0 .06-.064c.06.192.12.192.06.32.06-.064.06 0 .06 0 0 .063 0 .063-.06 0Zm.12-.384c-.06 0-.06 0 0 0Zm0-.192s-.06-.063 0-.063c0 0 .06 0 .06-.064.061 0 .061 0 .121.064-.06.063-.12.127-.18.063Zm.06.959c0-.064 0-.064 0 0 0-.064.061-.064 0 0 .061-.064.061-.064 0 0 .061 0 .061 0 0 0Zm.543-.064c.06-.064.06-.064 0 0Zm.12-.383h-.06s0 .127-.06.064c0 0-.06-.064-.06-.128 0 0 0 .064-.06.064-.181 0-.181 0-.241-.064 0-.064.06 0 .06 0h.06v-.064c-.06 0-.06.064-.12 0l-.06.064h-.121v-.128h.12v-.064c.12-.064.18-.064.241 0 .12.064.18.128.241.192h.06c.06-.064.06 0 0 .064.06 0 .06 0 0 0Zm.06-.256c-.06 0-.12.064-.12.064s-.06 0-.06-.064v-.064s.06-.064.12-.064c0 .064 0 .064.06.128-.06-.064-.06-.128-.06-.192.06-.064.06 0 .06 0 0 .064.06.128 0 .192.06 0 .06 0 0 0Zm-.06-.511c0-.064 0-.064 0 0 0-.064.06-.064.12-.064-.06 0-.06.064-.12.064Zm.12-.128c0-.064.061-.064.061-.064l.06.064h-.12Zm.121-.192s-.06.064-.06 0c-.06-.063 0-.063 0-.127-.06-.064-.12-.064-.18-.128 0-.064.06-.064.06-.064.06.064.18.064.24.128v.064c0 .064 0 .127-.06.127Zm.181-.191c0-.128-.06-.064-.12-.064v-.064c0-.064.06-.064.06-.064.06 0 .12.064.12.064v.064c0 .064 0 .064.06.064v.064h-.06c-.06 0-.12 0-.06-.064Zm.06.191c-.06 0-.06 0 0 0Zm.06-.383c0-.064 0-.064 0 0 .06-.064.06-.064 0 0 .06 0 .06 0 0 0Zm.06.192c.06 0 .06 0 0 0Zm-.12-.447v-.064c0-.064.06-.064.06-.128.06.064.12.064.06.064-.06.064-.06.064 0 .128l.181.191h-.06c-.12 0-.18-.128-.24-.191Zm.362.51-.12-.127v-.128h.06v.064h.06v.192Zm.12-.319c0 .064 0 .064 0 0-.06 0-.12 0-.18-.064v-.064h.06c.06.128.06.128.12.128s.06 0 0 0Zm-.06-.191c.12-.064.12-.064.18.064-.12.063-.18 0-.18-.064Zm.18 0c-.06-.064 0-.064 0 0 0-.064 0-.064 0 0Zm0-.192c-.06 0-.06 0-.12-.064 0-.064-.06-.128-.06-.192.06 0 .06.064.12.192.06 0 .12.064.181.064-.06-.064-.06 0-.12 0Zm.06.639-.06-.064h.06v.064c.061-.064 0-.064 0 0Zm.362-.128h-.18c-.06 0-.121 0-.181-.064v-.128c0-.064.06-.064.06-.127 0-.064 0-.064.06-.128h.06c.06.064.06.064.121 0l.06-.064c0 .064 0 .128-.06.192h-.06c0 .064-.06.127-.12.127.06.064.12 0 .18.064h.06v.128Zm0-.192c-.06-.064-.06 0 0 0-.06-.064-.06-.064 0 0Zm.06-.575c0 .064 0 .128.06.192v.064c.06.064.06.064.06.128s-.06.064-.06.064l-.06-.064c0-.064.06-.064.06-.128-.06 0-.06-.064-.18-.064 0-.064 0-.128-.06-.192h.18Zm-.06-.766c-.06-.128-.06-.128 0-.192 0 .064.06.128 0 .192Zm-.12-.384c.12.064.12.064.12.128l-.12-.128c-.06.064-.06.064 0 0Zm-.06.575c.06 0 .06 0 0 0 0 .064 0 .064 0 0Zm0 .448v.255c-.06 0-.121 0-.121-.064s.06-.064.06-.127c0-.064 0-.064-.06-.128 0 0 .06 0 .12.064 0-.064-.06-.064 0 0Zm-.181-.959v-.128h.12c0 .064.06.128 0 .128 0 .064-.06.064-.12.064v.128h-.06c0-.064-.06-.128-.06-.192h.12Zm-.362-.639c.06 0 .181.064.241.064 0 0 .06 0 .12.064-.06 0-.06 0-.12.064-.06 0-.12 0-.18.064h-.12c-.061-.192-.061-.192.06-.256Zm0-3.002c-.06-.064-.06-.064 0-.192v.192Zm.181.191c-.06 0-.06 0-.06-.064.06 0 .06 0 .06.064Zm-.12-.383c.06 0 .06 0 0 0 .12 0 .12.064 0 0 .06.064 0 .064 0 .064v-.064Zm0-.83c-.06 0-.06 0 0 0Zm-.06.383c-.06-.064-.06 0 0 0Zm-.06-.384v.064h-.061l.06-.064c-.06 0-.06 0 0 0Zm0 .512c.06 0 .06.063.06.127-.06 0-.121-.064-.121-.064 0-.064.06-.064.06-.064Zm-.121 2.363c-.06-.063-.06 0 0 0-.06-.063 0-.127 0-.127.06.064 0 .127 0 .127Zm-.06-2.683.06.064v.064h-.06c-.06-.064 0-.128 0-.128Zm-.121-.128c.06.064.06.064.06.128h-.06c0-.064-.06-.064 0-.128Zm0 4.28c-.06 0-.06-.063-.12-.063s-.121-.064-.06-.128h-.121c0-.064 0-.128.06-.192h.06c.06 0 .06.064 0 .064s-.06.064-.06.128c.241.128.241.128.241.192Zm-.18-2.107c-.061.063-.121 0-.121 0 0-.064 0-.064.06-.064h.12s0 .064-.06.064Zm-.061-1.342c0-.064 0-.128.06-.128 0 .064 0 .064-.06.128.06 0 .06 0 0 0Zm.06.894c-.06 0-.06 0 0 0Zm-.06-2.427c.06 0 .12.063.12.063v.064h-.06s-.06-.064-.06-.127c0 .063-.06.063 0 0Zm-.06.383c0 .064 0 .064 0 0-.06.064 0 .064 0 0Zm0 .703c-.06 0-.06 0 0 0 0-.064 0-.064 0 0Zm-.06.32.06.063c-.06.064-.06.064-.06-.064Zm0 .382c-.06-.064-.06-.064 0 0-.06-.064 0-.064 0 0 0-.064 0-.064 0 0Zm-.12.064s.06.064 0 .128c0 .064-.121.064-.121 0v-.064c.06-.064.12-.064.12-.064Zm-.061-1.277c0 .063 0 .127-.06.127 0 0 0-.064.06-.127-.06 0-.06 0 0 0Zm-.18.766c0 .064 0 .064 0 0-.061 0-.061 0 0 0Zm0 .895c0 .063 0 .063 0 0-.061.063 0 .063 0 0Zm.06.51c0-.063 0-.063 0 0 .12.065.06.129.06.192h-.06c-.06 0-.06-.063-.06-.063v-.064s0-.064.06-.064c-.06 0-.06 0 0 0Zm-.302-1.34c.06 0 .06 0 0 0 .12 0 .12.063 0 0 .06.063.06.063 0 0Zm.06.574c.06-.064.06-.064.181-.064-.06.064-.12.064-.12.192h-.06c-.06-.064-.06-.128 0-.128Zm-.12.575.06-.064c0 .064 0 .064-.06.064s-.06 0 0 0Zm.06 1.342c-.06.064 0 .064 0 0-.06.064-.12.064-.12.064l-.06.064v-.128h.18Zm-.3-1.534c.06.064.12.064.12.128-.06.064-.06.064-.12 0-.061 0 0 .064-.061.128-.06-.064-.06-.064-.06-.128s0-.128.12-.128Zm-.121 1.534c-.06-.064-.06-.064 0 0Zm-.12-.83c.06 0 .06 0 0 0Zm0 .446c.06.064.06.064.06.128l-.06.064h-.061c.06-.128.06-.128.06-.192Zm-.121.064c.06 0 .06 0 .12.064-.06 0-.12 0-.12-.064Zm-.06-1.341c0 .063.06.063 0 0Zm0 2.363v.192c-.181 0-.181-.064-.121-.192 0-.063.06-.063.06-.063.06 0 .06.063.06.063Zm-.06-1.788c0-.064.06 0 0 0 .06 0 .06 0 0 0Zm-.121-1.725c.06 0 .06 0 .06.064 0 .063-.06.063-.12.063.06-.064.06-.127.06-.127Zm-.06.958c-.06 0-.06 0 0 0Zm-.06.192c.06 0 .06.063 0 0 0 .063.06.063 0 0Zm-.121 1.213c0-.063 0-.063.06-.063 0 .064.06.191.12.255 0 0 0-.064.06-.064.061 0 .061 0 .061.064-.06.064-.06 0-.12 0v.064s-.06 0-.06-.064-.061-.064-.061-.064h-.06c-.06 0 0-.064 0-.064.06 0 0 0 0-.063Zm0-1.022s.06.064 0 .064c0 .064-.06.064 0-.064-.12.064-.12 0-.12 0v-.064h.06l.06.064c-.06 0-.06 0 0 0Zm-.12-.32v.129l-.06.063h-.061c.06-.063.06-.127.12-.191Zm-.06-1.021c-.061.064-.061 0-.061 0 0-.064.06 0 .06 0Zm-.182.127c.06.064.06.064 0 0 0 .064 0 .064 0 0Zm.06.895c.06.064.06.064 0 .128-.06 0-.06 0-.12-.064.06-.064.12-.064.12-.064Zm-.18-.192c0 .064 0 .064 0 0Zm-.06-.255c0 .063 0 .063 0 0l.06.063c-.06 0-.06 0-.06-.063Zm-.06 1.086c.06 0 .06.064 0 0 0 .064 0 .064 0 0Zm0 1.277c-.06.064 0 .064 0 0-.06 0-.121-.063-.121-.127.06.064.12.064.12.128Zm-.121-.447c0 .064 0 .064 0 0Zm-.06.895c0 .064 0 .064 0 0-.06.064-.06.064 0 0Zm-.06-.32c0 .064 0 .064 0 0 0 .064.06.064 0 0Zm-.12.83c.06 0 .12-.063.12-.063 0 .064-.06.064-.12.064 0 .064 0 .064 0 0Zm-.061.831c0-.063 0-.063 0 0Zm-.18-1.916c.06.064.06.064 0 0 0 .064 0 .064 0 0Zm-.061.51c0-.063.06-.063.12-.063 0 .064 0 .192-.06.192h-.06v-.128Zm0 .895c.06 0 .12-.064.12-.064.06 0 .12.064.06.128v.256h-.06c-.06 0-.12-.064-.12-.128-.06-.128-.06-.192 0-.192Zm0 .83c0 .065 0 .065 0 0-.06.065-.06.065-.12.065 0 0-.06 0-.06-.064v-.064h.06c.06 0 .12.064.12.064Zm-.12-1.66c.06 0 .06.064 0 0 0 .064 0 .064 0 0Zm0 .766v.128c-.06-.064-.06-.064 0-.128 0-.064-.06-.064 0 0Zm-.121-.447c.06 0 .12 0 0 0l.06.064c-.06 0-.06-.064-.06-.064Zm0 .767c-.06.064-.06.064-.12 0 .06-.064.06-.064.12 0Zm-.12-1.086c-.06 0 0 .064 0 0Zm-.242.255c.06 0 .06.064 0 0Zm0 .192c0-.064 0-.064.06-.064h.061c.06.064 0 .064-.06.064h-.06c.06 0 .06 0 0 0 0 .064 0 .064 0 0Zm-.18 2.62c.06 0 .12.063.18 0 0-.065 0-.065 0 0v.063s0 .064-.06.064-.12 0-.12.064v-.192Zm.18.319c0 .128-.06.128-.12.128s-.06-.064-.12-.128v-.064c0-.064.06-.064.06-.064.06.128.06.128.18.128Zm-.24-.767c.06 0 .06.064 0 0 .06.064.06.064 0 0 0 .064 0 .064 0 0Zm.06-1.214v.064h-.06c0-.064 0-.064.06-.064Zm-.18.575c.06 0 .12.064 0 0 .06.064.06.064 0 0Zm0 .64c0 .063 0 .063 0 0v.063-.064c0 .064-.061.064 0 0Zm0 .766.06.064h-.06s-.061-.064 0-.064Zm-.061.703h-.06.06Zm-.12-1.406c.06 0 .06.064 0 0 0 .064 0 .064 0 0Zm-.06.767c.06-.064.06-.064.06 0s-.06.064-.06 0Zm-.061-.959c.06 0 .06 0 0 0Zm0-1.022h-.12c.06-.064.12-.064.12 0Zm-.301.83c0-.063 0-.063 0 0 .06-.063.12-.063.12 0h-.12Zm.12-.127c-.06 0-.06 0 0 0Zm-.12-.511c.06 0 .06 0 0 0 .06.064 0 .064 0 .064v-.064Zm0 .32c-.06 0-.06 0 0 0Zm0 2.683c-.12.064-.12.064-.18 0 .12-.064.18-.064.18 0Zm-.12-.959c-.06-.064-.06-.064 0 0Zm0-1.405c-.06 0-.06 0 0 0-.06 0-.06-.064-.121-.064 0 0 .06 0 .12.064Zm-.242-.128c.06 0 .12.064.12.064-.06 0-.06.064-.06.064-.06-.064-.06-.064-.06-.128Zm0 .958c.06.064.12.064.12.128 0 0 .061 0 .061.064v.064h-.06c-.06 0-.06-.064-.06-.128 0 0-.06 0-.06-.128Zm0 1.15c-.06-.064-.06-.064 0 0 0-.064 0-.064 0 0Zm-.18-.639c-.06-.064 0-.064 0 0Zm-.06-.894c.06 0 .06 0 0 0Zm0-.192c.06 0 .06.064 0 0Zm-.242.32-.06.064s-.06 0-.06-.064v-.064c.06.064.06.064.12.064v-.128c.06.064.121.064.181.128 0 .064-.06.064-.06.064-.06 0-.06.063-.12 0h-.12v-.064l.06.064c.12 0 .06 0 .06-.064Zm-.12.447c-.06 0-.06 0 0 0-.06.064-.12.064-.12.064v-.064h.06c0-.064 0-.064.06 0 0-.064 0-.064 0 0 .06-.064.06-.064 0 0Zm-.06-.383v.127h-.12c.06-.127.12-.127.12-.127Zm-.06 1.15c-.06.064 0 .064 0 0v.127c-.06 0-.06 0 0-.127-.06 0-.06 0 0 0Zm0 1.47c.06.063.06.127.06.19-.06.065-.12 0-.18-.063.06-.064.06-.128.12-.128Zm-.12.319c-.061.063-.061.063 0 0-.061 0-.061 0 0 0Zm-.061-.576c-.06 0-.06-.063-.06-.063 0-.064.06-.128.06-.128.06.064.06.192 0 .192Zm0-.894v.064h-.06s0-.064.06-.064Zm-.06-.639c-.06-.064.06-.064 0-.192.12.128.12.128 0 .192Zm-.06 1.342c-.06 0-.06 0 0 0Zm-.06-.128c-.061 0-.121 0-.121-.064.06 0 .06 0 .12.064Zm-.181.575c.06 0 .06 0 0 0Zm-.06-1.597c.06 0 .06 0 0 0Zm0 .064c0 .064 0 .064 0 0-.061 0-.061 0 0 0Zm-.061.766c0-.127 0-.127.06-.127 0 .064.06.191 0 .255-.06 0-.12-.064-.18-.064.06-.127.06-.064.12-.064Zm-.12.128c0 .064 0 .064 0 0-.06.064-.06 0-.06 0h.06Zm-.12.447c.06-.064.06 0 .06 0v.192h-.121c.06-.064.06-.128.06-.192Zm-.061.128c0 .064 0 .064 0 0Zm-.12-.639.06.064v.064c-.06 0-.12-.064-.06-.128Zm-.06 1.15c-.061.064-.061.064-.121.064 0-.128.06-.128.12-.064-.06 0-.06-.064 0 0Zm-.121-1.66c.06 0 .06 0 0 0Zm0 1.15c0 .063-.06.063-.06.063 0-.064 0-.064.06-.064Zm-.06 2.171c0 .064 0 .064 0 0-.121 0-.181-.063-.181-.127v-.064s.06-.064.06 0c0 0 .06 0 .06.064 0 0 .06.064.06.127Zm0-1.15c-.06-.064-.06-.064 0 0Zm0-1.469c-.06-.064-.06 0 0 0-.06-.064-.06-.064 0 0Zm-.121-.575c.06 0 .06 0 0 0Zm.06.32v.063c-.06 0-.12.064-.18.064v-.128h.12c.06 0 0 .064.06 0Zm-.361.894c.06 0 .12 0 .12.064-.06 0-.06.064-.06.064s-.06-.064-.06-.128Zm0 .575c-.06 0-.06 0 0 0-.06-.064 0-.064 0 0Zm-.12-1.342c.06 0 .06 0 0 0 .06.064.06.064.06.128s0 .064-.06.064c-.06-.064 0-.128 0-.192Zm0 2.236c-.06 0-.06.064 0 0-.06 0-.06 0 0 0Zm-.06-1.789c0 .064 0 .064 0 0Zm0 2.428c.06 0 .06.064 0 0 0 .064 0 .064 0 0Zm-.061-2.555c-.06 0-.06 0 0 0-.06-.064-.06 0 0 0Zm-.06.32c0 .063 0 .063 0 0Zm0 .766.06.064c-.06 0-.06 0-.06-.064-.06 0-.06 0 0 0Zm0 1.086c.06 0 .06 0 0 0Zm-.12-1.534c-.061 0-.121 0-.061-.063h.18c-.06.063-.06.063-.12.063Zm-.121-.575c0 .128-.06.128-.12.128.06-.064.06-.128.12-.128Zm-.12-.127c.06 0 .06 0 0 0Zm0 2.683c.06.064.06.064.06.128h-.06v-.128Zm0 1.725c0 .064 0 .064 0 0-.061.064-.121 0-.121-.064.12 0 .12 0 .12.064Zm-.061-.575c-.06.064-.06 0-.06 0h.06Zm-.06-1.47c0-.063 0-.063 0 0 0-.063.06-.063 0 0 .06 0 .06 0 0 0Zm.06-2.235c0 .063 0 .063 0 0-.06 0-.06 0 0 0Zm-.06 1.022c0 .064 0 .064 0 0-.06 0-.06.064 0 0Zm-.06.383c.06 0 .06 0 0 0 0 .064 0 .064 0 0Zm0 .383c-.06.064 0 .064 0 0Zm0 .767c.06 0 .06 0 0 0s-.06 0-.12-.064c.06 0 .12 0 .12.064Zm-.06 1.278h-.121c.06 0 .06-.064.12 0Zm-.121-.639c.06 0 .06 0 0 0Zm0 .192s.06 0 .12.063c.06 0 0 .064 0 .064-.06 0-.06 0-.06.064v-.064c-.12-.063-.12-.063-.06-.127Zm-.06-1.534c-.06 0-.06 0 0 0Zm-.06-.83c0-.064 0-.064 0 0Zm0 1.916c-.06 0-.06 0 0 0Zm-.06 0c0 .064 0 .064 0 0 0 .064 0 .128 0 0-.061.064-.061 0-.061 0h.06Zm-.061-.958c0 .064 0 .064-.06.064.06 0 0-.064.06-.064Zm-1.084 2.875c.06 0 .06 0 0 0Zm.06.83c-.06 0-.06 0 0 0Zm.06.448c-.06-.064 0-.064 0 0Zm.12-.575c.06 0 .06 0 0 0Zm0-.639v-.192h.06v.128c0 .064 0 .064-.06.064Zm.06-1.725c-.06.064 0 .064 0 0-.06.064-.06.064 0 0Zm.182 2.875c-.06 0-.12 0-.181.064.06-.064.12-.064.18-.128 0-.064.06 0 0 .064Zm.06-.256c-.06-.127-.12-.191-.18-.191.06-.064.06-.064.12-.064s.12 0 .06.064c0 0 .06.064 0 .191Zm.12-1.98c-.06-.064-.06 0 0 0-.06 0-.12 0-.12-.064v-.064c0 .064 0 .064.12.128-.06-.064-.06-.064 0 0 0-.064 0-.064 0 0Zm.241 2.108c-.06-.064-.18-.064-.24-.128 0 0-.061-.063 0-.063h.06l.12.127s.06 0 .06.064Zm-.12-2.875c0 .064 0 .128-.06.128.06-.064 0-.064.06-.128 0-.064-.06 0 0 0Zm.12.447c.06 0 .06 0 0 0 0 .128 0 .128-.06.192h-.06v-.064c0-.064 0 0 .06 0v-.064c0-.064 0-.064.06-.064 0-.063 0-.063 0 0Zm0-2.172-.06-.064c.06.064.12.064.12.128l-.06-.064Zm.06 2.108c0-.063 0-.063 0 0-.06-.063 0-.063 0 0Zm0 1.023c0 .064 0 .064 0 0Zm0 .447c.06 0 .06 0 0 0 0 .064 0 .064 0 0Zm.06-2.3c-.06.064 0 .064 0 0-.06.064-.06.064-.06 0h.06c-.06 0-.06-.064 0 0Zm-.24-2.172c0 .064 0 .064 0 0Zm.12 1.852c-.06.128-.06.128 0 0-.06.064-.06 0-.06 0h.06Zm-.18-1.916c-.06 0-.06 0 0 0Zm-.06.894c0 .064.06.128.06.192-.06 0-.06 0-.121-.064 0-.064 0-.064.06-.128Zm-.121-.83c-.06 0-.06.064 0 0Zm-.06 1.405c0-.064.06-.064.06 0v.064s-.06 0-.06-.064Zm.06.256c-.06 0-.06 0 0 0Zm-.06.511c.12 0 .12 0 .12.064s-.06.128-.06.192h-.06v-.064c-.06-.064 0-.128 0-.192Zm0 1.022c.06.064 0 .064 0 .064-.06 0-.06 0 0 .064-.06 0-.06 0-.06-.064 0 0 .06 0 .06-.064Zm0 .83c.06.128.06.192 0 .192-.06.064-.06 0-.12 0 0-.064 0-.064.06-.127l.06-.064Zm-.181-2.683c.06.064 0 .128.06.128 0 .064.06.064.06.128h-.06c-.06-.064-.06-.128-.12-.192 0 .064 0 0 .06-.064Zm-.06.384h.12c-.12.064-.12.064-.12 0 0 .064-.06 0 0 0Zm0 1.405s0 .064.06.064c-.12 0-.12 0-.12-.064-.06 0 0-.064.06 0 0-.064-.06-.064 0 0Zm-.12-2.172c.06 0 .06.064 0 0-.061.064 0 .064 0 0Zm0 .383c-.061.064 0 .064 0 0-.061 0-.061.064 0 0Zm-.181 2.428c.06 0 .06 0 0 0h.06v.064c.06 0 0 0-.06-.064 0 .064 0 .064 0 0Zm0 1.98c.06 0 .06.065 0 0 0 .065 0 .065 0 0Zm-.121-3.96s.06-.064.06 0v.064c0 .063 0 .063-.06-.064 0 .064 0 .064 0 0Zm-3.433 3.386c0-.064 0-.064 0 0Zm.12.575c-.06-.064-.06 0 0 0-.06-.064 0-.064 0 0 .06 0 0-.064 0 0Zm.18.32c-.06-.065-.06 0 0 0 0-.065 0-.065 0 0Zm.121-.32-.06-.064h.06v.064Zm.482 0c0-.064.06-.064 0 0 .06-.064.06 0 0 0Zm.18-.575c-.06 0-.06 0 0 0Zm.061-2.684c0-.064 0-.064 0 0 0-.064.06 0 0 0Zm.06-.958c-.06-.064-.06-.064 0 0-.06-.064 0-.064 0 0 0-.064 0-.064 0 0Zm.181 4.408c-.06-.063 0-.063 0 0Zm-.12-.383c.06-.064.06 0 .06 0v.192c-.06-.064-.06-.128-.06-.192Zm.3.575c-.06.064-.06.064 0 0-.12 0-.06-.064-.06-.128.06.064.06.128.06.128Zm.302-.32c-.06 0-.12-.063-.12-.127h.18c0 .128-.06.128-.06.128Zm0-1.022c0-.063 0-.063 0 0-.06-.063 0-.127 0-.063.06-.064.06 0 0 .063Zm.301 1.214c-.06 0-.06 0 0 0-.12 0-.12-.127-.12-.191.12 0 .12 0 .12.063v.128Zm.301-.191c-.06 0-.06 0 0 0l-.06-.064c0-.064.06 0 .06.064Zm-.06-2.364c-.06-.064-.06-.064 0 0Zm.06 1.916c0-.063 0-.063.06-.127v.064c0 .063-.06.127-.06.063Zm.12-.639h-.06v-.063l.06.063Zm.06.767c-.06-.064-.06-.064-.06-.128h.06v.128Zm0-3.13c0 .064 0 .064 0 0Zm.061 2.364c0 .063 0 .063 0 0 .06.063.12.063.12.127-.06.064-.06 0-.06 0-.06-.064-.12-.127-.06-.127-.06 0-.06 0 0 0Zm.12-1.47c-.06.064 0 .064 0 0Zm-.18 1.853c0-.064.06-.064.06-.064h.06v.064l-.06.064c-.06 0-.06-.064-.06-.064Zm.06.575c0-.064 0-.064 0 0 .06 0 .06 0 0 0Zm.12.191c-.06 0-.06 0 0 0-.06-.063-.06-.127-.06-.127.06 0 .06-.064.12 0 0 .064-.06.064-.06.127Zm.121-1.724c-.06-.064-.06-.064-.06-.128h.06c.12 0 .18 0 .241-.064h.06v.128c-.12 0-.18.063-.3.063Zm.06-1.15c-.06-.064-.06-.064 0 0-.06-.064 0-.064 0 0 0-.064 0-.064 0 0Zm.06.702c-.06.064-.06.064-.06 0h.06Zm.121 1.023c0-.064 0-.064 0 0Zm-.06-.448c0 .064 0 .064 0 0Zm0 1.47-.06-.064h.06v.064Zm.18.127s-.06 0-.12.064v-.063h.12c.06-.064 0-.064 0 0Zm0-.383c-.06 0-.12.064-.18.064v-.255c0-.064.06-.064.12-.064s.06.064.12.127c0 .064 0 .128-.06.128Zm.06-1.278c.061.064.061.064 0 0 0 .064 0 .064 0 0Zm0-2.555c.061 0 .061 0 0 0Zm0-.703c0 .064 0 .064 0 0Zm0 2.62c-.06-.064-.06 0 0 0-.06-.064-.06-.064 0 0 0-.064 0-.064 0 0Zm-.06-.384c0 .064-.06.064-.12 0v-.064c.06 0 .06 0 .12.064 0-.064 0-.064 0 0Zm-.06-2.555c0 .063 0 .063 0 0-.06-.064 0-.064 0-.064.06 0 .06.064 0 .064Zm-.06-.384c.06 0 .06.064.06.064v.064h-.06c-.06-.064-.06-.064 0-.128Zm-.06.64c.06 0 .06.063.06.063-.06 0-.06-.064-.06-.064Zm0 .51c.06.064 0 .064 0 .128h-.06v-.064l.06-.064Zm-.18 1.086c.06 0 .12.064.06.064l-.06.064s-.061-.064 0-.128Zm-.182-.575c.06 0 .12.064.06.128 0 0-.06-.064-.06-.128Zm0 1.023c-.06 0-.06 0-.06-.064l.06.064c0-.064 0-.064 0 0Zm-.06-.959v.064c-.06.064-.06.064-.06.128h-.06c-.06-.128 0-.192.12-.192Zm-.18-.32c.06.065.06.129.06.129h-.06v-.128c-.06.064-.06 0 0 0Zm-.06 2.556c.06-.064.06-.064.06 0 0 0 0 .064.06.064v.064h-.06c-.06 0-.06 0-.06-.064v-.064Zm0 .575c-.061 0-.061 0 0 0-.061-.063-.061 0 0 0-.061-.063-.061-.063 0 0Zm-.121-3.897c.06 0 .06 0 0 0Zm0 .895c.06-.064.06 0 .06 0 0 .064 0 .127-.06.127 0 0-.06-.063 0-.127Zm0 1.916c-.06 0-.06 0 0 0Zm-.12-2.747c.06 0 .06 0 0 0Zm.06 4.025c0 .064 0 .064 0 0-.06.128 0 .064 0 0-.06.064-.06.064 0 0-.06.064-.06 0 0 0Zm0 .256c0 .064 0 .064-.12.064.06-.064.12-.064.12-.064Zm-.06.064h-.121.12Zm-.121-.767c-.06.128-.18.128-.241.064 0-.064.06-.064.06-.128.06.064.12.064.18.064Zm-.06-2.3v.128h-.06s-.06 0-.06-.064v-.192c.12.064.12.064.12.128Zm0-.32c0-.063 0-.063 0 0Zm0 1.598c0 .064 0 .064 0 0-.06.064-.12.064-.12.064v-.128c.12 0 .12.064.12.064Zm-.06.447c0-.064 0-.064 0 0Zm0 .383c0-.064 0-.064 0 0Zm.12-3.578c-.12 0-.12 0-.18-.127.06.063.06.063.18.127Zm-.241 1.79c.06 0 .06.063 0 .127h-.06s0-.064.06-.128Zm.06.383.06-.064c.06 0 .06 0 .06.064v.127h-.18c-.06-.127 0-.127.06-.127Zm-.24-.575c-.061.064 0 .064 0 0Zm-.121.447c0 .064 0 .064 0 0Zm.06.255c-.06.064-.06.064 0 0-.06 0-.06.064 0 0-.06 0-.06 0 0 0Zm0 2.492c-.12.064-.18-.064-.241-.192h.18c0 .064 0 .128.061.192Zm-.18-.383c.06-.064.06-.064 0 0Zm0-3.195c-.061 0-.061 0 0 0Zm0 1.023c0 .063 0 .063 0 0-.061 0-.061 0 0 0Zm-.061 1.086.06.063v.064-.064l-.06-.063c0 .063 0 .063 0 0Zm-.06.639c.06.063.06.063 0 .127h-.06c0-.064 0-.064.06-.127Zm-.12-3.323c0-.064 0-.064 0 0 0-.064.06 0 0 0Zm0-.383c0 .064-.06.128-.06.128-.061-.064 0-.064 0-.128h.06Zm-.121 2.939c.06 0 .06 0 0 0 .06 0 .06.064.06.064 0 .064-.06.064-.12 0 .06 0 .06-.064.06-.064Zm-.06.511c-.06 0-.06.064 0 0-.06 0-.06 0 0 0Zm-.12-1.15c.06 0 .06.064 0 0 0 .064 0 .064 0 0Zm-.061-1.533c0 .064 0 .064 0 0Zm0 .255c0 .064 0 .064 0 0Zm-.18 1.15h-.061c0-.064.06-.064.06 0Zm0-.575c-.061 0-.061 0 0 0Zm-.061-.128c-.06 0-.06.064 0 0Zm-.06-.958c.06 0 .06 0 0 0Zm0 4.472c0 .064.06 0 0 0 0 .064 0 .064 0 0-.06.064-.06 0 0 0Zm-.18-4.664c.06 0 .06 0 0 0 0 .064.06.064 0 0Zm-.061 3.003h-.06v-.064s.06-.064.06 0v.064Zm0-.447h-.12c.06-.064.06-.064.12-.064v.064Zm-.12-2.683c0 .064 0 .064 0 0Zm-.06 1.15.06-.064v.064s0 .064-.06.064c0 .063-.061.063-.061 0 .06-.064 0-.064.06-.064-.06 0-.06 0 0 0Zm-.061.383c0 .064 0 .064 0 0Zm-.12.958h.06v.064s-.06 0-.06-.064Zm-.543-1.916c.06 0 .06.064.06.064v.063h-.06c-.06 0-.06-.063 0-.127Zm-.723.447c0 .064 0 .064 0 0l.06.064h-.06v-.064Zm-.18-.895c.06 0 .06 0 0 0Zm-.301 3.642c0-.064.06 0 .06 0h-.06Zm-.12.192c-.061 0-.061 0 0 0Zm-.061-2.811c-.06 0 0 .064 0 0Zm-.964-.128c0-.064 0-.064 0 0Zm0 .511c.06 0 .06 0 .06.064 0 0-.06 0-.06-.064Zm-1.506 2.428c-.12 0-.12-.064-.12-.128h.06c.06 0 .12.064.06.128Zm.362-1.023c-.06 0-.06 0 0 0Zm.12.703c-.06-.064-.06-.064 0 0-.06-.064 0-.064 0 0Zm-.12-1.022-.06-.064h.06c.06 0 .12 0 .18.128-.12-.064-.18-.064-.18-.064Zm.18 1.342c0 .064 0 .064 0 0Zm.06.703c-.06 0-.06-.064-.06-.064.06 0 .06 0 .06.063.06 0 .06-.063 0 0Zm0-1.79c.06 0 .06 0 0 0Zm.242-.127c.06 0 .06 0 0 0 .06 0 .06.064 0 0 .06.064 0 .064 0 0 0 .064 0 .064 0 0Zm.06 1.597c0-.064 0-.064 0 0Zm.06-2.683v-.064s.06.064 0 .064Zm.06 1.852c0-.063 0-.063 0 0Zm.241.895h-.06c-.06 0-.06-.064 0-.064h.06v.064Zm0-.703c.06 0 .06 0 0 0Zm.12-2.428c-.06 0-.06 0-.06-.064v-.063h.06v.127Zm.061-.383c-.06 0-.06 0 0 0l-.06-.064c.06 0 .06.064.06.064Zm.06.958c0-.063 0-.127.06-.127h.06c-.06 0-.12.063-.12.127Zm0 1.79c.06 0 .06 0 0 0 .06.063.12.063 0 0 .06.063 0 .063 0 0 0 .063 0 .063 0 0Zm.12.574c-.06-.064-.06-.064 0 0-.06-.064-.06-.064-.06-.127l.06.127c0-.064 0-.064 0 0Zm.121-3.003c0-.063 0-.063 0 0Zm.12-.063c.06-.064.06-.064 0 0 .06-.064.06-.064.06 0h-.06Zm.181 2.555c-.06-.064-.06 0 0 0-.06-.064 0-.064 0 0Zm.06.384v-.192c.06 0 .06.064.06.128.061 0 0 0-.06.064Zm.362-2.684c-.06 0-.06 0 0 0-.06-.064-.06 0 0 0Zm.06 3.13-.06-.063c0-.064.06-.064.06.064Zm.06-4.471c-.06 0-.06 0 0 0 0-.064 0-.064 0 0Zm.12 4.791c0-.064 0-.064 0 0Zm0-.383c-.06 0-.06-.064-.06-.064.06 0 .121 0 .06.064Zm0-3.77-.06-.063s.06 0 .06.063c.061 0 .061-.063 0 0Zm.242 2.875c0-.063 0-.063 0 0 .06 0 .06 0 0 0Zm.12.703c.06 0 .06 0 0 0Zm.06-1.725c-.06-.064 0-.064 0-.064.06-.064.06-.064.06.064h-.06Zm.181-.064c.06 0 .06 0 0 0Zm.06.83c-.06-.063-.06-.063 0 0Zm.12 1.406c0-.063.061-.063 0 0Zm.121-1.341c-.06 0-.06 0 0 0-.06-.064-.06-.064 0 0Zm0-3.578c-.06 0-.06 0 0 0Zm.06 2.875c-.06-.064-.06-.064 0 0Zm.06 1.342c0-.064.061-.064 0 0 .061 0 .061 0 0 0Zm.121-1.534c0-.064 0-.064 0 0Zm0-.639c0-.063 0-.063 0 0Zm0 2.748c.06-.064.06 0 0 0Zm.181-3.45c.06 0 .06 0 0 0Zm.06-.384c-.06-.064-.06-.064 0 0-.06-.064 0-.064 0 0Zm-.06-.894h-.06.06l-.06.064h-.06c-.06 0-.06-.064-.06-.128v-.128c0-.064.06-.128.12-.192.06 0 .12 0 .12.064v.128c.06.128 0 .192-.06.192Zm.12 3.13c0-.064 0-.064 0 0Zm.12.703h.121v.064c-.06 0-.12 0-.12-.064Zm.061 1.15c-.06-.064-.06-.064 0 0l-.06-.064c.06 0 .06 0 .06.064Z" fill="#FE4D57"/>
    <path fill-rule="evenodd" clip-rule="evenodd" d="M37.895 32.8c-.06-.064-.06-.064 0 0Zm.06-.064c0 .064.06.064.06.128.06-.064.06-.064.06-.128h-.12Zm-1.508 1.15c-.06.064-.06.064 0 0 0 .064 0 .064 0 0Zm-1.142.32c-.06-.064 0-.064 0 0-.06-.064-.06-.064 0 0Zm.421.064c.06 0 .06 0 0 0s0 .063 0 0Zm2.59-1.406c0 .064 0 .064 0 0h.12-.12Zm3.434-4.089c.06-.064.12-.064.18-.128v-.127c-.06-.064-.12-.064-.12-.064h-.06c-.061 0-.061.064-.061.064v.191c-.06.064 0 .128.06.064Zm0-.192c.06 0 .06 0 .06.064s-.06.064-.06-.064c-.061.064-.061.064 0 0Zm-1.447 2.747c-.06.065-.06.065 0 0-.06.065 0 .065 0 0Zm1.084-1.788h.12c-.06 0-.06-.064-.12 0Zm-.119-.064c.06.064.06.064.12 0v-.128l-.06-.064c0 .128-.06.192-.06.192Zm.662.192c.06-.064.12-.192.24-.256v-.064c0-.064 0-.064-.06-.064h-.06c0 .128-.12.192-.18.32 0 .063 0 .063.06.063Zm.06-.448c-.06-.064 0-.064 0 0Zm-4.096 2.939c0 .064-.06.064 0 .128 0-.064.06-.064.06-.128s-.06-.064-.06 0Zm5.06-4.152-.06.063h-.06c0 .064-.06.064 0 .128.06 0 .06.064.12.064 0-.064 0-.064.06-.128 0-.064.06-.064.12-.064 0 0 0 .064.06.064.061-.064.061-.127.121-.127 0 0-.06 0-.06-.064l.12-.128c0-.064.06-.064.121-.064 0-.064.06-.064.06-.128v-.064s.06 0 .06-.064h.06v-.064l-.06-.063c0 .063-.06.063-.12.063s0 .064-.06.128c0 0-.06 0-.06-.064h-.06v.064c.06 0 .06.064.06.128h-.121v.192c-.06 0-.06 0-.12-.064s-.06-.064-.12 0c.06.064.06.064.06.128-.181-.128-.121-.064-.121.064 0-.064 0-.064 0 0Zm-2.048 1.405c-.06.064 0 .064 0 0 0 .064.06.064.06.064 0-.064 0-.064-.06-.064Zm-.181.256h.12c-.06 0-.12-.064-.12 0Zm.481.063c0 .064-.06.192 0 .192.06-.064.06-.064.12 0 0-.064 0-.128.061-.128l.06-.064v-.064h-.06l-.06.064-.06-.064c0-.064 0-.064-.06.064Z" fill="#FE4D57"/>
    <path fill-rule="evenodd" clip-rule="evenodd" d="M40.726 29.733h-.12c.06.064.06.192.12.192v.191l-.06.064.06.064c.06 0 .06.064.06.128.06 0 .06-.064.06-.128-.06-.064 0-.128 0-.191 0-.064-.06-.128-.06-.192.12.064.12-.064.18-.128.061 0 .061.064.121.064h.12l-.06-.064c-.06-.064-.06-.064 0-.064 0 0 .06 0 .06-.064s-.06-.064-.06-.064h-.18c0 .064 0 .128-.06.128s-.06 0-.12.064c.06 0 .06 0 .12.064v.064c-.06-.128-.12-.128-.181-.128Z" fill="#FE4D57"/>
    <path d="M23.016 6.095c-1.205 1.533-3.313 1.66-4.759.447-1.445-1.278-1.566-3.514-.421-5.047 1.204-1.534 3.312-1.662 4.758-.448 1.446 1.214 1.566 3.514.422 5.048Z" fill="#387F6A"/>
    <path d="M55.482 23.536v9.775h-4.879v-9.775c0-1.086-.24-1.98-.783-2.555-.542-.64-1.204-.959-2.048-.959-.843 0-1.505.32-2.047.959-.543.575-.784 1.47-.784 2.555v9.775h-4.879v-9.775c0-2.62.723-4.728 2.109-6.26 1.385-1.534 3.192-2.3 5.36-2.3 2.41 0 4.277.957 5.542 2.874 1.265-1.917 3.132-2.875 5.541-2.875 2.169 0 3.976.767 5.361 2.3 1.386 1.533 2.109 3.578 2.109 6.261v9.775h-4.88v-9.775c0-1.086-.24-1.98-.782-2.555-.542-.64-1.205-.959-2.048-.959-.844 0-1.506.32-2.048.959-.603.575-.844 1.405-.844 2.555ZM77.587 33.63c-2.349 0-4.337-.894-5.963-2.683-1.566-1.789-2.41-4.025-2.41-6.644 0-2.684.844-4.92 2.59-6.645 1.748-1.789 3.916-2.683 6.506-2.683 2.53 0 4.638.83 6.325 2.556 1.686 1.725 2.53 3.833 2.53 6.452v9.328h-4.518v-2.683c-1.084 1.98-2.831 3.003-5.06 3.003Zm3.554-6.26c.783-.831 1.145-1.853 1.145-3.067 0-1.214-.362-2.3-1.145-3.067-.723-.83-1.686-1.214-2.891-1.214-1.144 0-2.108.384-2.891 1.214-.783.83-1.145 1.853-1.145 3.067 0 1.214.362 2.236 1.145 3.066.783.831 1.747 1.214 2.89 1.214 1.206 0 2.11-.383 2.892-1.213Z" fill="#fff"/>
  </g>
  <defs>
    <clipPath id="a">
      <path fill="#fff" d="M.488.217h86.737v40.889H.488z"/>
    </clipPath>
  </defs>
</svg>
