<svg width="19" height="17" viewBox="0 0 19 17" fill="none" xmlns="http://www.w3.org/2000/svg">
<g clip-path="url(#clip0_4967_833)">
<path fill-rule="evenodd" clip-rule="evenodd" d="M2.72902 16.2677C2.23524 16.2677 1.83496 15.8675 1.83496 15.3737C1.83496 11.2328 5.2223 7.84546 9.36317 7.84546C13.504 7.84546 16.8914 11.2328 16.8914 15.3737C16.8914 15.8675 16.4911 16.2677 15.9973 16.2677H2.72902ZM3.53986 14.6365H15.1865C15.1798 14.584 15.1723 14.5317 15.1642 14.4796C14.7289 11.679 12.3302 9.47665 9.36317 9.47665C6.46852 9.47665 4.00013 11.679 3.56219 14.4796C3.55404 14.5317 3.54659 14.584 3.53986 14.6365Z" fill="#387F6A"/>
<path d="M9.36295 7.73226C11.2437 7.73226 12.7825 6.19344 12.7825 4.31266C12.7825 2.43188 11.2437 0.893066 9.36295 0.893066C7.48218 0.893066 5.94336 2.43188 5.94336 4.31266C5.94336 6.19344 7.48218 7.73226 9.36295 7.73226ZM9.36295 2.60286C10.3033 2.60286 11.0728 3.37227 11.0728 4.31266C11.0728 5.25305 10.3033 6.02246 9.36295 6.02246C8.42257 6.02246 7.65316 5.25305 7.65316 4.31266C7.65316 3.37227 8.42257 2.60286 9.36295 2.60286Z" fill="#387F6A"/>
</g>
<defs>
<clipPath id="clip0_4967_833">
<rect width="18.0469" height="15.693" fill="white" transform="translate(0.339844 0.893066)"/>
</clipPath>
</defs>
</svg>
