<svg width="22" height="19" viewBox="0 0 22 19" fill="none" xmlns="http://www.w3.org/2000/svg">
<path d="M10.5151 17.6206C12.7864 17.6206 14.9647 16.7183 16.5707 15.1122C18.1768 13.5061 19.079 11.3278 19.079 9.05661C19.079 6.7854 18.1768 4.60699 16.5707 3.00104C14.9646 1.39496 12.7863 0.492676 10.5151 0.492676C8.24389 0.492676 6.06549 1.39496 4.45953 3.00104C2.85345 4.60712 1.95117 6.7854 1.95117 9.05661C1.95388 11.3271 2.85696 13.5038 4.46239 15.1093C6.06798 16.7148 8.24467 17.6179 10.5151 17.6206ZM3.37843 9.05653C3.37779 8.09357 3.57309 7.14048 3.95254 6.25536C4.54134 6.52363 5.1473 6.75253 5.76636 6.94053C5.43709 8.33202 5.43709 9.78101 5.76636 11.1724C5.1473 11.3604 4.54134 11.5893 3.95254 11.8575C3.57309 10.9725 3.37777 10.0194 3.37843 9.05637V9.05653ZM17.6518 9.05653C17.6524 10.0195 17.4571 10.9726 17.0777 11.8577C16.4889 11.5894 15.8829 11.3605 15.2639 11.1725C15.5931 9.78105 15.5931 8.33206 15.2639 6.94069C15.8829 6.75271 16.4889 6.52378 17.0777 6.25553C17.4571 7.1406 17.6524 8.09369 17.6518 9.0567V9.05653ZM14.0835 9.05653C14.0822 9.65279 14.014 10.2468 13.88 10.8278C13.0056 10.6488 12.1182 10.5403 11.2262 10.5038V7.60928C12.1182 7.5728 13.0056 7.46432 13.88 7.28527C14.014 7.86623 14.0822 8.46023 14.0835 9.05653ZM9.79899 15.1729C8.84031 14.3665 8.08509 13.3458 7.59413 12.1933C8.32182 12.052 9.05874 11.9644 9.79899 11.931V15.1729ZM11.2263 15.1769V11.9295C11.9685 11.9626 12.7071 12.0503 13.4363 12.1919C12.9447 13.3468 12.1875 14.3695 11.2263 15.1767V15.1769ZM11.2263 6.18178V2.93459C12.1874 3.74144 12.9446 4.76354 13.4363 5.91797C12.707 6.06007 11.9685 6.14817 11.2263 6.18178ZM9.79899 2.94001V6.18178C9.05874 6.14833 8.32178 6.06071 7.59413 5.91941C8.08509 4.76686 8.84035 3.74623 9.79899 2.93987V2.94001ZM9.79899 7.60904V10.5037V10.5035C8.90883 10.5405 8.0231 10.6488 7.15031 10.8275C6.87902 9.66226 6.87902 8.45028 7.15031 7.28501C8.0231 7.46374 8.90883 7.57208 9.79899 7.60904ZM4.64631 13.1071C5.1489 12.8851 5.66473 12.6944 6.19105 12.5362C6.69637 13.8057 7.47166 14.9502 8.46301 15.8904C6.91251 15.4213 5.5669 14.44 4.64631 13.1071ZM12.568 15.8904C13.5594 14.9502 14.3345 13.8057 14.84 12.5362C15.3661 12.6944 15.8821 12.8851 16.3847 13.1071C15.4636 14.4397 14.1179 15.4204 12.5673 15.8892L12.568 15.8904ZM16.3862 5.0068C15.8836 5.22902 15.3676 5.41971 14.8414 5.57773C14.3359 4.30842 13.5608 3.16386 12.5695 2.22349C14.119 2.6928 15.4636 3.67346 16.3839 5.00553L16.3862 5.0068ZM8.46443 2.22349C7.47297 3.16386 6.6978 4.30842 6.19248 5.57773C5.66616 5.41971 5.15032 5.22902 4.64774 5.0068C5.568 3.67424 6.913 2.69313 8.46301 2.22349H8.46443Z" fill="#7F859E"/>
</svg>
