<svg width="19" height="15" viewBox="0 0 19 25" fill="none" xmlns="http://www.w3.org/2000/svg">
<path fill-rule="evenodd" clip-rule="evenodd" d="M18.9232 1.19653C19.4213 1.68228 19.4261 2.47457 18.9339 2.96615L10.0024 11.8864C9.51018 12.3779 8.70737 12.3827 8.20926 11.8969C7.71115 11.4112 7.70636 10.6189 8.19856 10.1273L17.13 1.20708C17.6222 0.7155 18.4251 0.710773 18.9232 1.19653Z" fill="#387F6A"/>
<path fill-rule="evenodd" clip-rule="evenodd" d="M11.5393 1.78587C11.5393 1.09477 12.107 0.534531 12.8073 0.534531H18.1975C18.8977 0.534531 19.4654 1.09477 19.4654 1.78587V7.06992C19.4654 7.76102 18.8977 8.32126 18.1975 8.32126C17.4972 8.32126 16.9295 7.76102 16.9295 7.06992V3.0372H12.8073C12.107 3.0372 11.5393 2.47696 11.5393 1.78587Z" fill="#387F6A"/>
<path fill-rule="evenodd" clip-rule="evenodd" d="M0.534668 4.1443C0.534668 3.4532 1.10235 2.89296 1.80262 2.89296H9.20864C9.90891 2.89296 10.4766 3.4532 10.4766 4.1443C10.4766 4.83539 9.90891 5.39563 9.20864 5.39563H3.07058V16.9628H14.7913L14.7911 10.905C14.7911 10.2139 15.3587 9.65361 16.059 9.65359C16.7593 9.65357 17.327 10.2138 17.327 10.9049L17.3272 18.2141C17.3273 18.5459 17.1937 18.8642 16.9559 19.0989C16.7181 19.3336 16.3956 19.4654 16.0593 19.4654H1.80262C1.10235 19.4654 0.534668 18.9052 0.534668 18.2141V4.1443Z" fill="#387F6A"/>
</svg>
