<svg width="19" height="17" viewBox="0 0 19 17" fill="none" xmlns="http://www.w3.org/2000/svg">
<g clip-path="url(#clip0_11508_51482)">
<path d="M12.3985 6.24095C12.4323 6.05537 12.4526 5.86403 12.4526 5.66863V3.18139C12.4526 2.71043 12.0706 2.3279 11.5991 2.3279H11.0991V2.29667C11.0991 1.29444 10.284 0.479492 9.28192 0.479492H9.22425C8.22202 0.479492 7.40707 1.29457 7.40707 2.29667V2.3279H6.9075C6.43654 2.3279 6.05447 2.70997 6.05447 3.18139V5.66925C6.05447 5.86464 6.07469 6.05548 6.10856 6.24157L4.82598 10.5144C4.14192 10.703 3.63721 11.3232 3.63721 12.0665C3.63721 12.4745 3.79312 12.8431 4.04212 13.1275L3.81502 13.8834C3.72504 14.1838 3.81083 14.4931 4.01042 14.7073V15.7069C4.01042 15.8945 4.10291 15.9257 4.21622 15.7765L4.84417 14.9479C5.12284 14.8746 5.36037 14.6698 5.44865 14.3741L5.6742 13.6224C6.36246 13.4368 6.87134 12.8141 6.87134 12.0671C6.87134 11.6569 6.71327 11.2859 6.46115 11.0005L6.68359 10.2598C7.30841 10.6367 8.21133 10.8669 9.25305 10.8669C10.2937 10.8669 11.1971 10.6367 11.8219 10.2598L13.0559 14.3742C13.1453 14.67 13.3818 14.8753 13.661 14.948L14.2889 15.7766C14.4027 15.9258 14.4953 15.8951 14.4953 15.707V14.7074C14.6944 14.4932 14.7807 14.1839 14.6902 13.8835L12.3985 6.24095ZM5.25497 12.7652C4.86932 12.7652 4.55691 12.4523 4.55691 12.0665C4.55691 11.6818 4.86932 11.3689 5.25497 11.3689C5.64062 11.3689 5.95364 11.6818 5.95364 12.0665C5.95316 12.4527 5.64074 12.7652 5.25497 12.7652ZM8.26056 2.29684C8.26056 1.76511 8.6936 1.33256 9.22426 1.33256H9.28193C9.81366 1.33256 10.2462 1.76499 10.2462 2.29684V2.32807H8.26006L8.25994 2.29684H8.26056ZM9.25394 3.92748C10.0196 3.92748 10.6398 4.54765 10.6398 5.31331C10.6398 6.07897 10.0196 6.70009 9.25394 6.70009C8.48778 6.70009 7.86716 6.07897 7.86716 5.31331C7.86704 4.54765 8.48769 3.92748 9.25394 3.92748ZM9.25394 10.014C8.16545 10.014 7.3561 9.71925 6.94448 9.39379L7.27664 8.28603C7.30524 8.27203 7.32917 8.25588 7.35873 8.24236C7.88939 8.63374 8.54343 8.86816 9.25393 8.86816C9.96348 8.86816 10.6174 8.63376 11.1486 8.24236C11.1793 8.25588 11.2027 8.27203 11.2313 8.28603L11.5639 9.39379C11.1511 9.71913 10.3418 10.014 9.2539 10.014H9.25394Z" fill="#7F859E"/>
</g>
<defs>
<clipPath id="clip0_11508_51482">
<rect width="18.4" height="16" fill="white" transform="translate(0.51416 0.479492)"/>
</clipPath>
</defs>
</svg>
