<svg width="11" height="14" viewBox="0 0 11 14" fill="none" xmlns="http://www.w3.org/2000/svg">
<path d="M6.46758 1.34594L0.9007 6.95626C0.691256 7.16561 0.573242 7.38673 0.573242 7.64781L0.57802 7.73471C0.631982 8.21963 1.13468 8.57571 1.75193 8.57571L4.16633 8.57553L2.70296 11.7767C2.17398 12.9338 3.86928 13.655 4.79662 12.7198L10.3632 7.10924C10.5727 6.89989 10.6907 6.67885 10.6907 6.41778L10.6859 6.33088C10.6319 5.84595 10.1292 5.48988 9.5121 5.48988L7.09673 5.48944L8.561 2.28898C9.09008 1.13185 7.39492 0.410746 6.46758 1.34594ZM2.43946 7.292L6.36362 3.33696C6.39055 3.30979 6.43952 3.30548 6.47296 3.32729C6.49913 3.34427 6.5089 3.37294 6.49717 3.39836L5.03974 6.58599C5.02476 6.61862 5.04539 6.65495 5.08567 6.667C5.09436 6.66964 5.10348 6.67096 5.11271 6.67096L8.76392 6.67052C8.80692 6.67052 8.84177 6.69875 8.84177 6.73359C8.84177 6.74792 8.83569 6.76191 8.82462 6.77308L4.89989 10.729C4.87297 10.7562 4.824 10.7605 4.79045 10.7387C4.76439 10.7217 4.75462 10.693 4.76624 10.6676L6.22453 7.47977C6.2394 7.44705 6.21888 7.41081 6.1786 7.39867C6.16991 7.39612 6.16079 7.3948 6.15157 7.3948L2.50007 7.39462C2.45708 7.39462 2.42222 7.36639 2.42222 7.33156C2.42222 7.31722 2.42838 7.30317 2.43946 7.292Z" fill="#5F65B9"/>
</svg>
