<svg width="15" height="18" viewBox="0 0 15 18" fill="none" xmlns="http://www.w3.org/2000/svg">
<path fill-rule="evenodd" clip-rule="evenodd" d="M11.5402 15.8578C12.047 15.8578 12.4579 15.4469 12.4579 14.9401C12.4579 14.4333 12.047 14.0224 11.5402 14.0224C11.0334 14.0224 10.6225 14.4333 10.6225 14.9401C10.6225 15.4469 11.0334 15.8578 11.5402 15.8578ZM11.5402 17.6141C13.017 17.6141 14.2142 16.4169 14.2142 14.9401C14.2142 13.4633 13.017 12.2661 11.5402 12.2661C10.0634 12.2661 8.86621 13.4633 8.86621 14.9401C8.86621 16.4169 10.0634 17.6141 11.5402 17.6141Z" fill="#7F859E"/>
<path fill-rule="evenodd" clip-rule="evenodd" d="M10.3964 5.60331L5.2904 8.74917L4.36914 7.25391L9.47511 4.10805L10.3964 5.60331Z" fill="#7F859E"/>
<path fill-rule="evenodd" clip-rule="evenodd" d="M9.3874 14.3151L4.61277 11.4112L5.52539 9.91064L10.3 12.8145L9.3874 14.3151Z" fill="#7F859E"/>
<path fill-rule="evenodd" clip-rule="evenodd" d="M3.32583 10.1581C3.83265 10.1581 4.24352 9.7472 4.24352 9.24038C4.24352 8.73355 3.83265 8.32269 3.32583 8.32269C2.819 8.32269 2.40814 8.73355 2.40814 9.24038C2.40814 9.7472 2.819 10.1581 3.32583 10.1581ZM3.32583 11.9144C4.80262 11.9144 5.9998 10.7172 5.9998 9.24038C5.9998 7.76358 4.80262 6.56641 3.32583 6.56641C1.84903 6.56641 0.651855 7.76358 0.651855 9.24038C0.651855 10.7172 1.84903 11.9144 3.32583 11.9144Z" fill="#7F859E"/>
<path fill-rule="evenodd" clip-rule="evenodd" d="M11.674 4.45836C12.1808 4.45836 12.5917 4.0475 12.5917 3.54067C12.5917 3.03385 12.1808 2.62298 11.674 2.62298C11.1671 2.62298 10.7563 3.03385 10.7563 3.54067C10.7563 4.0475 11.1671 4.45836 11.674 4.45836ZM11.674 6.21464C13.1508 6.21464 14.3479 5.01747 14.3479 3.54067C14.3479 2.06388 13.1508 0.866699 11.674 0.866699C10.1972 0.866699 9 2.06388 9 3.54067C9 5.01747 10.1972 6.21464 11.674 6.21464Z" fill="#7F859E"/>
</svg>
