<svg width="23" height="21" viewBox="0 0 23 21" fill="none" xmlns="http://www.w3.org/2000/svg">
<path d="M5.37207 4.18201V17.8988C5.37207 18.4951 5.73911 18.9998 6.2895 19.1833C6.45014 19.2292 6.61062 19.275 6.77128 19.275C7.1612 19.275 7.55112 19.0914 7.80344 18.7932L11.6112 14.3666L15.3958 18.7707C15.7628 19.2294 16.3592 19.39 16.9326 19.1835C17.4832 18.9771 17.8501 18.4724 17.8501 17.899L17.8502 4.18218C17.8502 2.66825 16.6117 1.42969 15.0977 1.42969H8.12464C6.61087 1.42969 5.37215 2.66841 5.37215 4.18218L5.37207 4.18201ZM16.0152 4.18201V16.6602L12.6664 12.7836C12.414 12.4625 12.0241 12.279 11.6112 12.279C11.1984 12.279 10.8082 12.4625 10.5559 12.7608L7.20709 16.6602V4.18201C7.20709 3.67737 7.61989 3.26458 8.12452 3.26458H15.0747C15.6024 3.26458 16.0152 3.67754 16.0152 4.18201Z" fill="#7F859E"/>
</svg>
