<svg width="21" height="19" viewBox="0 0 21 19" fill="none" xmlns="http://www.w3.org/2000/svg">
<path fill-rule="evenodd" clip-rule="evenodd" d="M3.80939 17.2537L3.81287 17.2537H3.81291C3.81174 17.2537 3.81056 17.2537 3.80939 17.2537ZM17.9182 17.0512C19.2078 16.5836 20.1241 15.3571 20.1241 13.9108V4.39658C20.1241 2.54516 18.6224 1.05369 16.7583 1.05369L3.81291 1.05387C1.94878 1.05387 0.447078 2.54529 0.447078 4.39676V13.911C0.447078 15.53 1.59533 16.8736 3.13015 17.1854C1.59531 16.8736 0.447034 15.53 0.447034 13.911V4.39676C0.447034 2.54529 1.94874 1.05387 3.81287 1.05387L16.7582 1.05369C18.6224 1.05369 20.1241 2.54516 20.1241 4.39658V13.9108C20.1241 15.357 19.2078 16.5836 17.9182 17.0512ZM3.54455 17.5237V17.5141C1.6611 17.3783 0.178711 15.8248 0.178711 13.911V4.39676C0.178711 2.39286 1.80387 0.783873 3.81287 0.783871L16.7582 0.783691C18.7673 0.783691 20.3924 2.39273 20.3924 4.39658V13.9108C20.3924 15.9147 18.7672 17.5237 16.7582 17.5237H3.54455ZM2.00057 13.911L2.00047 13.9109C2.00047 13.9863 2.00501 14.0606 2.01384 14.1334C2.00507 14.0606 2.00059 13.9862 2.00057 13.911ZM7.13285 7.84937C7.47092 7.87516 7.79932 8.03224 8.03292 8.30519L14.1949 15.7109L14.1949 15.7109L8.03296 8.30519C7.79935 8.03222 7.47093 7.87515 7.13285 7.84937ZM6.42977 8.31817L2.26889 11.3488V13.9319C2.27997 14.7725 2.955 15.4409 3.81273 15.4409H13.6203L7.82959 8.48138L7.82844 8.48004C7.47625 8.0699 6.85913 7.99335 6.4337 8.31526L6.42977 8.31817ZM18.5706 13.911C18.5706 14.7092 18.0622 15.377 17.3456 15.6164C18.0622 15.377 18.5706 14.7092 18.5706 13.911V11.0824L18.5706 11.0824V13.911ZM15.5934 8.71669C15.4012 8.56604 15.1814 8.47425 14.957 8.4413C15.1814 8.47426 15.4012 8.56605 15.5934 8.71669L15.5934 8.71669ZM16.34 15.4409L12.22 10.4773L14.1307 8.92687L14.1327 8.92521C14.4968 8.62385 15.0308 8.61842 15.4285 8.92968L18.3022 11.2132V13.911C18.3022 14.7574 17.6296 15.4345 16.7706 15.4409H16.34ZM2.00066 9.28221L5.36645 6.83945C5.79752 6.52975 6.29033 6.35559 6.78963 6.31123C6.29035 6.35559 5.79755 6.52976 5.36649 6.83945L2.00066 9.28224V9.28221ZM10.8292 9.2566L10.8292 9.25662L12.9782 7.53377C13.3714 7.2194 13.818 7.02148 14.2784 6.93873C13.818 7.02148 13.3714 7.21939 12.9781 7.53377L10.8292 9.2566ZM18.5706 9.10236H18.5706V4.39667C18.5706 3.58526 18.0452 2.90856 17.3098 2.67976C18.0452 2.90857 18.5706 3.58527 18.5706 4.39667V9.10236ZM16.945 2.60592C16.8837 2.59984 16.8214 2.59672 16.7583 2.59672L16.7583 2.59672C16.8214 2.59672 16.8837 2.59984 16.945 2.60592ZM2.26894 4.39656C2.26894 3.55241 2.93807 2.87665 3.79381 2.86672H16.7583C17.6231 2.86672 18.3022 3.54625 18.3022 4.39667V8.54736L16.7167 7.29569L16.7148 7.29424C15.5564 6.39622 13.9699 6.39615 12.8109 7.3226L10.8684 8.87994L9.45714 7.15637L9.45622 7.15525C8.40676 5.88757 6.53958 5.66488 5.21053 6.6197L2.26894 8.7546V4.39656Z" fill="#545859"/>
</svg>
