<svg width="14" height="15" viewBox="0 0 14 15" fill="none" xmlns="http://www.w3.org/2000/svg">
<path fill-rule="evenodd" clip-rule="evenodd" d="M7.60439 3.06952L9.22333 4.64334C9.56206 4.97262 10.102 4.97008 10.4375 4.63761C10.782 4.29626 10.7793 3.73863 10.4315 3.40054L8.12099 1.15444C7.33934 0.394582 6.09328 0.400457 5.31911 1.16765L3.0307 3.43542C2.68623 3.77678 2.68896 4.3344 3.03675 4.6725C3.37548 5.00179 3.91546 4.99924 4.25095 4.66677L5.85441 3.07777L5.87704 9.0611C5.87887 9.5449 6.27283 9.93553 6.75662 9.93324C7.23941 9.93097 7.62913 9.53821 7.62764 9.05541L7.61736 5.71976L7.60439 3.06952ZM0 10.1539V12.4318C0 13.5364 0.895431 14.4318 2 14.4318H12C13.1046 14.4318 14 13.5364 14 12.4318V10.1539C14 9.67062 13.6082 9.27887 13.125 9.27887C12.6418 9.27887 12.25 9.67062 12.25 10.1539V12.7142H1.75V10.1539C1.75 9.67062 1.35825 9.27887 0.874999 9.27887C0.39175 9.27887 0 9.67062 0 10.1539Z" fill="#387F6A"/>
</svg>
