<svg width="21" height="21" viewBox="0 0 21 21" fill="none" xmlns="http://www.w3.org/2000/svg">
<path d="M19.2642 17.1831C19.2642 18.5638 18.1449 19.6831 16.7642 19.6831C15.3834 19.6831 14.2642 18.5638 14.2642 17.1831V5.93311C14.2642 4.55239 15.3834 3.43311 16.7642 3.43311C18.1449 3.43311 19.2642 4.55239 19.2642 5.93311V17.1831ZM15.5142 17.1831C15.5142 17.8735 16.0738 18.4331 16.7642 18.4331C17.4545 18.4331 18.0142 17.8735 18.0142 17.1831V5.9331C18.0142 5.24275 17.4545 4.68311 16.7642 4.68311C16.0738 4.68311 15.5142 5.24275 15.5142 5.93311V17.1831ZM13.0142 17.1831C13.0142 18.5638 11.8949 19.6831 10.5142 19.6831C9.13345 19.6831 8.01416 18.5638 8.01416 17.1831V10.9331C8.01416 9.55239 9.13345 8.43311 10.5142 8.43311C11.8949 8.43311 13.0142 9.55239 13.0142 10.9331V17.1831ZM6.76416 17.1831C6.76416 18.5638 5.64487 19.6831 4.26416 19.6831C2.88345 19.6831 1.76416 18.5638 1.76416 17.1831V14.6831C1.76416 13.3024 2.88345 12.1831 4.26416 12.1831C5.64487 12.1831 6.76416 13.3024 6.76416 14.6831V17.1831Z" fill="#7F859E"/>
</svg>
