<svg width="17" height="15" viewBox="0 0 17 15" fill="none" xmlns="http://www.w3.org/2000/svg">
<g clip-path="url(#clip0_11900_3555)">
<path d="M8.9286 6.91895C5.31177 6.91895 2.35254 9.87817 2.35254 13.495V14.1526H15.5047V13.495C15.5047 9.87817 12.5454 6.91895 8.9286 6.91895ZM3.73351 12.8374C4.06231 10.2727 6.29818 8.23416 8.9286 8.23416C11.6248 8.23416 13.7949 10.2727 14.1237 12.8374H3.73351Z" fill="#387F6A"/>
<path d="M8.92828 6.26134C10.375 6.26134 11.5587 5.07765 11.5587 3.63091C11.5587 2.18418 10.375 1.00049 8.92828 1.00049C7.48154 1.00049 6.29785 2.18418 6.29785 3.63091C6.29785 5.07765 7.48154 6.26134 8.92828 6.26134ZM8.92828 2.3157C9.65164 2.3157 10.2435 2.90755 10.2435 3.63091C10.2435 4.35428 9.65164 4.94613 8.92828 4.94613C8.20491 4.94613 7.61306 4.35428 7.61306 3.63091C7.61306 2.90755 8.20491 2.3157 8.92828 2.3157Z" fill="#387F6A"/>
</g>
<defs>
<clipPath id="clip0_11900_3555">
<rect width="16.1" height="14" fill="white" transform="translate(0.878906 0.57666)"/>
</clipPath>
</defs>
</svg>
