<svg width="11" height="15" viewBox="0 0 11 15" fill="none" xmlns="http://www.w3.org/2000/svg">
<path fill-rule="evenodd" clip-rule="evenodd" d="M0.630981 5.23367C0.630981 2.47637 2.82268 0.284668 5.57998 0.284668C8.33728 0.284668 10.529 2.47637 10.529 5.16297C10.529 7.43824 7.36504 11.917 6.39089 13.2959C6.27532 13.4595 6.19057 13.5795 6.14558 13.647L5.57998 14.4247L5.01438 13.7177C4.97171 13.6537 4.89328 13.5417 4.7867 13.3896C3.83375 12.0298 0.630981 7.45927 0.630981 5.23367ZM2.04498 5.23367C2.04498 6.57697 4.02458 9.82917 5.57998 12.0209C7.13538 9.82917 9.11498 6.57697 9.11498 5.23367C9.11498 3.25407 7.55958 1.69867 5.57998 1.69867C3.60038 1.69867 2.04498 3.25407 2.04498 5.23367ZM3.45894 5.23367C3.45894 4.03177 4.37804 3.11267 5.57994 3.11267C6.78184 3.11267 7.70094 4.03177 7.70094 5.23367C7.70094 6.43557 6.78184 7.35467 5.57994 7.35467C4.37804 7.35467 3.45894 6.43557 3.45894 5.23367ZM4.87294 5.23367C4.87294 5.58717 5.15574 5.94067 5.57994 5.94067C6.00414 5.94067 6.28694 5.58717 6.28694 5.23367C6.28694 4.80947 6.00414 4.52667 5.57994 4.52667C5.15574 4.52667 4.87294 4.80947 4.87294 5.23367Z" fill="#959BB4"/>
</svg>
