<svg width="32" height="34" viewBox="0 0 32 34" fill="none" xmlns="http://www.w3.org/2000/svg">
<path d="M7.30883 10.1834C5.94974 12.0476 5.23286 14.2532 5.23585 16.5623C5.23585 16.9378 5.53754 17.2408 5.90793 17.2393C6.27831 17.2393 6.57851 16.9348 6.57851 16.5593C6.57552 14.5429 7.2013 12.6167 8.39012 10.9891C11.4249 6.82918 17.2436 5.94072 21.3582 9.00819C25.4743 12.0771 26.3525 17.9578 23.3162 22.1192C20.2814 26.2791 14.4627 27.1676 10.3481 24.1001C8.7874 22.9367 7.64337 21.3387 7.04149 19.4834C6.92649 19.1271 6.54714 18.9335 6.19468 19.0503C5.84221 19.167 5.65104 19.5499 5.76604 19.9062C6.45604 22.032 7.76435 23.8606 9.55058 25.1926C14.2611 28.705 20.9221 27.6879 24.396 22.9263C27.8714 18.1633 26.8647 11.4311 22.1542 7.91721C17.4437 4.40477 10.7827 5.42184 7.30883 10.1834Z" fill="#FCB416"/>
<path d="M26.2195 26.9934C28.4478 24.733 29.8681 21.874 30.3266 18.7252C30.4013 18.2138 30.0518 17.7392 29.547 17.6638C29.0407 17.5884 28.5717 17.9417 28.4971 18.4518C28.0953 21.2014 26.8542 23.6982 24.9082 25.6732C19.9348 30.7201 11.8266 30.7364 6.83381 25.7087C1.84104 20.681 1.8261 12.4839 6.79946 7.4355C11.7728 2.3886 19.881 2.37234 24.8738 7.40002C26.7676 9.30702 28.0057 11.7181 28.4522 14.3731C28.5374 14.8817 29.0153 15.2246 29.5201 15.1374C30.0234 15.0502 30.3624 14.5683 30.2773 14.0583C29.765 11.0189 28.3492 8.25743 26.1806 6.07399C20.4635 0.318982 11.1814 0.336721 5.48817 6.11538C-0.20506 11.894 -0.187138 21.2768 5.52849 27.0333C11.2441 32.7898 20.5262 32.7705 26.2195 26.9934Z" fill="white"/>
<g opacity="0.89">
<path d="M22.3348 21.1861L21.4462 19.8054L12.6435 19.8113L16.9358 14.5234H15.0614L9.62061 21.1861L9.62359 21.1846L9.62061 21.1861H22.3348Z" fill="white"/>
<path d="M9.35498 11.9662L10.3302 13.347L19.4511 13.2982L15.1423 18.6082L16.9987 18.6097L22.4739 11.9219L9.35498 11.9662Z" fill="#FCB416"/>
</g>
</svg>
