<svg width="31" height="27" viewBox="0 0 31 27" fill="none" xmlns="http://www.w3.org/2000/svg">
<path d="M17.2362 18.7353C15.9168 18.7353 15.1678 17.2247 15.9666 16.1745L24.3078 5.20803H9.92451C9.06847 5.20803 8.37451 4.51408 8.37451 3.65803C8.37451 2.80199 9.06847 2.10803 9.92451 2.10803H27.5831C28.2601 2.10803 28.809 2.65689 28.809 3.33394V3.88567C28.809 4.32304 28.6656 4.74834 28.4009 5.09645L18.5058 18.1059C18.2042 18.5025 17.7345 18.7353 17.2362 18.7353Z" fill="#387F6A"/>
<path d="M22.4474 21.3803C23.3035 21.3803 23.9974 22.0743 23.9974 22.9303C23.9974 23.7864 23.3035 24.4803 22.4474 24.4803H4.87325C3.86052 24.4803 3.03955 23.6593 3.03955 22.6466C3.03955 22.2456 3.171 21.8557 3.41375 21.5365L13.3427 8.48248C13.6444 8.08588 14.1141 7.85303 14.6123 7.85303C15.9318 7.85303 16.6807 9.36365 15.8819 10.4138L7.54075 21.3803H22.4474Z" fill="#387F6A"/>
</svg>
