<svg width="23" height="21" viewBox="0 0 23 21" fill="none" xmlns="http://www.w3.org/2000/svg">
<g clip-path="url(#clip0_11535_12414)">
<path fill-rule="evenodd" clip-rule="evenodd" d="M1.67822 3.26494C1.67822 1.49763 3.11091 0.0649414 4.87822 0.0649414H18.0218C19.7891 0.0649414 21.2218 1.49763 21.2218 3.26494V16.7021C21.2218 18.4694 19.7891 19.9021 18.0218 19.9021H4.87822C3.11091 19.9021 1.67822 18.4694 1.67822 16.7021V3.26494ZM4.87822 2.46494C4.4364 2.46494 4.07822 2.82311 4.07822 3.26494V16.7021C4.07822 17.1439 4.43639 17.5021 4.87822 17.5021H18.0218C18.4636 17.5021 18.8218 17.1439 18.8218 16.7021V3.26494C18.8218 2.82311 18.4636 2.46494 18.0218 2.46494H4.87822Z" fill="#545859"/>
<path d="M15.1553 10.1176L8.93003 13.7118L8.93003 6.52346L15.1553 10.1176Z" stroke="#545859" stroke-width="2"/>
</g>
<defs>
<clipPath id="clip0_11535_12414">
<rect width="23" height="20" fill="white" transform="translate(0 0.153687)"/>
</clipPath>
</defs>
</svg>
