<svg width="19" height="17" viewBox="0 0 19 17" fill="none" xmlns="http://www.w3.org/2000/svg">
<g clip-path="url(#clip0_4943_1425)">
<path d="M11.996 6.06558C12.0291 5.88356 12.0491 5.69589 12.0491 5.50424V3.06472C12.0491 2.6028 11.6744 2.22762 11.212 2.22762H10.7215V2.19699C10.7215 1.21399 9.92211 0.414673 8.93923 0.414673H8.88267C7.89967 0.414673 7.10035 1.21411 7.10035 2.19699V2.22762H6.61037C6.14845 2.22762 5.77371 2.60235 5.77371 3.06472V5.50484C5.77371 5.69649 5.79355 5.88366 5.82676 6.06618L4.5688 10.257C3.89786 10.4421 3.40283 11.0503 3.40283 11.7794C3.40283 12.1795 3.55575 12.541 3.79998 12.82L3.57723 13.5613C3.48898 13.856 3.57313 14.1594 3.76888 14.3694V15.3499C3.76888 15.5339 3.8596 15.5645 3.97074 15.4182L4.58663 14.6055C4.85996 14.5335 5.09293 14.3327 5.17951 14.0426L5.40074 13.3054C6.07579 13.1234 6.5749 12.5126 6.5749 11.78C6.5749 11.3776 6.41987 11.0137 6.17259 10.7338L6.39076 10.0073C7.00359 10.377 7.88919 10.6027 8.91091 10.6027C9.93159 10.6027 10.8176 10.3769 11.4305 10.0073L12.6408 14.0427C12.7284 14.3328 12.9605 14.5342 13.2343 14.6056L13.8502 15.4183C13.9618 15.5646 14.0526 15.5345 14.0526 15.35V14.3696C14.2479 14.1595 14.3325 13.8561 14.2438 13.5615L11.996 6.06558ZM4.98955 12.4646C4.6113 12.4646 4.30488 12.1577 4.30488 11.7793C4.30488 11.402 4.6113 11.0951 4.98955 11.0951C5.3678 11.0951 5.67482 11.402 5.67482 11.7793C5.67435 12.1581 5.36792 12.4646 4.98955 12.4646ZM7.93747 2.19715C7.93747 1.67562 8.3622 1.25138 8.88267 1.25138H8.93924C9.46077 1.25138 9.88501 1.6755 9.88501 2.19715V2.22778H7.93698L7.93686 2.19715H7.93747ZM8.91178 3.7965C9.66276 3.7965 10.271 4.40476 10.271 5.15574C10.271 5.90671 9.66276 6.5159 8.91178 6.5159C8.16033 6.5159 7.55162 5.90671 7.55162 5.15574C7.5515 4.40476 8.16024 3.7965 8.91178 3.7965ZM8.91178 9.76618C7.84418 9.76618 7.05037 9.47713 6.64664 9.15792L6.97243 8.07142C7.00048 8.05769 7.02395 8.04184 7.05294 8.02858C7.57342 8.41245 8.21491 8.64237 8.91178 8.64237C9.60771 8.64237 10.2491 8.41247 10.7701 8.02858C10.8002 8.04184 10.8232 8.05768 10.8512 8.07142L11.1775 9.15792C10.7726 9.47701 9.97878 9.76618 8.91175 9.76618H8.91178Z" fill="#387F6A"/>
</g>
<defs>
<clipPath id="clip0_4943_1425">
<rect width="18.0469" height="15.693" fill="white" transform="translate(0.339844 0.414673)"/>
</clipPath>
</defs>
</svg>
