<svg width="21" height="18" viewBox="0 0 21 18" fill="none" xmlns="http://www.w3.org/2000/svg">
<path fill-rule="evenodd" clip-rule="evenodd" d="M15.9626 8.85668C15.9626 11.8343 13.5487 14.2482 10.571 14.2482C7.59337 14.2482 5.17949 11.8343 5.17949 8.85668C5.17949 5.87901 7.59337 3.46514 10.571 3.46514C13.5487 3.46514 15.9626 5.87901 15.9626 8.85668ZM17.6626 8.85668C17.6626 12.7732 14.4876 15.9482 10.571 15.9482C6.65448 15.9482 3.47949 12.7732 3.47949 8.85668C3.47949 4.94013 6.65448 1.76514 10.571 1.76514C14.4876 1.76514 17.6626 4.94013 17.6626 8.85668ZM11.4314 4.5516C11.4314 4.08216 11.0508 3.7016 10.5814 3.7016C10.1119 3.7016 9.73138 4.08216 9.73138 4.5516V9.31521L13.7041 11.8822C14.0984 12.137 14.6246 12.0239 14.8793 11.6296C15.1341 11.2353 15.021 10.7091 14.6267 10.4543L11.4314 8.38966V4.5516Z" fill="#387F6A"/>
</svg>
