<svg width="15" height="15" viewBox="0 0 15 15" fill="none" xmlns="http://www.w3.org/2000/svg">
<path fill-rule="evenodd" clip-rule="evenodd" d="M13.7459 1.26899C14.0946 1.60901 14.0979 2.16361 13.7534 2.50772L7.50133 8.75187C7.15679 9.09598 6.59482 9.09929 6.24614 8.75926C5.89746 8.41923 5.89411 7.86463 6.23865 7.52052L12.4907 1.27637C12.8352 0.932266 13.3972 0.928958 13.7459 1.26899Z" fill="white"/>
<path fill-rule="evenodd" clip-rule="evenodd" d="M8.57715 1.6816C8.57715 1.19783 8.97453 0.805664 9.46472 0.805664H13.2379C13.728 0.805664 14.1254 1.19783 14.1254 1.6816V5.38044C14.1254 5.8642 13.728 6.25637 13.2379 6.25637C12.7477 6.25637 12.3503 5.8642 12.3503 5.38044V2.55754H9.46472C8.97453 2.55754 8.57715 2.16537 8.57715 1.6816Z" fill="white"/>
<path fill-rule="evenodd" clip-rule="evenodd" d="M0.874023 3.33248C0.874023 2.84871 1.2714 2.45654 1.76159 2.45654H6.9458C7.43599 2.45654 7.83337 2.84871 7.83337 3.33248C7.83337 3.81624 7.43599 4.20841 6.9458 4.20841H2.64916V12.3054H10.8537L10.8535 8.06495C10.8535 7.58118 11.2509 7.189 11.7411 7.18898C12.2313 7.18897 12.6286 7.58113 12.6287 8.06489L12.6288 13.1813C12.6288 13.4136 12.5353 13.6364 12.3689 13.8007C12.2024 13.965 11.9767 14.0573 11.7413 14.0573H1.76159C1.2714 14.0573 0.874023 13.6651 0.874023 13.1813V3.33248Z" fill="white"/>
</svg>
