<svg xmlns="http://www.w3.org/2000/svg" width="675" height="171" fill="none" xmlns:v="https://vecta.io/nano"><style><![CDATA[.B{fill:#1a6650}.C{fill-rule:evenodd}]]></style><g opacity=".6" clip-path="url(#A)" class="B C"><path d="M124.647 17.423l3.918.275c.836.018 1.671-.151 2.506-.222 2.791-.231 5.883.249 8.268-.871 2.739-1.297 5.374-.684 8.01-1.075 3.014-.444 5.848.8 8.655 1.937 6.95 2.799 9.508 8.822 10.585 15.637 1.817 11.434 3.238 22.931 4.874 34.392l3.454 23.535c.155 1.075.586 2.559-1.671 2.372l-1.92-11.434-1.8-13.62c-.457-3.287-1.422-6.566-1.43-9.853-.009-3.607-1.74-6.814-1.318-10.626.362-3.323-1.266-6.868-1.886-10.333-.25-1.413-.258-2.896-.224-4.336.078-2.923-1.343-5.402-2.773-7.543-1.697-2.55-4.031-4.851-6.545-6.53-1.594-1.066-4.014-.942-6.081-1.093-1.231-.098-2.497.373-3.746.418-.336.009-.698-.631-.672-.604-1.128.373-1.946.782-2.807.915-2.128.329-4.264.604-6.408.755-.999.062-2.015-.311-3.023-.338-.388-.009-.758.542-1.163.604l-19.601 2.95c-1.37.213-2.713.888-4.057.862-2.179-.044-4.271.489-6.399.657-.258.018-.56-.515-.654-.613-.534.311-.974.746-1.464.835-4.754.809-9.508 1.706-14.288 2.283-3.531.426-7.122.284-10.662.675-2.455.275-4.84 1.111-7.286 1.528l-13.341 2.15c-2.368.453-2.119-1.537-2.816-2.506l13.056-2.257c2.024-.302 4.108-.195 6.175-.258.198-.009.431.133.611.089 1.275-.338 2.532-.88 3.824-1.013 1.567-.16 3.169.044 4.763.036.319 0 .62-.338.947-.4 2.17-.409 4.341-.835 6.537-1.102.319-.035.732.791 1.43 1.599l.491-2.026c.327-1.439 3.316 1.448 2.842-1.928.138-.018.284-.036.431-.062.301.391.577 1.093.887 1.111a26.04 26.04 0 0 0 4.16-.151c2.274-.267 4.522-.702 6.787-.968 3.006-.346 6.123-.231 9.017-1.013 1.757-.48 2.506-.524 3.204 1.297v-2.115l8.104-1.137c.207-.035.336-.569.5-.88v-.009zM11.704 32.145c-.129 1.102.224 1.786 1.421 1.493l3.97-1.111c1.094-.222 2.239-.195 3.35-.32l8.225-.906c.706-.062 1.447.302 2.205.48a379.62 379.62 0 0 0-.078-1.35l4.341.746.336.48c.026.96-.034 1.653-1.326 1.75-4.117.302-8.216.737-12.324 1.199-1.455.16-2.876.604-4.332.8-.723.098-1.473-.08-2.472-.16-1.585.844-3.54 1.759-5.366 2.879-5.047 3.101-7.562 7.73-7.054 13.78.379 4.496 1.206 8.947 1.791 13.425.181 1.386.327 2.79.319 4.194 0 .4-.62 1.173-.853 1.137-.508-.089-1.292-.533-1.361-.933-.766-4.682-1.43-9.373-2.093-14.073-.146-1.031-.034-2.097-.233-3.101-.586-2.843.293-5.419.956-8.12.543-2.23 1.49-4.043 3.083-5.464 1.895-1.688 4.022-3.092 5.951-4.736.543-.462.741-1.35 1.102-2.035l.431-.062.009.009zm63.215 108.72c.069 2.496-1.395 2.754-2.704 2.967l-6.942.844-8.173.8-8.113 1.43c-6.209.924-12.41 1.946-18.646 2.603-6.459.675-11.799-1.368-15.941-6.992-3.411-4.629-3.686-9.888-4.547-15.397l1.602.213c.034-.195.112-.444.086-.453-2.3-1.137-1.998-3.58-2.334-5.508-.87-4.966-1.464-9.986-2.041-14.997-.336-2.905-.301-5.846-.646-8.751-.327-2.656-1.016-5.269-1.412-7.916-.215-1.439-.086-2.923-.215-4.371-.069-.711-.448-1.386-.551-2.097-.379-2.639-.741-5.286-.982-7.943-.034-.355.698-.773 1.068-1.164.37.444.99.844 1.059 1.341l1.826 12.518 2.739 20.896 2.489 22.443c.68 7.845 5.822 14.366 13.34 15.796 2.394.453 4.995-.035 7.476-.355l17.957-2.586 17.983-2.23c1.843-.239 3.652-.684 5.624-1.066v-.026zm1.094 2.434c-1.361-2.248.034-2.586 1.223-2.781 3.428-.56 6.873-1.004 10.318-1.484l16.777-2.354c2.265-.293 4.573-.258 6.838-.551 2.3-.293 4.556-.862 6.847-1.226l8.81-1.279c3.79-.569 7.553-1.377 11.36-1.671 2.033-.16 4.091-1.519 6.218-.151.241.151.887-.506 1.378-.595 2.248-.417 4.505-.773 6.77-1.128l10.102-1.502c7.165-.879 11.273-5.286 12.677-12.163.922-4.531-.069-9.053-.939-13.54-.335-1.732-.318-3.536-.456-5.25 1.567-.773 2.334-.098 2.498 1.342l1.498 14.002c.353 3.376-.491 6.441-2.36 9.205-.844 1.252-1.679 2.532-2.687 3.642-2.446 2.71-5.348 4.291-9.112 4.478-3.031.151-6.002 1.235-9.034 1.67-4.341.622-8.724.969-13.065 1.564-1.817.249-3.574.888-5.383 1.27-1.162.24-2.351.356-3.531.498l-19.894 2.496c-.913.116-1.852.107-2.765.258l-8.095 1.359-8.966 1.271-10.989 1.599c-1.283.196-2.558.578-3.841.649-.775.044-1.516-1.973-2.17.382l-.026-.009zm61.449-95.66l-8.216 1.519-19.361 2.55-16.475 2.266c-1.352.204-1.912.08-2.101-1.501L88.44 31.861c-.327-2.043.611-2.47 2.084-2.63.164-.018.672.906.551 1.137-.189.373-.775.524-.887.595l2.343 18.382c.327 2.514 1.3 3.172 3.66 2.816 3.299-.498 6.632-.817 9.939-1.279 2.076-.284 4.134-.702 6.201-1.04 3.436-.569 6.864-1.235 10.317-1.661 4.333-.542 8.682-.88 13.022-1.288.586-.053 1.18.018 1.775.036 0 .24.017.471.025.711h-.008zm-106.32 76.94c-1.938-2.31-1.421-4.024 1.068-4.504 3.729-.711 7.493-1.226 11.248-1.768 2.11-.302 2.842 1.253 3.083 2.923.741 5.055 1.326 10.137 1.955 15.219.12.933.448 2.008.138 2.79-.336.87-1.206 1.945-1.998 2.114-3.126.631-6.321.951-9.482 1.377-.431.063-.87.027-1.292.116-3.066.631-3.884.035-4.211-3.199-.043-.39.327-.826.508-1.234.422.328 1.223.693 1.197.977-.267 2.745 1.412 2.159 2.937 1.946l11.265-1.529-.844-6.663-1.232-10.075c-.336-2.816-.698-3.225-3.462-2.985-3.281.284-6.554.675-9.801 1.208-.5.08-.947 1.128-1.223 1.813-.155.408.086.977.155 1.474h-.009zM18.267 43.384l7.079 12.785c-1.378 1.262-2.231.32-2.566-.693-.672-2.035-2.188-1.564-3.54-1.519a5.14 5.14 0 0 0-2.334.648c-.456.267-.629 1.022-.973 1.528l-1.498 1.955c-.155-.737-.577-1.546-.431-2.212.723-3.341 1.567-6.663 2.437-9.968.215-.808.672-1.546 1.016-2.319l.81-.204zm2.429 8.556l-2.282-4.638-1.421 4.94 3.703-.311v.009zm106.853-14.527l1.24-.773-1.628-.782c.336-.311.552-.658.724-.64.293.036.715.24.818.48.835 2.017 2.093 2.994 4.272 2.106.413-.169.895-.142 1.533.267l-1.835 1.013 5.9 5.499-.293.462-8.397-1.741-6.761-1.546c-1.042-.275-1.998-1.075-3.031-1.182-1.318-.142-2.687.213-4.04.266-.499.018-1.024-.178-1.507-.364-.103-.044-.094-.746-.034-.764.448-.142.99-.373 1.369-.222 1.714.702 2.851-.622 4.203-1.146.31-.124.56-.56.853-.578.628-.036 1.266.116 1.903.187l-1.128 1.786 14.27 3.687c.061-.071.13-.133.199-.195l-8.639-5.837.009.018zM96.553 81.516c-.034-2.114-.241-4.247-.017-6.326.069-.675 1.283-1.733 1.929-1.706.99.044 2.635.702 2.808 1.404.852 3.518 1.498 7.117 1.825 10.724.155 1.688-1.257 2.745-2.971 2.861-1.714.107-2.437-.933-2.601-2.577-.146-1.475-.37-2.941-.551-4.416a6.3 6.3 0 0 0-.422.035zm4.22-2.799c.121-.018.241-.044.362-.062-.181-.711-.198-1.537-.577-2.115-.422-.631-1.171-1.022-1.783-1.519-.353.711-.982 1.413-1.008 2.132-.043 1.617.198 3.243.362 4.869.112 1.102.095 2.283.517 3.261.276.648 1.214.995 1.852 1.475.353-.649 1.024-1.306.999-1.928-.104-2.043-.465-4.069-.724-6.112zM50.994 93.723c2.429-.551 3.439-1.863 3.032-3.936-1.43-.435-3.41-.453-3.867-1.315-.87-1.67-1.214-3.847-1.102-5.766.052-.888 1.593-2.15 2.644-2.381 1.688-.382 2.859.933 3.152 2.621l1.266 9.222c.181 1.661-.784 2.71-2.274 3.047-1.137.249-2.523.551-2.859-1.493h.009zm-1.128-8.334c.99.995 1.766 2.408 2.515 2.39 1.705-.044 1.654-1.768 1.533-3.065-.129-1.421-.637-3.11-2.317-2.754-.689.151-1.042 1.99-1.722 3.429h-.009zm-19.688 54.587l-8.337-6.255c-.301-.239-.189-1.572.164-2.061 1.49-2.034 3.118-3.989 4.78-5.872.301-.347 1.042-.285 1.585-.409-.112.586-.026 1.43-.37 1.706-2.11 1.723-2.713 3.571-1.783 6.379.655 1.963 2.317 2.345 3.367 3.589l1.507 1.99-.913.933zM44.44 87.478c.164 2.132.586 4.291.396 6.388-.095 1.066-1.128 2.239-2.041 2.932-.353.267-1.886-.453-2.325-1.119-2.506-3.731-2.515-8.005-1.964-12.261.215-1.67 3.221-2.212 4.134-.782.904 1.422 1.456 3.083 2.162 4.647-.121.062-.233.133-.353.195h-.009zm-3.712 7.694c2.756-.355 3.195-.746 2.954-2.968-.276-2.496-.715-4.984-1.292-7.418-.138-.578-1.102-.942-1.679-1.404-.405.675-1.206 1.386-1.154 2.026.267 3.216.749 6.415 1.18 9.773l-.009-.009zm29.265-9.338c-.198 2.07-.233 4.167-.672 6.175-.138.622-1.395 1.413-2.076 1.359-.835-.08-2.153-.844-2.299-1.528a110.46 110.46 0 0 1-1.636-10.901c-.121-1.235.5-2.488 2.101-2.568 1.49-.08 2.782.311 3.187 1.972.439 1.786.706 3.616 1.042 5.42l.344.071h.009zm-1.809-2.39c-.198-.906-.224-1.777-.594-2.461-.258-.489-1.068-1.066-1.464-.959-.568.151-1.43.942-1.395 1.386l1.197 8.92c.103.56.999.968 1.524 1.448.388-.684 1.094-1.377 1.102-2.061.017-2.123-.233-4.247-.379-6.272h.009zm17.526.693l-.129-6.184c.043-.604.947-1.519 1.55-1.617.853-.133 2.489.187 2.592.613.879 3.705 1.636 7.454 2.093 11.239.146 1.155-.741 2.319-2.411 2.195-1.533-.116-2.67-.515-2.902-2.274l-.508-3.98a3.23 3.23 0 0 0-.293.018l.009-.009zm1.421-1.155h.078c.207 1.599.284 3.234.68 4.789.146.56 1.051.906 1.602 1.341.396-.648 1.163-1.333 1.12-1.955a77.79 77.79 0 0 0-.922-8.12c-.103-.595-.999-1.057-1.524-1.581-.491.675-1.309 1.306-1.395 2.026-.138 1.137.224 2.328.37 3.501h-.009z"/><path d="M35.483 31.656l-.336-.48c1.456-.506 2.971-1.555 4.358-1.404 2.532.284 4.944-.977 7.527-.284.551.151 1.766-.435 2.67.071.543.302 1.008.755 1.507 1.137l-.284.506-8.785 1.191c-1.611.213-3.221.569-4.823.56-.611 0-1.223-.835-1.834-1.297zm40.676 83.568c1.12 1.883.637 6.948-.637 8.636l-1.654-3.234-.525.026-.827 3.661c-1.361-.889-3.428-6.264-2.739-7.748l1.826 3.528.965-3.785.525-.133 2.058 3.687 1.016-4.638h-.009zm79.173-71.582c.302-2.781-1.3-5.268-.448-7.801l.672-.062 1.189 9.329-15.864 2.15a13.84 13.84 0 0 1-.431-.329c.569-.498 1.103-1.368 1.723-1.439 3.557-.427 7.139-.613 10.713-.986.819-.08 1.602-.551 2.446-.862zm-33.097 73.457l-2.153-3.741-.801 4.238-.715.116-2.945-7.339.568-.32 2.016 3.119.439-.098.146-3.252c2.481-.631 1.619 2.399 3.325 3.012l.387-3.616.672.062c1.395 2.657-1.533 5.073-.345 7.712l-.594.107zm-1.188-46.653c1.851 3.216-.758 6.779 1.085 9.897l.672.062.654-4.38 2.239 4.967-1.102 4.193-1.456-3.438c-2.781.293-3.384-.444-2.988-3.261l.896-8.041zm-94.719 60.69l9.56-1.279c.551-.071 1.197-.169 1.662.053.5.231.835.826 1.24 1.271-.396.355-.775.986-1.188 1.021-1.783.116-3.583.054-5.374.054-.207 0-.491-.054-.612.062-1.921 1.803-3.574.782-5.297-1.173l.009-.009zm107.405-47.887l1.541-14.117-3.918 1.937c-.044-.329-.293-1.546-.19-1.581 1.645-.542 3.333-.924 5.598-1.501-1.094 5.526-.525 10.617-2.127 15.37l-.913-.115.009.009zM90.74 117.534l.017-3.385c1.774 2.23 1.292 4.913 1.214 7.721l-2.859-3.51-.491 3.696h-.56l-1.068-8.413 3.746 3.909v-.018zM75.22 79.082c-1.654-.622-2.851-.551-3.686 1.448-.233-.675-.775-1.457-.594-1.99.164-.506 1.051-.888 1.688-1.057.749-.204 1.645-.338 2.343-.107.586.195 1.447 1.031 1.395 1.501-.456 4.336-1.085 8.654-1.679 12.971-.017.089-.215.151-1.034.711L75.22 79.09v-.009zM140.743 32.9c-.577-1.466.586-1.546 1.344-1.484 2.325.195 3.686-1.013 4.624-2.994 1.034-2.195 2.532-3.5 5.357-2.772l-.473 4.931-.853-.062-.129-3.714-.56-.444c-.922.986-2.377 1.821-2.678 2.967-1.008 3.936-3.721 3.838-6.666 3.527l.034.053V32.9zm8.328 80.672c-1.946-2.071-3.281-1.813-4.694.604l-.628-.062 1.3-8.272c1.697.862 3.669 4.593 4.022 7.73zm1.559-79.712c1.232 1.102 1.223 1.955-.103 2.399-1.06.355-2.222.418-3.342.56l-11.222 1.368c-.215.027-.448-.169-.723-.853l6.071-1.235 8.329-.773c.327-.035.568-.817.99-1.484v.018zm-34.131 93.011c-.181-1.039-.482-2.07-.517-3.118-.025-.817.044-1.848.509-2.399.31-.373 1.593-.364 2.058 0 .629.498.999 1.448 1.3 2.275.242.648.285 1.403.276 2.114-.017.906-.052 1.848-.362 2.674-.103.267-1.137.418-1.61.24-.749-.275-1.387-.879-2.076-1.341l.431-.427-.009-.018zm.879-4.468l-.043 4.371c.017.373.232.835.508 1.066.181.151.818.062.93-.125.224-.382.396-.932.319-1.368-.224-1.261-.577-2.505-.939-3.998l-.784.045.009.009zm11.816-92.426l-1.197 2.292 2.652.435.155.578c-.534.373-1.068 1.057-1.593 1.057l-7.14-.391c2.119-1.928 4.341-3.465 7.166-3.909l-.052-.053.009-.009zm11.842 76.718l.973 7.667-.456.116-.939-3.448-2.36.969.155 3.003-.654.071-.982-7.694.37-.222c.241.533.698 1.075.689 1.599-.034 1.244.508 1.768 1.524 1.342.474-.196.776-1.049.956-1.671.138-.488-.025-1.066-.06-1.608l.767-.124h.017zm-11.42 2.381l-3.006.675.25 5.473 3.324.489.086.275-3.815.995-1.137-5.242c-.628-3.26.81-4.371 4.306-2.674l-.008.009z"/><path d="M129.246 30.022c.456-.915 4.848-3.705 5.305-3.243.379.382.43 1.404.25 2.017-.397 1.324-.956 2.603-1.611 3.811-.267.48-.965.72-1.464 1.075l-.62-.453 1.18-3.501-3.083.249.043.044zm-25.691 97.107c-2.834.56-2.024 2.683-1.895 4.523-1.516-.96-2.067-3.696-1.783-7.979l4.152-.559.129.772-3.35.765-.233.684 2.98 1.785v.009zm-18.06-11.834l-3.35.906.672 5.287 3.419.017.086.915c-1.171.16-2.351.454-3.514.391-.353-.017-.801-.977-.965-1.581-.276-1.004-.431-2.07-.508-3.11-.078-1.057-.344-2.843.06-3.047 1.154-.569 2.61-.498 3.944-.675l.146.906.009-.009zm22.375-1.803l-2.326-.533c-.146 1.181-.439 2.363-.379 3.536.026.621.784 1.768.982 1.714.775-.204 1.456-.782 2.438-1.377-.026.533.189 1.555-.13 1.795-.62.462-1.869.915-2.282.595-.878-.693-1.8-1.812-1.964-2.878-.223-1.413-1.162-3.208.569-4.389.525-.356 1.386-.782 1.817-.578.741.364 1.257 1.2 1.86 1.848l-.577.275-.008-.008zm14.598 10.172c1.251-.379 1.458-1.421.62-3.127 1.869.115 3.315 3.207 2.713 6.157-.121.586-.862 1.03-1.37 1.608v-3.403l-2.256.942-.681-5.313.552-.098.413 3.225.009.009zm-24.029-4.229l3.919-.817-2.541-2.07c-.672-.578-1.705-1.111-1.86-1.83-.146-.649.525-1.999 1.111-2.195.861-.293 1.955.16 2.954.302l-.052.809-2.85.391-.224.559c.603.516 1.136 1.253 1.834 1.493 1.524.542 2.627 1.341 1.697 3.029-.758 1.378-2.093 1.813-3.979.329h-.009zm15.468 9.356c-.086-1.253-.052-2.532-.293-3.758-.138-.685-.723-1.271-1.111-1.893-.344.755-1.033 1.555-.956 2.257.155 1.377.741 2.701 1.258 4.398-1.197-.507-2.059-1.226-2.136-2.781-.035-.809-.155-1.635-.009-2.408.19-.986.603-1.919.922-2.878.887.524 2.359.897 2.54 1.608.431 1.723 1.396 3.625-.215 5.455zm.448-93.581l-9.93.506c1.068-1.635 8.75-2.008 9.93-.506zm-3.609 83.976l-1.025-8.04.569-.24c.318.808.473 1.768.999 2.381.508.586 1.404.826 2.084 1.199-.835.64-1.903 1.04-2.162 1.751-.284.799.147 1.883.276 2.843l-.741.097v.009zm9.448-92.594l-8.604 1.164c.612-1.501 5.013-2.212 8.604-1.164zm-110.1 22.94c-3.049.826-3.178.728-3.841-2.452.853-.204 2.127-.889 2.506-.533.715.657.904 1.919 1.335 2.985z"/><path d="M103.874 35.379c.732 1.484-.19 2.497-1.353 3.243-1.317.853-2.755 1.519-4.392 2.399-.525-1.164.37-2.026 1.43-2.763l4.315-2.879zm-78.64 7.676l-2.765.373-1.318-2.932c1.24-.169 2.515-.738 3.255-.311.603.346.577 1.875.818 2.87h.009zm128.557-19.546l1.507 11.861c-1.214-.853-2.558-9.844-1.507-11.861zm-14.745-1.075l7.958-.187.052 1.057-6.821.853c-.302.018-.68-.959-1.189-1.724zm-27.964 5.26l-7.803 1.057-.12-.853 7.759-1.048.164.844zM12.798 44.521l-2.394.329-.138-4.096c2.911.382 3.178.8 2.541 3.767h-.009zm14.848 6.432l1.946-1.937 2.076 3.954-2.937.4-1.085-2.408v-.009zm-8.285 10.502l-2.213 2.274c-.577-.666-1.507-1.288-1.611-2.026-.077-.533.827-1.564 1.473-1.768.448-.142 1.206.737 2.36 1.528l-.009-.009zm88.509-19.244l-7.958.267-.164-.88c.629-.213 1.258-.578 1.904-.604l6.347-.036-.129 1.235v.018zM24.916 60.344l-.198 2.337-2.463.338c-.181-1.013-.87-2.488-.448-3.03.723-.924 2.136-1.164 3.109.364v-.009zm107.981 54.978c-1.343-1.226-2.342-5.731-1.576-6.833.319-.453 1.12-.906 1.602-.799.896.186 1.714.773 2.842 1.333-.629.417-.749.568-.853.559l-2.497-.355c-.086 1.048-.293 2.097-.233 3.145.061.906.422 1.786.715 2.959v-.009zM27.293 54.738l2.231 1.581-.31 3.172c-1.189-.871-2.308-1.351-2.825-2.212-.267-.444.534-1.573.904-2.541zm-1.645-9.817l1.955-1.199 2.153 1.253-.611 2.194-1.989.267-1.516-2.523.009.009zM11.127 57.262c2.024.498 2.351 1.759 1.524 3.909L9.18 59.412l1.946-2.15zm68.003 58.202l.982 7.721c-1.051-.516-2.024-5.695-.982-7.721zM17.294 38.195l1.817 3.634-3.479.471.551-3.98 1.111-.124zM6.39 53.956l1.679-1.457 2.274 1.182c-1.556 1.771-2.874 1.86-3.953.267v.009zm122.279-29.132c-.173.293-.31.8-.543.853l-5.383.933c-.267.044-.749-.204-.818-.426-.077-.249.207-.897.302-.888 2.187.178 4.271-1.324 6.493-.409l-.06-.053.009-.009zm-14.814 16.232l-5.417.737.198-1.484c1.731.027 3.54-1.19 5.202.053l.017.693zM94.4 28.867l6.873-.329.034.844c-2.308.48-4.625.959-6.959.4l.052-.906v-.009zm56.325 77.881l.723 3.092-.301.107-2.231-4.416 1.86-.346c.465-.045.948.071 1.43.115l-.999 1.013c-.146.151-.31.275-.491.426l.009.009zm-10.016-73.901l-6.425.435c2.368-1.875 4.607-1.884 6.459-.382l-.026-.044-.008-.009zm-7.304-9.267l4.883-.355c-3.238 1.875-4.159 1.857-4.883.355z"/><path d="M128.729 24.877c1.205-1.59 2.816-.729 4.487-1.057-1.197 1.715-2.86 1.99-4.548 1.004l.061.053zm-13.315 8.885c1.37.32 3.014-1.422 4.341.88l-4.461.062.12-.951v.009z"/></g><g opacity=".6" clip-path="url(#B)"><g class="B C"><path d="M511.592 6.608l5.772.032.063.461-8.303 1.141.039.477 1.305.259c0 .105-.016.21-.016.308l-3.007.413.023 3.86c-1.976-2.137-1.882-4.516-.117-6.369l4.249-.583h-.008zM593.405 68.1l7.795-3.909 15.847-7.729c.539-.275 1.016-1.441.945-2.128l-3.061-29.613-.891-8.554c-.117-1.975-.835-2.776-2.796-3.148l-26.078-5.277c-7.741-1.578-15.465-3.286-23.244-4.581-1.625-.275-3.53.85-5.225 1.554-3.632 1.513-7.178 3.245-10.817 4.743-3.046 1.246-6.413 1.87-9.201 3.553-2.523 1.53-5.264 2.363-7.842 3.658-4.662 2.355-9.419 4.508-14.105 6.814-.961.477-2.07 1.085-2.585 1.959-.578.963-.875 2.339-.758 3.48l3.327 29.281c.313 2.768.516 5.552.727 8.336.093 1.198.445 1.845 1.773 2.104l26.93 5.495c.859.178 1.64.769 2.46 1.165l-.383.842-19.096-3.561c-3.882-.736-7.779-1.408-11.63-2.315-.703-.17-1.593-1.246-1.71-2.015l-2.906-21.714-2.225-20.039c-.204-1.7.413-2.525 1.851-3.156l27.289-12.115c6.233-2.808 12.512-5.536 18.588-8.668 3.593-1.853 6.952-.866 10.419-.202 4.663.898 9.295 1.983 13.95 2.93l22.611 4.532c3.569.696 7.193 1.133 10.754 1.87.664.138 1.594 1.085 1.664 1.748l2.781 26.91 1.874 15.62c.062.648-.672 1.756-1.304 2.048-4.038 1.845-8.162 3.472-12.216 5.277-1.648.728-3.139 1.813-4.772 2.566-2.054.947-4.147 1.829-6.295 2.525-.726.235-1.656-.178-2.491-.299l.054.032-.008-.016z"/></g><path d="M546.559 76.808l-7.139-1.327-12.402-2.315-2.25-.421-9.403-1.902c-.914-.218-2.008-1.481-2.164-2.509l-2.913-21.738-1.164-10.416-1.062-9.623c-.227-1.878.429-3.011 2.21-3.788l27.282-12.115 3.218-1.441c5.076-2.274 10.325-4.621 15.347-7.211 3.39-1.756 6.6-1.101 9.7-.469l1.086.219 8.099 1.691 5.858 1.246 22.603 4.532c1.64.316 3.32.583 4.936.842l5.819 1.02c.851.178 2.023 1.279 2.132 2.274l1.562 15.013 1.219 11.897c.257 2.428.578 4.888.882 7.268l1 8.352c.101.971-.836 2.298-1.648 2.663-2.242 1.02-4.538 1.999-6.764 2.938l-5.451 2.347c-.82.364-1.633.842-2.422 1.295-.749.437-1.53.89-2.343 1.271-2.405 1.109-4.428 1.918-6.357 2.549-.656.21-1.344.04-2.008-.121-.164-.041-.32-.081-.484-.113l-.156.081-2.663-1.724 2.647.388 2.203-1.117 5.389-2.695 5.022-2.428 10.817-5.301c.274-.138.672-1.028.625-1.522l-2.538-24.66-.523-4.953-.313-2.752c-.226-1.902-.461-3.877-.578-5.827-.101-1.683-.617-2.266-2.32-2.59l-18.283-3.674-7.803-1.611-5.608-1.157-17.612-3.423c-1.117-.186-2.499.437-3.827 1.044-.367.17-.727.332-1.086.478-1.734.72-3.491 1.513-5.186 2.274l-5.639 2.46c-1.148.469-2.343.858-3.507 1.23-2.015.647-3.913 1.262-5.615 2.282-1.539.931-3.156 1.611-4.726 2.274-1.046.437-2.124.89-3.155 1.408-2.632 1.327-5.335 2.614-7.943 3.852l-6.163 2.962c-.968.477-1.913 1.012-2.343 1.724a5.37 5.37 0 0 0-.671 3.092l2.085 18.493 1.242 10.788c.297 2.655.5 5.358.695 7.972l.031.388c.071.971.281 1.36 1.297 1.554l26.938 5.495c.671.146 1.273.486 1.851.809a13.07 13.07 0 0 0 .742.397l.531.259-.82 1.813-.016.008zM536.14 12.621l-25.407 11.274c-1.296.567-1.664 1.182-1.5 2.517l1.07 9.639 1.156 10.4 2.906 21.706c.078.526.812 1.408 1.265 1.514 3.093.728 6.272 1.319 9.349 1.894l2.249.421 12.403 2.315 5.874 1.092c-.508-.291-.992-.558-1.477-.664l-26.922-5.495c-1.827-.356-2.163-1.489-2.249-2.654l-.031-.389-.695-7.923-1.235-10.78-2.085-18.501c-.133-1.271.195-2.784.844-3.86.585-.979 1.71-1.627 2.835-2.185l6.178-2.97 7.919-3.836c1.063-.534 2.164-.996 3.226-1.449 1.445-.607 2.937-1.238 4.335-2.056l-.008-.008zm59.14 55.212c.148 0 .273 0 .39-.04 1.883-.615 3.867-1.408 6.225-2.501.766-.356 1.515-.793 2.25-1.214.812-.469 1.648-.963 2.53-1.352l5.475-2.355 6.733-2.922c.437-.194.992-1.093.953-1.424-.282-2.776-.641-5.592-.992-8.32l-.883-7.292-1.226-11.905-1.562-15.005c-.039-.364-.742-1.125-1.203-1.222-1.906-.397-3.874-.712-5.772-1.012l-4.975-.85-22.611-4.532-5.873-1.246-8.068-1.683-1.102-.219c-3.038-.623-5.912-1.206-8.95.364-5.046 2.606-10.31 4.961-15.402 7.243l-.664.3 1.656-.542c1.14-.364 2.319-.745 3.421-1.198 1.882-.769 3.772-1.627 5.6-2.444l5.217-2.29c.344-.138.695-.299 1.047-.461 1.483-.672 3.03-1.376 4.483-1.125 5.912.987 11.887 2.226 17.659 3.432l5.608 1.157 7.802 1.611 18.269 3.666c2.225.421 3.147 1.465 3.28 3.707.117 1.918.344 3.869.57 5.754l.32 2.768.524 4.953 2.538 24.668c.086.898-.484 2.331-1.273 2.736l-10.841 5.309-5.014 2.42-5.374 2.687-.789.405.024-.024z" class="B"/><g class="C B"><path d="M620.203 72.122l-1.531-.777c1.164-1.182 3.28-2.428 3.179-3.431-.164-1.57-.242-3.051-.071-4.613.11-1.02.032-2.056.477-3.14l2.023 15.887-15.527 2.121c1.64-1.586 2.655-1.327 4.608-1.384 1.687-.057 3.468-1.287 4.936-2.388.562-.421.359-1.926.508-2.938l1.398.672v-.008zm-47.597 6.07c-1.78 2.557-4.053 3.027-7.138 2.242-5.999-1.53-12.067-2.744-18.425-4.168.477-.235 1.031-.777 1.5-.704 3.14.469 6.264 1.052 9.388 1.635 3.319.615 6.607 1.465 9.95 1.853 1.539.178 3.163-.502 4.749-.793l-.016-.065h-.008z"/><path d="M572.606 78.192l.016.065c.562-.526 1.054-1.246 1.711-1.538l15.847-6.79c1.124-.494 2.148-1.214 3.218-1.829l-.055-.032c.992 1.562.047 2.234-1.203 2.711l-8.154 3.051-8.997 4.217c-.696.299-1.594.105-2.39.146h.007zm-30.389-60.513c-1.07.955-1.594 1.813-2.242 1.926-1.375.251-2.671-.032-2.859-1.95-.148-1.473.18-2.995 1.68-2.816 1.054.13 1.96 1.562 3.428 2.841h-.007zm-19.433 50.202c-.187-1.457-.515-3.181-.539-4.913 0-.389 1.063-1.141 1.602-1.117.812.041 1.89.429 2.288 1.06.266.421-.297 1.627-.765 2.274-.649.906-1.539 1.635-2.586 2.695zm58.773-57.882c-1.179 1.481-1.749 2.671-2.663 3.124-.414.202-1.992-.939-2.172-1.691-.265-1.109-.226-2.865 1.594-2.857.867.008 1.726.728 3.241 1.416v.008zm-17.214.655l-1.757-3.488-.266 2.978c-.869-.572-.937-2.298-.203-5.18l2.398 2.007.906-.987.656.227-.945 4.119-.789.324zm-9.419 1.927c-2.749 1.619-3.249 1.303-4.452-2.986l2.609-1.538 1.015 2.363.828 2.169v-.008zm24.399 54.669l-2.655.631.062.647c.578.17 1.32.178 1.695.558.477.486.969 1.36.859 1.942-.125.631-.859 1.376-1.468 1.57-.367.113-1.273-.639-1.476-1.19-.352-.971-.57-2.112-.438-3.116.086-.648.789-1.4 1.398-1.724.368-.194 1.094.348 2.023.688v-.008zm17.753-13.661l2.96 5.463-.257.631c-1.922-2.501-3.445-1.789-5.054.146l1.547-6.038.812-.194-.008-.008zm-69.769 11.605c-.274-2.315.781-4.144 2.335-4.152 1.773-.008 2.577 1.222 2.632 2.857.055 1.619.148 3.504-2.039 3.836-1.976.299-2.522-1.246-2.928-2.541zm4.858-1.06l-2.375-1.999c-.523.858-1.374 1.683-1.452 2.574-.055.607.984 1.311 1.538 1.967l2.289-2.541zm39.387-52.258l.117-4.791 4.632 1.222-.945 4.03-.828-.162c.023-.655.125-1.335.031-1.975-.07-.461-.422-.874-.64-1.303-.383.356-.899.647-1.117 1.093-.297.591-.359 1.311-.524 1.975l-.726-.089zm-28.586 47.993l2.765 3.788.469-.097-.266-3.642.391-.049.742 5.835-.609.372-3.539-4.743.305 4.783-.719.032-.453-6.07.906-.202.008-.008zm39.544 1.44c-1.679-1.214-3.116-1.408-5.006.923l1.429-6.191.75-.057 2.819 5.325h.008zm26.438-4.718l2.601.275.156.664c-.961.17-2.687.639-2.757.461-.617-1.675-1.203-3.464-1.172-5.212 0-.486 2.094-.939 3.218-1.4l.328.85-2.718 1.319.094.518 2.952.437-2.725 1.392.023.688v.008zm-2.968-2.897l-2.679.364c1.062 1.651 4.054.591 3.405 3.31-.14.615-1.046 1.408-1.64 1.441-.773.049-1.577-.583-2.14-1.311l3.32-.178-3.859-2.978c.453-.526.813-1.295 1.367-1.505.703-.259 1.562-.065 2.351-.065l-.133.915.008.008zm-57.64-39.681l2.226-1.004.515.486c-.453.599-.796 1.53-1.374 1.724-1.68.558-2.601-.736-2.812-2.12-.133-.842.539-1.95 1.132-2.703.164-.202 1.336.453 2.047.712l-.258.801-1.773-.227.297 2.331zm-14.285 8.36c-.563-1.246-1.148-2.145-1.344-3.124-.117-.575.274-1.716.641-1.821.765-.227 1.679.032 2.515.194.164.032.414.656.32.842l-2.132 3.909zm36.38-11.298l-4.709-.939 3.264-3.399 1.453 4.338h-.008zm-18.292 53.99l-3.171.429c-1.312-5.819-.906-6.798 2.711-6.029l-2.773 1.594.266.664 1.819.413-1.718 1.481 2.874 1.441-.008.008zm11.677-6.758l-2.242 1.594 1.711 1.101-1.742 1.254 2.531 1.716c-.883.008-2.429.227-2.508-.016-.484-1.675-.859-3.448-.796-5.172.015-.388 1.882-.712 2.897-1.06l.149.583zm8.997 4.508l-.804-6.28c1.429.259 2.64.251 3.577.777.352.202.031 1.651-.531 2.517 0-.526.195-1.173-.031-1.546-.219-.356-.883-.575-1.336-.55-.25.016-.679.672-.656 1.02.078 1.343.305 2.687.477 4.022l-.696.032v.008zm-19.002.647c.219.154.453.461.656.437.672-.073 1.336-.267 1.999-.405l-1.398-1.424-1.937-1.861 2.195-1.902.484.704-1.827 1.287c.593 1.748 5.108.923 2.64 4.233-.75 1.004-2.281.825-2.82-1.076l.008.008zm42.465-49.789l1.882.931-1.586.866 1.086.971-.156.421-2.703-.38.539-4.467 2.859.55.055.445-1.969.664h-.007zm-18.409 7.575c-.703 1.497-.719 2.347 1.085 2.541.719.081 1.398.672 1.968 1.368-1.694-.696-3.256-1.675-4.756.389l1.562-6.143 2.062 2.986-.273.332-1.641-1.473h-.007zm-35.553 2.785c-3.382 1.538.812 4.896-2.031 6.782l-.257-5.689-1.914.049-.07-.558 4.272-.583zm4.022 1.359l2.195 3.925c-1.257-.364-2.148-.882-2.968-.777-.836.105-1.593.825-2.796 1.497l1.289-3.998 1.445 1.287.828-1.942.007.008zm-7.13 40.976l-2.836-5.738.375-.291 2.14 2.655 1.617-2.695.289.154-1.585 5.916zm20.135 5.762l-1.227-1.424.227 3.691-.453.041-.758-5.932c2.336.324 1.961 2.177 2.203 3.626h.008zm8.2.453c-.117-.105-.343-.218-.335-.316l.421-4.281c.016-.097 1.578-.138 1.609 0 .344 1.505.633 3.051.688 4.589.015.405-.789 1.093-1.281 1.165-.321.049-.766-.769-1.156-1.198.671-.089 1.913-.146 1.921-.275.063-1.076-.047-2.169-.258-3.229-.039-.202-.789-.251-1.21-.372l-.516 2.468c-.062.469.063.963.102 1.449h.015zm-.827-45.58l-.438-5.649 3.78-.34-3.007 2.104.969.842-.961 2.97-.351.073h.008zm-32.109 38.742l2.476.38.031.421-2.936.405-.742-5.803.57-.105.601 4.694v.008zm6.92-52.234l3.148 3.529c-.227.137-1.297.89-1.367.801-.937-1.174-1.726-2.468-2.562-3.739l.781-.591zm26.298 44.197l2.858-.389-2.132 1.87 1.507.979-1.609 2.428-.624-4.888zM585.533 13.9l-2-.048c.149-.607.203-1.255.453-1.813.32-.704.789-1.319 1.687-1.975l-.179 3.893.031-.057h.008zm8.2 45.394l-1.257 3.156-3.132-4.071c1.437.769 2.452 2.388 4.389.915zm-.468-43.185l-2.093-.138.515-4.637.609-.024.969 4.799zm-7.256 41.656l-1.953-.469.508 3.982-.422.048-.734-5.754.523-.316 2.078 2.509zm15.168-4.435l.71 5.592-.546.097-.719-5.625.547-.065h.008zm-48.065-24.652l-1.383-2.897 1.016-2.865.726 5.673-.359.081v.008zm-6.733-12.067l-2.132-3.998.914-.542 2.07 3.998-.859.542h.007zm16.769 57.267c-1.234-.842.633-3.44-2.124-3.27l.796-2.42.61.057.718 5.633z"/><path d="M585.501 13.956l3.984-1.004.64 2.42-4.585-1.481-.031.057-.008.008z"/></g><path d="M525.558 50.393l1.028-.282c.195.577.453.977.773 1.201a1.53 1.53 0 0 0 1.106.245 1.71 1.71 0 0 0 1.177-.681 1.75 1.75 0 0 0 .35-1.337c-.062-.48-.269-.854-.622-1.121s-.772-.373-1.256-.307c-.197.027-.438.099-.722.217l-.001-.934.17-.011c.445-.061.831-.232 1.157-.513s.459-.664.397-1.148c-.049-.384-.219-.684-.51-.9s-.642-.297-1.053-.24a1.45 1.45 0 0 0-.967.523c-.238.293-.363.7-.376 1.222l-1.068-.043c.038-.719.259-1.301.663-1.747s.942-.72 1.616-.812c.464-.063.905-.021 1.321.127s.749.375.998.691a2.08 2.08 0 0 1 .453 1.056c.047.368-.009.717-.168 1.046s-.42.609-.785.841c.518.048.94.236 1.266.566s.522.764.592 1.315c.095.744-.095 1.413-.571 2.006s-1.128.941-1.957 1.054c-.746.102-1.396-.036-1.948-.414s-.903-.917-1.063-1.617zm6.364-2.857c-.129-1.008-.129-1.831-.002-2.472s.378-1.161.742-1.55.861-.626 1.48-.711c.457-.062.869-.024 1.237.115s.686.362.955.68.499.713.69 1.195.34 1.14.448 1.985c.127 1 .127 1.822.001 2.466s-.375 1.157-.742 1.55-.857.626-1.48.711c-.821.112-1.503-.094-2.046-.619-.652-.632-1.079-1.749-1.283-3.349zm1.074-.147c.178 1.399.459 2.309.844 2.729s.821.591 1.301.526.853-.353 1.119-.863.315-1.462.138-2.858c-.179-1.403-.462-2.312-.85-2.728s-.819-.592-1.307-.525c-.48.066-.837.322-1.072.767-.294.569-.351 1.552-.173 2.951zm6.503 3.386l-1.085-8.521 2.931-.401c.662-.09 1.172-.119 1.531-.085.502.046.944.192 1.326.44.497.318.894.759 1.19 1.322s.498 1.217.594 1.977c.083.647.08 1.231-.007 1.751s-.228.962-.422 1.323a3.21 3.21 0 0 1-.679.879c-.255.224-.576.412-.962.563s-.831.261-1.346.332l-3.071.42zm.998-1.16l1.817-.248c.561-.077.994-.189 1.298-.337s.545-.331.71-.547c.233-.304.394-.691.484-1.16s.099-1.033.017-1.676c-.113-.891-.348-1.555-.702-1.992s-.747-.714-1.186-.819c-.316-.075-.81-.067-1.479.025l-1.788.245.829 6.51zm7.617-.019l-1.085-8.521 6.153-.842.128 1.005-5.027.688.332 2.61 4.709-.644.127 1-4.708.644.369 2.9 5.225-.715.128 1.005-6.351.869zm13.599-4.9l1.162.131c-.118.958-.454 1.724-1.007 2.296s-1.267.913-2.154 1.034c-.917.125-1.688.042-2.312-.252s-1.127-.78-1.519-1.448-.634-1.409-.738-2.223c-.113-.887-.043-1.684.21-2.388s.674-1.277 1.253-1.703 1.25-.697 2.001-.8c.852-.117 1.595.003 2.231.357s1.118.91 1.447 1.665l-1.076.413c-.276-.593-.62-1.005-1.032-1.237s-.901-.308-1.47-.231c-.654.09-1.182.321-1.583.696a2.55 2.55 0 0 0-.762 1.393 5.14 5.14 0 0 0-.059 1.67c.093.725.278 1.344.556 1.858s.662.867 1.141 1.074.978.274 1.496.203c.631-.086 1.142-.341 1.533-.765s.618-1.005.682-1.743zm7.84.944l.128 1.005-5.625.77a1.86 1.86 0 0 1 .029-.743c.094-.403.274-.812.541-1.227s.671-.908 1.205-1.478c.828-.886 1.377-1.572 1.646-2.058s.377-.933.327-1.328c-.053-.415-.247-.743-.581-.985s-.734-.337-1.21-.272c-.503.069-.886.275-1.149.618s-.363.783-.299 1.318l-1.088.036c-.029-.812.17-1.46.597-1.944s1.043-.787 1.852-.898c.817-.112 1.492.027 2.026.415a2.23 2.23 0 0 1 .929 1.588c.043.341.016.686-.081 1.034s-.286.727-.564 1.136-.747.981-1.417 1.72l-1.071 1.24a3.44 3.44 0 0 0-.369.624l4.174-.571zm-42.48 16.688c-.128-1.008-.129-1.831-.002-2.472s.378-1.161.742-1.55.861-.626 1.48-.711c.457-.062.869-.024 1.238.115a2.26 2.26 0 0 1 .954.679c.269.314.499.713.69 1.195s.34 1.14.448 1.985c.127 1 .128 1.822.001 2.466s-.374 1.157-.742 1.55-.857.626-1.48.711c-.821.112-1.503-.094-2.046-.619-.651-.632-1.079-1.749-1.283-3.349zm1.074-.147c.178 1.399.459 2.309.844 2.729s.821.591 1.301.526.853-.353 1.119-.863.316-1.463.138-2.857c-.179-1.403-.462-2.312-.85-2.728s-.819-.592-1.307-.525c-.48.066-.837.322-1.072.767-.293.569-.351 1.552-.173 2.951zm5.544-.758c-.128-1.008-.129-1.831-.002-2.472s.378-1.162.742-1.55.861-.626 1.48-.711c.457-.062.869-.024 1.238.115s.686.361.954.68.499.712.69 1.195.34 1.14.448 1.985c.127 1 .128 1.822.001 2.466s-.374 1.157-.742 1.55-.857.626-1.48.711c-.821.112-1.503-.094-2.046-.619-.651-.632-1.079-1.749-1.283-3.349zm1.074-.147c.178 1.399.46 2.309.844 2.729s.821.591 1.301.526.853-.353 1.119-.863.316-1.462.138-2.857c-.179-1.403-.462-2.312-.85-2.728s-.819-.592-1.307-.525c-.48.066-.837.322-1.072.768-.293.568-.351 1.552-.173 2.951zm11.443 1.687l.128 1.005-5.625.769a1.88 1.88 0 0 1 .029-.743 3.97 3.97 0 0 1 .541-1.227c.27-.415.672-.908 1.206-1.478.828-.886 1.376-1.572 1.645-2.058s.377-.933.327-1.328c-.053-.415-.246-.743-.58-.985s-.734-.337-1.21-.272c-.503.069-.887.275-1.15.618s-.363.783-.299 1.318l-1.088.036c-.028-.812.171-1.46.597-1.944s1.044-.787 1.853-.898c.816-.112 1.492.026 2.025.415s.844.917.929 1.588a2.57 2.57 0 0 1-.081 1.034c-.097.349-.285.727-.564 1.136s-.747.981-1.417 1.72l-1.07 1.24a3.39 3.39 0 0 0-.37.624l4.174-.571z" class="B"/><g stroke="#1a6650" stroke-width=".75" stroke-miterlimit="10"><path d="M527.26 41.247l-.203.024h-.656l-.203.024c-.047 0-.071.041-.071.097l-.086-.024h-.039c-.195.032-.468.138-.82.324-.382.049-.57.388-.562 1.004.07.559.344.801.828.736l.148-.105c.109-.324.281-.558.523-.704l.492-.324.422.154c.11-.016.25-.113.414-.307l.164-.024c.086.032.125.065.133.105.344.065.531.138.562.218l.024.17c-.125.461-.281.761-.461.906-.273.324-.437.486-.508.502a4.09 4.09 0 0 1-.679 1.068c0 .024.015.041.039.032v.04l-.078-.024c-.235.267-.336.518-.313.761v.081l.094-.008c0 .032-.008.049-.039.049 0 .04.062.073.18.097l.078-.049-.024.081c.039 0 .149 0 .328.04.399-.113.586-.227.578-.324.008-.097.297-.251.875-.461.188 0 .289.032.305.089.351-.049.671.057.976.324.414.486.633.809.656.971l.078.583c.016.105-.055.453-.187 1.044l-.774.995c-.085.267-.195.461-.328.591 0 .032.016.049.039.04v.041s-.031 0-.039-.032c-.312.324-.601.502-.874.542-.266.267-.508.413-.719.437-.211.275-.344.421-.398.429h-.328c-.047 0-.11.041-.188.113-.242.089-.437.283-.578.583.039.308.211.469.516.486a7.71 7.71 0 0 0 .601-.13c.156-.024.656-.332 1.515-.923.157-.024.399-.21.75-.566l.656-.599.703-.898c.164-.389.266-.591.297-.591.062-.162.187-.631.391-1.408l-.11-.575s.024-.154.078-.348c-.023 0-.132-.251-.343-.761-.039-.3-.485-.736-1.352-1.335-.445-.049-.679-.17-.702-.372 0-.138.023-.21.054-.219-.054-.453.094-.793.438-1.036.093-.275.343-.575.742-.907l-.055-.081s.047 0 .047.032c.062-.008.109-.17.14-.477-.07-.243-.125-.364-.164-.356-.039-.283-.429-.372-1.179-.267l-.984.267-.422-.073c-.172.138-.297.211-.375.219l-.023.008zm7.677.121c.172-.275.282-.421.313-.429.086-.008.156 0 .203.016l.242-.081h.039c.062-.016.203.008.422.065a.46.46 0 0 1 .109-.057c.063-.008.188.016.375.073l.234-.073c.125-.016.258.089.406.324.414.016.649.251.703.704.211.502.367.753.461.737.086.494.188.85.297 1.068l-.008.51.195.567c0 .906-.062 1.36-.195 1.384.047.389.008.72-.125.987 0 .259-.125.502-.351.728-.203.316-.461.55-.773.696-.063.065-.446.186-1.133.364-.172.024-.305-.024-.391-.154-.492-.194-.827-.421-.984-.672-.226-.364-.359-.542-.39-.534-.117-.575-.234-.858-.352-.842-.132-.712-.257-1.06-.374-1.044l.046-.599-.195-.566.102-.777c.218-.817.312-1.384.273-1.683.086-.008.336-.227.734-.656 0-.024-.015-.032-.047-.032v-.04s.039 0 .047.032l.117-.016zm1.039-1.449c-.508.073-.953.21-1.335.429 0 .041-.289.324-.867.842l.046.073c-.078.008-.109.089-.093.227-.36.575-.531.947-.508 1.125-.101.121-.164.696-.187 1.724.007.089.054.251.14.486.008.073 0 .299-.039.68l.063.494-.032.348c.024.138.055.202.102.194.078.583.344 1.182.797 1.789.023.186.25.429.671.72.524.299.789.486.797.558.328.113.547.243.664.372a2.64 2.64 0 0 0 .437-.097 7.92 7.92 0 0 0 .766-.065l.117-.016c.117-.016.226-.057.312-.13 0-.024-.023-.032-.047-.032v-.049s.039.008.047.04l.188-.154-.055-.081h.047c-.016-.138.25-.316.789-.542.164-.081.289-.275.375-.599h-.047c.07-.178.125-.267.164-.275a3.54 3.54 0 0 1 .523-1.384c-.039-.518-.031-.874.031-1.06a11.47 11.47 0 0 0-.164-.914.74.74 0 0 0 .047-.3c-.094-.745-.172-1.117-.226-1.109-.25-.898-.43-1.343-.539-1.327 0-.024.007-.041.039-.049-.047-.162-.102-.243-.156-.235 0-.024.007-.04.039-.049a4.27 4.27 0 0 1-.438-.534c-.031 0-.039.016-.039.041h-.039s.008-.032.031-.041c-.054-.105-.101-.162-.14-.154-.414-.559-.789-.817-1.117-.777-.203-.113-.586-.21-1.133-.275-.031 0-.039.024-.039.049l.008.057zm7.029-1.7c.086.267.227.389.414.364h.047c.071-.065.11-.105.102-.146l-.016-.13c-.148-.202-.297-.291-.445-.275-.039 0-.078.065-.102.186zm5.186.947h.079l.281-.008c0-.024.008-.04.031-.04l-.023.089c1.195.17 1.804.364 1.835.575.266-.032.422.113.461.461l.015.121-.031.097c.227.235.375.494.43.769 0 .032 0 .073-.032.138l.282 1.222c.007.089-.016.21-.086.364a2.14 2.14 0 0 0 .101.421l-.031.429-.312 1.4c-.188.283-.274.461-.258.558-.359.388-.531.599-.523.639-.313.04-.625.202-.922.477l-.601.032c-.352.049-.547-.081-.586-.396l-.047-.356c.039-.38.047-.623.031-.736l-.25-.664-.039-.3v-.307s-.086-.105-.164-.324c-.015-.105.008-.356.07-.761l-.312-1.789c.055 0 .063-.154.024-.429l-.141-1.068c-.031-.267.195-.469.695-.615h.023zm-2.803-.235l-.578.032c-.203.113-.289.259-.266.437.016.146.172.283.461.421l.265-.13.602-.081c.507-.073.804.21.882.842l.024.825.117.898.148.801c-.023.049-.031.121-.015.219l.101.469a1.7 1.7 0 0 0-.031.397l.016.129a4.04 4.04 0 0 0 .164.631c0 .032-.016.186-.071.445l.133.413-.039.356c.055 0 .102.17.148.542.04.308-.195.51-.695.623-.132.016-.335.032-.609.041-.531.073-.757.413-.679 1.012.101.186.234.267.398.251.266-.178.422-.275.492-.283.445.113.883.154 1.32.121-.016-.097.555-.243 1.703-.453.093.049.179.073.25.057h.046a2.57 2.57 0 0 0 .391-.105l.203.016.203-.073c.352-.429.672-.664.969-.704.187-.332.335-.526.453-.583.062-.348.257-.761.578-1.254 0-.656.039-1.125.109-1.408l-.117-.591-.125-1.254c-.086-.332-.149-.502-.188-.494-.179-.931-.382-1.424-.593-1.473-.297-.664-.555-.979-.774-.947-.257-.283-.445-.445-.546-.486-.68-.057-1.141-.13-1.383-.21l-.156.057a3.18 3.18 0 0 1-.437.024c-.133.073-.219.113-.274.121-.023 0-.164 0-.414-.032l-.359.089-.367-.032c-.039 0-.531.113-1.468.332l.008-.008zm12.856-1.804c-.047 0-.203-.016-.461-.073l-2.421.502c-.055-.016-.188-.024-.414-.032a2.95 2.95 0 0 0-.438.105l-1.085.097c-.438.057-.696.194-.766.405l.016.13c.031.267.195.445.476.534.25-.178.43-.267.531-.283a3.74 3.74 0 0 1 .57-.041c.344-.049.547.154.602.599l.14 1.084c.047.364.04.639-.015.817l.07.243.031.259-.031.081a2.35 2.35 0 0 0 .18.445c-.024.251-.016.648.031 1.198.047.146.078.316.102.51.007.065-.024.21-.102.445l.266 1.457c.031.227-.047.356-.235.38h-.039c-.148.024-.351.024-.617 0h-.039c-.632.178-.914.486-.859.931l.016.121c.156.21.453.291.882.227.055 0 .125-.065.219-.162l.203-.024c.008.089.086.162.234.227l.203-.024.117-.405.414.073.375-.218c.016.13.594.154 1.719.065.132-.016.312-.113.539-.291.328.073.57.097.734.073h.078l.258-.219c.101-.016.226.016.374.081.032 0 .071-.024.11-.065l-.024.089h.078c.086-.024.211-.113.368-.283h.289s.078-.057.14-.186l.063-2.404c-.102-.502-.258-.785-.477-.842l-.078.057v-.081l-.375.049c-.172.024-.32.218-.453.575l.039.34a2.61 2.61 0 0 1 .016.461c.039.049.054.097.062.121-.008.17-.039.259-.093.267-.063.283-.118.477-.164.575-.227.13-.344.218-.336.267h-.047l-.008-.081-.281.041v.081s-.031 0-.031-.032l-.196.065c-.086.008-.242 0-.46-.065-.016-.105-.391-.17-1.133-.194-.164.194-.258.291-.289.3-.219.032-.351-.138-.39-.502a1.13 1.13 0 0 1 .062-.477c-.023 0-.094-.113-.211-.356l-.094-1.02-.046-.38c-.039-.308.179-.494.663-.558l.243-.032c.296-.04.538.113.71.453.078.591.258.939.539 1.044l.164-.024c.235-.267.344-.477.32-.639-.124-.801-.226-1.263-.296-1.368l-.071-1.497c-.164-.38-.312-.558-.437-.542-.141.016-.226.089-.258.21-.211.032-.281.324-.211.874.032.259-.132.453-.499.583l-.204.024-.078-.024s-.007.04-.039.04l-.164.024c-.218.032-.461-.081-.734-.324l-.047-.631-.109-.283V40v-.469-.041c-.008-.048-.063-.267-.164-.672v-.048c0-.259.094-.397.265-.421 0-.024-.015-.04-.039-.032v-.049s.032.008.039.04c.079-.008.149-.049.235-.121l.765-.065a1.28 1.28 0 0 1 .609-.34c.164.235.352.34.571.308h.078c.07-.016.187-.065.351-.146.055-.008.086 0 .086.024.726.154 1.109.372 1.14.656l.016.13-.148.744v.089c.101.097.187.146.273.138.242.219.398.324.492.316h.047c.179-.032.258-.21.25-.55l-.031-.251c-.375-1.263-.618-1.886-.727-1.87 0-.032 0-.049.031-.049 0-.024-.078-.113-.234-.267-.18-.13-.539-.194-1.086-.194 0 .024-.085.097-.257.21l.047.057zm6.755-.987h-.289l-.984.558c-.304.494-.492.745-.554.753-.172.364-.281.542-.344.55.047.348-.023.639-.211.866.031.494.008 1.06-.07 1.708l.031.243c.031.227.008.502-.062.817.007.081.062.186.164.316v.259l.226.51a5.59 5.59 0 0 1 .031.591l.235.518c.039.34.398.785 1.062 1.335.023.13.226.332.609.591l1.07.356.273-.081h.079c.054-.016.226.016.499.089l.883-.413.781-.275c.078-.267.156-.405.234-.413a1.34 1.34 0 0 1 .328.041c.078-.008.11-.202.094-.567l.289-.291s-.023-.073-.055-.121c-.015-.089.063-.267.219-.534-.047-.542-.031-.882.039-1.02-.187-.453-.383-.672-.578-.648-.062 0-.258.065-.586.162-.132.356-.218.534-.257.542.054.453 0 .761-.18.923.063.469-.25.931-.922 1.392-.171.024-.289-.016-.343-.121-.039-.283-.344-.38-.93-.299-.093.065-.195.194-.32.388h-.203c-.211-.299-.383-.477-.515-.542-.282-.097-.446-.324-.492-.688-.368-.502-.594-1.141-.696-1.902v-.3l-.164-.656c0-.429.024-.688.071-.777 0-.024-.024-.065-.055-.121l.086.032c-.047-.364-.016-.639.094-.825-.039-.291.093-.575.382-.85-.031-.227.11-.405.422-.526.133-.243.227-.364.281-.372.102-.016.211.032.336.121l.117-.016c.125-.089.203-.259.219-.494.656-.008.992.041 1.007.162.071.267.141.396.211.388.282.065.438.243.477.526.375.413.586.793.632 1.141v.251.081c.321.55.586.809.805.777.125-.016.219-.073.265-.162.243-.032.313-.453.211-1.254l-.445-.915v-.049c.047-.17.094-.259.125-.267a9.89 9.89 0 0 1 .016-1.19c-.297-.575-.594-.842-.875-.809h-.078c-.039.016-.109.138-.203.372-.133.389-.211.583-.25.583h-.047c-.148.024-.281-.041-.391-.194l-.015-.121.101-.186v-.04c-.007-.049-.039-.073-.093-.073-.024 0-.133.049-.313.13h-.07c-.141.032-.211.008-.219-.049-.429 0-.734-.065-.921-.21-.18.097-.266.178-.258.243l-.016.057zm11.669-1.546v.049s-.039-.008-.047-.041c-.023 0-.336.146-.922.421-.164.218-.273.332-.328.34-.046 0-.203.364-.468 1.084-.328.21-.461.55-.399 1.028.071.332.157.486.266.469l.164-.024c.055 0 .078-.04.07-.097.172-.024.25-.372.235-1.044.211-.494.304-.777.296-.85a1.78 1.78 0 0 0 .555-.494c.398-.121.64-.227.734-.307.07-.008.227.04.469.146l.234-.073h.203a1.89 1.89 0 0 1 .32-.073h.078c.008.057.086.105.219.121.047 0 .25.21.609.639.164-.024.391.437.672 1.384 0 .397-.086.607-.25.623-.14.445-.398.696-.765.745-.297.486-.625.858-1 1.109-.266.032-.453.17-.562.413-.297.041-.492.211-.586.502-.5.316-.75.518-.742.615a3.84 3.84 0 0 0-.656 1.902l.086.664-.024.089c.11.154.188.235.235.227l.078-.057-.032.089c.04 0 .196.057.477.194.578-.113.929-.21 1.07-.275.094-.016.219-.016.367 0a.33.33 0 0 1 .109-.065c.305.016.508.016.617 0 .063-.008.18-.065.344-.17.414 0 .953-.032 1.617-.097.101-.041.195-.065.273-.073l.414.065c.063-.065.109-.097.148-.105 0-.024-.015-.041-.039-.032v-.048s.032.008.039.04c.196-.178.274-.389.243-.623l-.188-.235v-.081l-.023-.421-.125-.065h-.047l-.141.154c-.101.405-.234.623-.414.647-.218-.057-.359-.073-.414-.065-.164.073-.453.17-.859.291-.312-.016-.531-.016-.656 0h-.047l-.546.202h-.039c-.266-.041-.43-.065-.492-.049h-.079l-.546.21c-.328.041-.516-.17-.578-.639-.032-.267.117-.583.453-.947.172-.364.328-.55.461-.566.109-.3.296-.469.554-.502.148-.3.25-.453.312-.461.102-.016.453-.202 1.071-.566.288-.041.476-.251.57-.631.484-.486.734-.777.749-.866.196-.024.305-.566.321-1.61-.274-.947-.469-1.416-.586-1.4-.024 0-.039.016-.031.04h-.047s.008-.032.039-.04l-.703-.664a10.77 10.77 0 0 1-1.625-.243c-.109.016-.25.049-.437.105l-.375-.032s.016.032.047.032v-.008zm7.685.008c.172-.275.281-.421.313-.421a.39.39 0 0 1 .203.016l.234-.081h.039c.063-.016.203.008.422.065.047-.032.086-.048.109-.057.063-.008.188.016.375.073l.234-.073c.125-.016.258.089.407.324.413.016.648.251.702.704.211.502.368.753.461.736.086.494.188.85.297 1.068l-.008.51.196.566c0 .906-.063 1.36-.196 1.384.047.389.008.72-.125.987 0 .259-.125.502-.351.728-.203.316-.461.55-.773.696-.063.065-.446.186-1.133.364a.38.38 0 0 1-.39-.154c-.5-.194-.828-.421-.985-.672-.226-.364-.359-.542-.39-.534-.117-.575-.234-.858-.352-.842-.132-.712-.257-1.06-.374-1.044l.046-.599-.195-.566.102-.777c.218-.817.312-1.384.273-1.683.086-.008.336-.227.734-.656 0-.024-.023-.032-.047-.032v-.04s.039 0 .047.032l.117-.016.008-.008zm1.039-1.449c-.508.073-.953.21-1.336.429 0 .041-.289.324-.867.842l.047.073c-.078.008-.109.089-.093.235-.36.575-.531.947-.508 1.117-.102.121-.164.696-.187 1.724.007.089.054.251.14.486.008.073 0 .299-.039.68l.063.494-.032.348c.024.138.055.202.102.194.078.583.343 1.182.796 1.789.024.186.25.429.672.72.523.299.789.486.797.558.328.113.547.243.664.372a2.65 2.65 0 0 0 .437-.097 7.87 7.87 0 0 0 .765-.065l.118-.016a.61.61 0 0 0 .312-.129c0-.024-.016-.032-.047-.032v-.049s.039.008.047.041l.18-.154-.055-.081h.047c-.016-.13.25-.316.789-.542.164-.081.289-.275.375-.599h-.047c.07-.178.125-.267.164-.275.086-.518.258-.979.523-1.384-.039-.518-.031-.874.031-1.06a11.47 11.47 0 0 0-.164-.915.74.74 0 0 0 .047-.299c-.094-.745-.172-1.117-.226-1.109-.25-.898-.43-1.343-.539-1.327 0-.024.008-.04.039-.048-.055-.162-.102-.243-.156-.235 0-.024.007-.04.039-.049-.133-.13-.274-.307-.438-.534-.031 0-.039.016-.039.04h-.039s0-.032.031-.04c-.054-.105-.101-.162-.14-.154-.414-.558-.789-.817-1.117-.777-.203-.113-.586-.211-1.133-.275-.031 0-.039.024-.039.048l.016.057zm7.029-1.7c.086.267.227.388.414.364h.047c.07-.065.109-.105.102-.146l-.016-.129c-.148-.202-.297-.291-.445-.275-.039 0-.078.065-.102.186zm.664 1.951c.172-.275.281-.421.313-.429a.51.51 0 0 1 .203.016l.234-.081h.039c.062-.016.203.008.422.065a.48.48 0 0 1 .109-.057c.063-.008.188.016.375.073l.234-.073c.125-.016.258.089.406.324.414.016.649.251.703.704.211.502.367.753.461.736.086.494.188.85.297 1.068l-.008.51.195.566c0 .898-.062 1.36-.195 1.384.047.388.008.72-.125.987-.008.259-.125.494-.351.728-.203.316-.461.55-.773.696-.063.065-.446.186-1.133.364a.38.38 0 0 1-.39-.154c-.493-.194-.828-.421-.985-.672-.226-.364-.359-.542-.39-.542-.117-.575-.234-.858-.352-.842-.132-.712-.257-1.06-.374-1.044l.046-.599-.195-.567.102-.777c.218-.817.312-1.384.273-1.683.086-.016.336-.227.734-.655 0-.024-.015-.032-.047-.032v-.04s.039 0 .047.032l.117-.016.008.008zm1.039-1.449c-.508.073-.953.21-1.336.429 0 .04-.289.324-.867.842l.047.073c-.078.008-.109.089-.093.235-.36.575-.532.947-.508 1.117-.102.121-.164.696-.188 1.724.008.089.063.251.141.486.008.073 0 .299-.039.68l.062.494-.031.348c.024.138.055.202.102.194.078.583.343 1.182.796 1.788.024.186.25.429.672.72.523.3.789.486.797.559.328.113.546.243.664.38a3.9 3.9 0 0 0 .437-.097 7.9 7.9 0 0 0 .765-.065l.118-.016c.117-.016.226-.057.312-.13 0-.024-.016-.032-.047-.032v-.048s.039.008.047.04l.187-.146-.054-.081h.047c-.016-.13.25-.316.788-.542.164-.081.289-.275.375-.599h-.046c.07-.178.124-.267.164-.275.085-.518.257-.979.523-1.384-.039-.518-.031-.874.031-1.06a11.47 11.47 0 0 0-.164-.914.74.74 0 0 0 .047-.3c-.094-.745-.172-1.117-.227-1.109-.25-.898-.429-1.343-.539-1.327 0-.024.008-.041.04-.041-.055-.162-.102-.243-.157-.235 0-.024.008-.041.039-.041-.132-.13-.281-.307-.437-.534-.031 0-.039.016-.039.048h-.039s.008-.032.031-.04c-.055-.105-.101-.162-.14-.154-.414-.558-.789-.817-1.117-.777-.203-.113-.586-.21-1.133-.275-.031 0-.039.024-.039.049l.008.016zm7.029-1.7c.086.267.227.388.414.364h.047c.07-.065.109-.105.102-.146l-.016-.13c-.148-.202-.297-.291-.445-.275-.039 0-.078.065-.102.186zm.899.867v.049s-.04-.008-.047-.041c-.024 0-.328.146-.922.421-.164.219-.273.332-.328.34-.047 0-.203.372-.469 1.084-.328.211-.46.55-.398 1.028.07.332.156.486.266.469l.164-.024c.054 0 .078-.04.07-.097.172-.024.25-.372.234-1.044.203-.494.305-.777.297-.85.234-.138.422-.308.555-.494.398-.121.64-.227.734-.308.07-.008.234.04.468.146l.235-.073h.203a1.85 1.85 0 0 1 .32-.073h.078c.008.057.086.105.219.121.047 0 .25.21.609.639.164-.024.39.437.672 1.384 0 .397-.086.607-.25.623-.141.445-.399.696-.766.745-.297.486-.625.858-.999 1.109a.67.67 0 0 0-.563.413c-.297.041-.492.21-.586.502-.499.316-.749.518-.742.615a3.85 3.85 0 0 0-.656 1.902l.086.664-.023.089c.109.154.187.235.234.227l.078-.057-.031.089c.039 0 .195.057.476.194.578-.113.93-.21 1.07-.275a1.4 1.4 0 0 1 .368 0c.046-.041.085-.057.109-.065.305.016.508.016.617 0 .062 0 .18-.065.344-.17.414 0 .952-.032 1.616-.097a1.04 1.04 0 0 1 .274-.073l.414.065c.062-.065.109-.097.148-.105 0-.024-.016-.032-.039-.032v-.049s.031.008.039.04c.195-.186.273-.388.242-.623l-.187-.235v-.081l-.024-.421-.133-.065h-.046l-.141.146c-.101.405-.234.623-.414.647-.219-.057-.359-.073-.414-.065-.164.073-.453.17-.859.291-.312-.016-.531-.016-.656 0h-.047l-.547.202h-.039c-.265-.041-.429-.057-.492-.049h-.078l-.547.21c-.328.049-.515-.17-.578-.639-.031-.267.118-.591.453-.947.172-.364.329-.55.461-.567.11-.299.297-.469.555-.502.148-.299.25-.453.312-.461.102-.016.453-.202 1.07-.567.281-.04.477-.251.57-.631.485-.486.735-.777.742-.866.196-.024.305-.567.321-1.611-.274-.947-.469-1.416-.586-1.4-.024 0-.031.016-.031.041h-.047s.008-.032.039-.041l-.703-.664c-.555-.04-1.094-.121-1.625-.243a2.97 2.97 0 0 0-.437.105l-.375-.032s.023.032.047.032h.016z"/></g><g class="B C"><path d="M662.113 149.161c-5.811 4.912-15.511 5.268-22.502.404-5.014-3.488-10.184-5.463-16.354-5.025-3.687.267-5.483 1.489-5.538 5.422-.047 3.181-.445 6.353-.726 9.995 9.091-1.708 16.628-.194 23.821 4.896 2.921 2.072 7.615 3.141 11.044 2.396 6.483-1.416 12.629-4.476 18.909-6.855l.179 7.697-2.413-4.711-10.255 4.403.406 2.023 12.137-1.303c-1.398.672-2.835 2.016-4.186 1.918-16.113-1.165-32.303-1.853-48.252-4.265-4.803-.728-9.419-.218-14.035-.882-3.593-.51-7.522-1.448-10.435-3.512-7.826-5.52-15.738-5.674-24.298-2.525-3.202 1.173-6.709 1.448-10.083 2.128l-.289-1.675c7.803-1.279 15.574-3.075 23.431-3.602 3.374-.218 7.35 1.538 10.286 3.578 5.069 3.52 10.443 4.41 16.183 3.925 3.749-.316 6.85-1.603 6.592-6.669-.156-3.059.406-6.167.688-9.817-9.373 3.618-17.371 1.772-25.478-3.326-6.24-3.925-13.551-2.841-20.541-.818-3.429.996-7.014 1.433-10.708 1.4 3.679-2.379 10.747 1.263 10.903-7.308l.711 4.63 4.585-3.909c1.202.323 3.983 1.295 4.069 1.076 2.398-5.859 3.772-.162 5.576.478l.922-1.821 4.272 4.184.289-3.804a14.27 14.27 0 0 0 .641-.057l.64 6.014 1.32-4.266c.305 4.889 2.882 6.952 10.216 7.956 8.045 1.109 11.622-1.125 14.027-8.733l.711 4.832c8.779-1.999 16.339.567 23.783 5.649 6.099 4.168 13.168 2.129 19.76-.137l-.008.016zm-21.822 18.023c-9.771-7.988-19.956-8.805-23.931-1.983l23.931 1.983zm-20.471-52.613l.031 12.584c8.787-1.723 16.058 1.538 23.447 6.135 5.186 3.221 11.614 2.962 17.401-.17 1.719-.931 3.453-2.493 5.21-2.549 4.405-.154 7.529-1.295 7.701-6.523l-1.344 16.696-.171-2.193c-.485-8.004-2.125-8.951-8.959-4.986-8.185 4.751-16.105 4.184-24.024-.769-2.523-1.578-5.257-3.156-8.092-3.747-3.218-.671-7.209-1.359-9.778.065-1.836 1.02-1.883 5.503-2.742 8.433-.148.518-.383 1.012-.578 1.522l-.718-6.556c-5.96-.21-11.989-1.618-17.394-.283-5.147 1.271-5.092-4.354-8.74-4.573l-1.265 5.164-.531-6.742c-7.233-2.76-13.895-.51-20.643 1.756-2.593.874-5.483.81-8.294.462 12.933-3.877 25.563-8.676 38.583 1.084 3.944 2.954 11.653 3.893 17.206-.421 1.148-.89 1.656-2.946 2.015-4.572.718-3.238 1.117-6.548 1.656-9.826l.023.009z"/><path d="M674.485 119.305c-2.234-4.362-5.272-5.503-9.646-2.671-9.318 6.03-17.878 4.662-26.883-1.036-3.554-2.249-8.287-2.816-12.575-3.35-1.765-.219-3.772 1.643-5.662 2.557-1.391.106-2.898-.121-4.148.364-6.935 2.744-13.801 2.372-19.807-1.869-7.998-5.649-16.042-5.827-24.79-2.638-3.155 1.149-6.639 1.351-9.974 1.991l-.242-1.409c7.217-1.392 14.403-3.496 21.666-3.893 4.069-.218 8.662 1.7 12.356 3.869 8.912 5.228 16.355 5.212 25.009-.842 1.148-.801 2.999-.906 4.483-.785l46.229 3.723c4.257.3 5.272 2.137 3.984 6.005v-.016zm-9.756-4.904l-28.21-2.331c9.934 8.295 18.697 9.072 28.21 2.331zm6.1 45.062l-.008-6.353c.196-5.706-.757-6.466-5.967-4.67l-2.936.858 9.989-3.876-1.07 14.033-.008.008z"/><path d="M556.455 52.925c14.511-4.168 39.598 4.88 51.618 27.557 10.888 20.533 7.022 50.955-8.185 66.534-19.94 20.435-46.487 21.002-65.927 8.142-21.736-14.374-30.538-41.51-22.705-66.728 6.827-21.997 27.953-35.229 42.231-35.132-16.035 4.128-29.125 12.69-36.865 27.978-7.763 15.328-8.24 31.539-1.859 47.515 9.943 24.895 35.662 35.804 54.969 32.454 23.291-4.039 42.559-24.15 42.684-54.621.039-10.052-2.835-19.326-7.842-27.857-5.077-8.652-11.793-15.45-20.721-19.942-8.693-4.37-17.924-5.552-27.406-5.884l.008-.016zm40.356 63.499c-3.015 19.108-20.979 32.809-40.825 28.957-20.018-3.893-32.616-22.952-29.39-43.93 3.249-21.163 21.853-34.493 41.723-30.559 20.018 3.958 32.436 23.794 28.492 45.532zm-67.896-16.502c-4.201 18.541 7.53 38.216 24.97 42.821 17.323 4.572 36.232-5.447 40.801-25.583 4.39-19.367-7.107-39.608-25.016-43.929-18.534-4.467-36.334 7.195-40.755 26.691zm-11.207-14.365l8.575.704-5.373-6.232 1.031-1.279 8.458 4.613-.499 1.246-5.194-2.331 4.163 5.592-6.241.227 3.851 3.253-.547.89-8.623-4.985.391-1.708.008.008zm47.151 65.061l-.149 9.234-.976.502-4.85-5.415-.953 5.059-.992.016-.351-8.166c0-.251 2.171-.98 2.546-.615 1.265 1.238 2.179 2.865 3.577 4.839l1.039-5.535 1.101.081h.008zm14.05-78.966l8.482-6.499 1.047.979-1.968 10.481c-.844-4.289-2.82-6.086-7.186-3.61l-.375-1.352zm23.158 19.918c-.094 1.19.055 3.286-.32 3.391-1.265.356-3.03.502-4.038-.178-2.265-1.53-2.335-5.673-.266-7.689 2.18-2.112 4.827-2.768 7.139-.437 1.789 1.813 2.843 4.176.656 6.353-1.164-2.153-2.054-4.136-3.319-5.803-.196-.267-2.718.583-3.101 1.424-.625 1.384-.383 3.197-.5 4.824l1.328.267 1.312-2.242 1.109.089zm-2.562 7.041l9.81 3.067.102 1.497-9.092 5.18c1.789-3.504 3.663-6.483-1.726-8.635l.899-1.117.007.008zm-47.401 54.588c-.609 3.31-3.288 5.633-5.889 4.808-3.077-.98-4.514-3.173-3.913-6.677.578-3.367 2.57-4.791 5.624-4.549 2.929.235 4.764 3.262 4.178 6.418zm-.538-.194c-1.812-2.031-3.054-4.273-3.851-4.119-1.421.283-3.319 1.845-3.601 3.188-.234 1.117 1.336 3.456 2.531 3.836.984.316 2.593-1.44 4.921-2.905zm-2.515-91.388l-5.694 1.246c3.116 2.606 7.849-.227 8.123 4.613.054 1.036-1.656 2.857-2.804 3.116-1.508.34-3.273-.502-4.71-1.756l5.522-.243.047-1.53-2.5-.898-4.694-1.878c.5-1.117.758-2.93 1.539-3.221 1.562-.566 3.405-.307 5.139-.389l.039.931-.007.008zm-11.724 5.714l-4.1 1.829 7.974 2.501c-.468 1.303-.601 3.286-1.484 3.763-1.468.785-3.429.599-5.256-.032l5.506-2.039-.328-1.53c-.984.024-1.976.146-2.944.04-1.664-.178-3.335-.421-4.929-.906-.148-.049-.125-2.509.43-2.906 1.429-1.004 3.21-1.481 4.842-2.161l.281 1.441h.008zm59.304 6.264c-1.382 1.368-2.96 2.59-4.061 4.176-.57.826-.297 2.282-.399 3.456 1.07-.024 2.312.308 3.164-.154 1.663-.906 3.108-2.258 5.537-4.111-1.703 4.362-3.874 6.677-7.365 6.442-1.359-.097-3.577-1.983-3.71-3.245-.453-4.443 3.718-5.244 5.819-7.729l1.007 1.165h.008zm-30.679-14.989l-3.436.591 5.022 6.912c-1.43.72-2.929 2.145-4.257 1.983-1.453-.17-2.741-1.789-4.108-2.784l.687-.793 5.452 2.185c.624-4.88-7.889-2.954-4.116-8.368.656-.947 3.132-.518 4.772-.728l-.024.995.008.008zm7.834 2.93l4.811 6.054c-1.156.769-2.304 2.161-3.468 2.169-2.148 0-4.53-.558-4.147-3.86.508-.113.859-.316 1-.21l3.421 2.655c.078.057 1.031-.996.999-1.036l-2.686-3.011-1.289-1.522 1.351-1.23.008-.008zm-18.761 6.79l-1.468-9.599 1.843-.3 1.242 9.631-1.617.267zm29.258 44.334c-1.562 1.716-3.499 5.115-4.624 4.848-3.757-.906-1.788-4.321-1.531-6.871.071-.72-.023-1.627.352-2.112.968-1.271 2.163-3.326 3.272-3.326 2.711-.017 2.672 2.33 2.179 4.499l-.538 2.096.906.866h-.016zm-21.143-4.961c-.218 1.15-.132 2.517-.726 3.383-.687.996-2.093 2.25-2.968 2.088-.906-.17-2.132-1.861-2.179-2.929-.086-2.145.219-4.443.976-6.434.469-1.247 2.054-2.04 3.14-3.035.773 1.311 1.773 2.533 2.242 3.949.273.842-.297 1.975-.485 2.978zm-26.078-5.527c.218-1.141.125-2.525.726-3.367.687-.955 2.109-2.08 3.007-1.926.883.154 2.148 1.837 2.14 2.841-.016 2.29-.445 4.678-1.234 6.822-.398 1.077-1.96 1.708-2.991 2.533-.734-1.157-1.773-2.225-2.109-3.488-.266-1.011.336-2.258.547-3.399-.032 0-.055-.008-.086-.016zm27.227 8.7c.281-1.951.257-4.03.937-5.819.453-1.182 1.898-1.951 2.905-2.914.781 1.287 2.093 2.525 2.218 3.885.172 1.862-.234 3.958-.992 5.665-.546 1.239-2.038 2.728-3.163 2.776-.921.041-1.921-1.877-2.89-2.921l.985-.672zm-19.862-8.732c.718-1.247 4.108-2.242.836-4.516l4.561.923-.766 8.741c-.742 4.087-2.475 4.5-5.607 1.602 4.248-1.554 4.553-3.278.984-6.741l-.008-.008zm44.097 6.838l-2.429-1.894c.937-.291 2.046-1.036 2.765-.744.859.348 2.124 1.926 1.929 2.387-1.484 3.497-3.288 6.847-4.991 10.238l-1.39-.672 4.116-9.315z"/></g></g><defs><clipPath id="A"><path fill="#fff" transform="translate(0 15.433)" d="M0 0h178v134.192H0z"/></clipPath><clipPath id="B"><path fill="#fff" transform="translate(506 .87)" d="M0 0h169v169.56H0z"/></clipPath></defs></svg>